<svg class="main-svg" xmlns="http://www.w3.org/2000/svg" xmlns:xlink="http://www.w3.org/1999/xlink" width="700" height="500" style="" viewBox="0 0 700 500"><rect x="0" y="0" width="700" height="500" style="fill: rgb(255, 255, 255); fill-opacity: 1;"/><defs id="defs-a73490"><g class="clips"><clipPath id="clipa73490xyplot" class="plotclip"><rect width="284.23590696996206" height="398.2365485564304"/></clipPath><clipPath id="clipa73490x2y2plot" class="plotclip"><rect width="284.23590696996206" height="398.2365485564304"/></clipPath><clipPath class="axesclip" id="clipa73490x"><rect x="56.06954651501895" y="0" width="284.23590696996206" height="500"/></clipPath><clipPath class="axesclip" id="clipa73490y"><rect x="0" y="46.88867016622919" width="700" height="398.2365485564304"/></clipPath><clipPath class="axesclip" id="clipa73490xy"><rect x="56.06954651501895" y="46.88867016622919" width="284.23590696996206" height="398.2365485564304"/></clipPath><clipPath class="axesclip" id="clipa73490y2"><rect x="0" y="46.88867016622919" width="700" height="398.2365485564304"/></clipPath><clipPath class="axesclip" id="clipa73490xy2"><rect x="56.06954651501895" y="46.88867016622919" width="284.23590696996206" height="398.2365485564304"/></clipPath><clipPath class="axesclip" id="clipa73490x2"><rect x="408.2102872557597" y="0" width="284.23590696996206" height="500"/></clipPath><clipPath class="axesclip" id="clipa73490x2y"><rect x="408.2102872557597" y="46.88867016622919" width="284.23590696996206" height="398.2365485564304"/></clipPath><clipPath class="axesclip" id="clipa73490x2y2"><rect x="408.2102872557597" y="46.88867016622919" width="284.23590696996206" height="398.2365485564304"/></clipPath></g><g class="gradients"/><g class="patterns"/></defs><g class="bglayer"/><g class="layer-below"><g class="imagelayer"/><g class="shapelayer"/></g><g class="cartesianlayer"><g class="subplot xy"><g class="layer-subplot"><g class="shapelayer"/><g class="imagelayer"/></g><g class="minor-gridlayer"><g class="x"/><g class="y"/></g><g class="gridlayer"><g class="x"><path class="xgrid crisp" transform="translate(60.69954651501895,0)" d="M0,46.88867016622919v398.2365485564304" style="stroke: rgb(0, 0, 0); stroke-opacity: 0.1; stroke-width: 0.5px;"/><path class="xgrid crisp" transform="translate(104.69954651501895,0)" d="M0,46.88867016622919v398.2365485564304" style="stroke: rgb(0, 0, 0); stroke-opacity: 0.1; stroke-width: 0.5px;"/><path class="xgrid crisp" transform="translate(148.68954651501895,0)" d="M0,46.88867016622919v398.2365485564304" style="stroke: rgb(0, 0, 0); stroke-opacity: 0.1; stroke-width: 0.5px;"/><path class="xgrid crisp" transform="translate(192.68954651501895,0)" d="M0,46.88867016622919v398.2365485564304" style="stroke: rgb(0, 0, 0); stroke-opacity: 0.1; stroke-width: 0.5px;"/><path class="xgrid crisp" transform="translate(236.67954651501896,0)" d="M0,46.88867016622919v398.2365485564304" style="stroke: rgb(0, 0, 0); stroke-opacity: 0.1; stroke-width: 0.5px;"/><path class="xgrid crisp" transform="translate(280.67954651501896,0)" d="M0,46.88867016622919v398.2365485564304" style="stroke: rgb(0, 0, 0); stroke-opacity: 0.1; stroke-width: 0.5px;"/><path class="xgrid crisp" transform="translate(324.66954651501896,0)" d="M0,46.88867016622919v398.2365485564304" style="stroke: rgb(0, 0, 0); stroke-opacity: 0.1; stroke-width: 0.5px;"/></g><g class="y"><path class="ygrid crisp" transform="translate(0,374.5186701662292)" d="M56.06954651501895,0h284.23590696996206" style="stroke: rgb(0, 0, 0); stroke-opacity: 0.1; stroke-width: 0.5px;"/><path class="ygrid crisp" transform="translate(0,303.9086701662292)" d="M56.06954651501895,0h284.23590696996206" style="stroke: rgb(0, 0, 0); stroke-opacity: 0.1; stroke-width: 0.5px;"/><path class="ygrid crisp" transform="translate(0,233.2986701662292)" d="M56.06954651501895,0h284.23590696996206" style="stroke: rgb(0, 0, 0); stroke-opacity: 0.1; stroke-width: 0.5px;"/><path class="ygrid crisp" transform="translate(0,162.6886701662292)" d="M56.06954651501895,0h284.23590696996206" style="stroke: rgb(0, 0, 0); stroke-opacity: 0.1; stroke-width: 0.5px;"/><path class="ygrid crisp" transform="translate(0,92.07867016622919)" d="M56.06954651501895,0h284.23590696996206" style="stroke: rgb(0, 0, 0); stroke-opacity: 0.1; stroke-width: 0.5px;"/></g></g><g class="zerolinelayer"/><g class="layer-between"><g class="shapelayer"/><g class="imagelayer"/></g><path class="xlines-below"/><path class="ylines-below"/><g class="overlines-below"/><g class="xaxislayer-below"/><g class="yaxislayer-below"/><g class="overaxes-below"/><g class="overplot"><g class="xy" transform="translate(56.06954651501895,46.88867016622919)" clip-path="url(#clipa73490xyplot)"><g class="scatterlayer mlayer"><g class="trace scatter tracef70fa9" style="stroke-miterlimit: 2;"><g class="fills"><g><path class="js-fill" d="M15.63,398.24L15.63,398.24L15.63,392.59L15.63,398.24L26.63,398.24L26.63,392.59L15.63,392.59" style="fill: rgb(0, 154, 250); fill-opacity: 1; stroke-width: 0;"/></g></g><g class="errorbars"/><g class="lines"><path class="js-line" d="M15.63,392.59L15.63,398.24L26.63,398.24L26.63,392.59L15.63,392.59" style="vector-effect: none; fill: none; stroke: rgb(0, 0, 0); stroke-opacity: 1; stroke-width: 1px; opacity: 1;"/></g><g class="points"/><g class="text"/></g><g class="trace scatter tracecfcacc" style="stroke-miterlimit: 2;"><g class="fills"><g><path class="js-fill" d="M26.63,398.24L26.63,398.24L26.63,361.52L26.63,398.24L37.63,398.24L37.63,361.52L26.63,361.52" style="fill: rgb(0, 154, 250); fill-opacity: 1; stroke-width: 0;"/></g></g><g class="errorbars"/><g class="lines"><path class="js-line" d="M26.63,361.52L26.63,398.24L37.63,398.24L37.63,361.52L26.63,361.52" style="vector-effect: none; fill: none; stroke: rgb(0, 0, 0); stroke-opacity: 1; stroke-width: 1px; opacity: 1;"/></g><g class="points"/><g class="text"/></g><g class="trace scatter traceff74f9" style="stroke-miterlimit: 2;"><g class="fills"><g><path class="js-fill" d="M37.63,398.24L37.63,398.24L37.63,245.72L37.63,398.24L48.63,398.24L48.63,245.72L37.63,245.72" style="fill: rgb(0, 154, 250); fill-opacity: 1; stroke-width: 0;"/></g></g><g class="errorbars"/><g class="lines"><path class="js-line" d="M37.63,245.72L37.63,398.24L48.63,398.24L48.63,245.72L37.63,245.72" style="vector-effect: none; fill: none; stroke: rgb(0, 0, 0); stroke-opacity: 1; stroke-width: 1px; opacity: 1;"/></g><g class="points"/><g class="text"/></g><g class="trace scatter trace48e7b8" style="stroke-miterlimit: 2;"><g class="fills"><g><path class="js-fill" d="M48.63,398.24L48.63,398.24L48.63,105.91L48.63,398.24L59.63,398.24L59.63,105.91L48.63,105.91" style="fill: rgb(0, 154, 250); fill-opacity: 1; stroke-width: 0;"/></g></g><g class="errorbars"/><g class="lines"><path class="js-line" d="M48.63,105.91L48.63,398.24L59.63,398.24L59.63,105.91L48.63,105.91" style="vector-effect: none; fill: none; stroke: rgb(0, 0, 0); stroke-opacity: 1; stroke-width: 1px; opacity: 1;"/></g><g class="points"/><g class="text"/></g><g class="trace scatter traceeb5064" style="stroke-miterlimit: 2;"><g class="fills"><g><path class="js-fill" d="M59.63,398.24L59.63,398.24L59.63,18.36L59.63,398.24L70.63,398.24L70.63,18.36L59.63,18.36" style="fill: rgb(0, 154, 250); fill-opacity: 1; stroke-width: 0;"/></g></g><g class="errorbars"/><g class="lines"><path class="js-line" d="M59.63,18.36L59.63,398.24L70.63,398.24L70.63,18.36L59.63,18.36" style="vector-effect: none; fill: none; stroke: rgb(0, 0, 0); stroke-opacity: 1; stroke-width: 1px; opacity: 1;"/></g><g class="points"/><g class="text"/></g><g class="trace scatter trace4e0e55" style="stroke-miterlimit: 2;"><g class="fills"><g><path class="js-fill" d="M70.63,398.24L70.63,398.24L70.63,0L70.63,398.24L81.63,398.24L81.63,0L70.63,0" style="fill: rgb(0, 154, 250); fill-opacity: 1; stroke-width: 0;"/></g></g><g class="errorbars"/><g class="lines"><path class="js-line" d="M70.63,0L70.63,398.24L81.63,398.24L81.63,0L70.63,0" style="vector-effect: none; fill: none; stroke: rgb(0, 0, 0); stroke-opacity: 1; stroke-width: 1px; opacity: 1;"/></g><g class="points"/><g class="text"/></g><g class="trace scatter trace287bda" style="stroke-miterlimit: 2;"><g class="fills"><g><path class="js-fill" d="M81.63,398.24L81.63,398.24L81.63,36.72L81.63,398.24L92.62,398.24L92.62,36.72L81.63,36.72" style="fill: rgb(0, 154, 250); fill-opacity: 1; stroke-width: 0;"/></g></g><g class="errorbars"/><g class="lines"><path class="js-line" d="M81.63,36.72L81.63,398.24L92.62,398.24L92.62,36.72L81.63,36.72" style="vector-effect: none; fill: none; stroke: rgb(0, 0, 0); stroke-opacity: 1; stroke-width: 1px; opacity: 1;"/></g><g class="points"/><g class="text"/></g><g class="trace scatter trace9cac44" style="stroke-miterlimit: 2;"><g class="fills"><g><path class="js-fill" d="M92.62,398.24L92.62,398.24L92.62,74.85L92.62,398.24L103.62,398.24L103.62,74.85L92.62,74.85" style="fill: rgb(0, 154, 250); fill-opacity: 1; stroke-width: 0;"/></g></g><g class="errorbars"/><g class="lines"><path class="js-line" d="M92.62,74.85L92.62,398.24L103.62,398.24L103.62,74.85L92.62,74.85" style="vector-effect: none; fill: none; stroke: rgb(0, 0, 0); stroke-opacity: 1; stroke-width: 1px; opacity: 1;"/></g><g class="points"/><g class="text"/></g><g class="trace scatter trace88ecde" style="stroke-miterlimit: 2;"><g class="fills"><g><path class="js-fill" d="M103.62,398.24L103.62,398.24L103.62,173.7L103.62,398.24L114.62,398.24L114.62,173.7L103.62,173.7" style="fill: rgb(0, 154, 250); fill-opacity: 1; stroke-width: 0;"/></g></g><g class="errorbars"/><g class="lines"><path class="js-line" d="M103.62,173.7L103.62,398.24L114.62,398.24L114.62,173.7L103.62,173.7" style="vector-effect: none; fill: none; stroke: rgb(0, 0, 0); stroke-opacity: 1; stroke-width: 1px; opacity: 1;"/></g><g class="points"/><g class="text"/></g><g class="trace scatter traceb710e2" style="stroke-miterlimit: 2;"><g class="fills"><g><path class="js-fill" d="M114.62,398.24L114.62,398.24L114.62,186.41L114.62,398.24L125.62,398.24L125.62,186.41L114.62,186.41" style="fill: rgb(0, 154, 250); fill-opacity: 1; stroke-width: 0;"/></g></g><g class="errorbars"/><g class="lines"><path class="js-line" d="M114.62,186.41L114.62,398.24L125.62,398.24L125.62,186.41L114.62,186.41" style="vector-effect: none; fill: none; stroke: rgb(0, 0, 0); stroke-opacity: 1; stroke-width: 1px; opacity: 1;"/></g><g class="points"/><g class="text"/></g><g class="trace scatter trace118571" style="stroke-miterlimit: 2;"><g class="fills"><g><path class="js-fill" d="M125.62,398.24L125.62,398.24L125.62,234.42L125.62,398.24L136.62,398.24L136.62,234.42L125.62,234.42" style="fill: rgb(0, 154, 250); fill-opacity: 1; stroke-width: 0;"/></g></g><g class="errorbars"/><g class="lines"><path class="js-line" d="M125.62,234.42L125.62,398.24L136.62,398.24L136.62,234.42L125.62,234.42" style="vector-effect: none; fill: none; stroke: rgb(0, 0, 0); stroke-opacity: 1; stroke-width: 1px; opacity: 1;"/></g><g class="points"/><g class="text"/></g><g class="trace scatter tracecbf932" style="stroke-miterlimit: 2;"><g class="fills"><g><path class="js-fill" d="M136.62,398.24L136.62,398.24L136.62,286.67L136.62,398.24L147.62,398.24L147.62,286.67L136.62,286.67" style="fill: rgb(0, 154, 250); fill-opacity: 1; stroke-width: 0;"/></g></g><g class="errorbars"/><g class="lines"><path class="js-line" d="M136.62,286.67L136.62,398.24L147.62,398.24L147.62,286.67L136.62,286.67" style="vector-effect: none; fill: none; stroke: rgb(0, 0, 0); stroke-opacity: 1; stroke-width: 1px; opacity: 1;"/></g><g class="points"/><g class="text"/></g><g class="trace scatter traceaa1707" style="stroke-miterlimit: 2;"><g class="fills"><g><path class="js-fill" d="M147.62,398.24L147.62,398.24L147.62,336.1L147.62,398.24L158.62,398.24L158.62,336.1L147.62,336.1" style="fill: rgb(0, 154, 250); fill-opacity: 1; stroke-width: 0;"/></g></g><g class="errorbars"/><g class="lines"><path class="js-line" d="M147.62,336.1L147.62,398.24L158.62,398.24L158.62,336.1L147.62,336.1" style="vector-effect: none; fill: none; stroke: rgb(0, 0, 0); stroke-opacity: 1; stroke-width: 1px; opacity: 1;"/></g><g class="points"/><g class="text"/></g><g class="trace scatter trace23fa18" style="stroke-miterlimit: 2;"><g class="fills"><g><path class="js-fill" d="M158.62,398.24L158.62,398.24L158.62,360.11L158.62,398.24L169.61,398.24L169.61,360.11L158.62,360.11" style="fill: rgb(0, 154, 250); fill-opacity: 1; stroke-width: 0;"/></g></g><g class="errorbars"/><g class="lines"><path class="js-line" d="M158.62,360.11L158.62,398.24L169.61,398.24L169.61,360.11L158.62,360.11" style="vector-effect: none; fill: none; stroke: rgb(0, 0, 0); stroke-opacity: 1; stroke-width: 1px; opacity: 1;"/></g><g class="points"/><g class="text"/></g><g class="trace scatter traceceb056" style="stroke-miterlimit: 2;"><g class="fills"><g><path class="js-fill" d="M169.61,398.24L169.61,398.24L169.61,364.34L169.61,398.24L180.61,398.24L180.61,364.34L169.61,364.34" style="fill: rgb(0, 154, 250); fill-opacity: 1; stroke-width: 0;"/></g></g><g class="errorbars"/><g class="lines"><path class="js-line" d="M169.61,364.34L169.61,398.24L180.61,398.24L180.61,364.34L169.61,364.34" style="vector-effect: none; fill: none; stroke: rgb(0, 0, 0); stroke-opacity: 1; stroke-width: 1px; opacity: 1;"/></g><g class="points"/><g class="text"/></g><g class="trace scatter tracefb9141" style="stroke-miterlimit: 2;"><g class="fills"><g><path class="js-fill" d="M180.61,398.24L180.61,398.24L180.61,384.11L180.61,398.24L191.61,398.24L191.61,384.11L180.61,384.11" style="fill: rgb(0, 154, 250); fill-opacity: 1; stroke-width: 0;"/></g></g><g class="errorbars"/><g class="lines"><path class="js-line" d="M180.61,384.11L180.61,398.24L191.61,398.24L191.61,384.11L180.61,384.11" style="vector-effect: none; fill: none; stroke: rgb(0, 0, 0); stroke-opacity: 1; stroke-width: 1px; opacity: 1;"/></g><g class="points"/><g class="text"/></g><g class="trace scatter trace47f5d4" style="stroke-miterlimit: 2;"><g class="fills"><g><path class="js-fill" d="M191.61,398.24L191.61,398.24L191.61,391.18L191.61,398.24L202.61,398.24L202.61,391.18L191.61,391.18" style="fill: rgb(0, 154, 250); fill-opacity: 1; stroke-width: 0;"/></g></g><g class="errorbars"/><g class="lines"><path class="js-line" d="M191.61,391.18L191.61,398.24L202.61,398.24L202.61,391.18L191.61,391.18" style="vector-effect: none; fill: none; stroke: rgb(0, 0, 0); stroke-opacity: 1; stroke-width: 1px; opacity: 1;"/></g><g class="points"/><g class="text"/></g><g class="trace scatter traceff3dd3" style="stroke-miterlimit: 2;"><g class="fills"><g><path class="js-fill" d="M202.61,398.24L202.61,398.24L202.61,396.82L202.61,398.24L213.61,398.24L213.61,396.82L202.61,396.82" style="fill: rgb(0, 154, 250); fill-opacity: 1; stroke-width: 0;"/></g></g><g class="errorbars"/><g class="lines"><path class="js-line" d="M202.61,396.82L202.61,398.24L213.61,398.24L213.61,396.82L202.61,396.82" style="vector-effect: none; fill: none; stroke: rgb(0, 0, 0); stroke-opacity: 1; stroke-width: 1px; opacity: 1;"/></g><g class="points"/><g class="text"/></g><g class="trace scatter trace8f3d8d" style="stroke-miterlimit: 2;"><g class="fills"><g><path class="js-fill" d="M213.61,398.24L213.61,398.24L213.61,398.24L224.61,398.24L213.61,398.24" style="fill: rgb(0, 154, 250); fill-opacity: 1; stroke-width: 0;"/></g></g><g class="errorbars"/><g class="lines"><path class="js-line" d="M213.61,398.24L224.61,398.24L213.61,398.24" style="vector-effect: none; fill: none; stroke: rgb(0, 0, 0); stroke-opacity: 1; stroke-width: 1px; opacity: 1;"/></g><g class="points"/><g class="text"/></g><g class="trace scatter traceeb249f" style="stroke-miterlimit: 2;"><g class="fills"><g><path class="js-fill" d="M224.61,398.24L224.61,398.24L224.61,396.82L224.61,398.24L235.61,398.24L235.61,396.82L224.61,396.82" style="fill: rgb(0, 154, 250); fill-opacity: 1; stroke-width: 0;"/></g></g><g class="errorbars"/><g class="lines"><path class="js-line" d="M224.61,396.82L224.61,398.24L235.61,398.24L235.61,396.82L224.61,396.82" style="vector-effect: none; fill: none; stroke: rgb(0, 0, 0); stroke-opacity: 1; stroke-width: 1px; opacity: 1;"/></g><g class="points"/><g class="text"/></g><g class="trace scatter tracefd1199" style="stroke-miterlimit: 2;"><g class="fills"><g><path class="js-fill" d="M235.61,398.24L235.61,398.24L235.61,396.82L235.61,398.24L246.61,398.24L246.61,396.82L235.61,396.82" style="fill: rgb(0, 154, 250); fill-opacity: 1; stroke-width: 0;"/></g></g><g class="errorbars"/><g class="lines"><path class="js-line" d="M235.61,396.82L235.61,398.24L246.61,398.24L246.61,396.82L235.61,396.82" style="vector-effect: none; fill: none; stroke: rgb(0, 0, 0); stroke-opacity: 1; stroke-width: 1px; opacity: 1;"/></g><g class="points"/><g class="text"/></g><g class="trace scatter trace174f8f" style="stroke-miterlimit: 2;"><g class="fills"><g><path class="js-fill" d="M246.61,398.24L246.61,398.24L246.61,398.24L257.6,398.24L246.61,398.24" style="fill: rgb(0, 154, 250); fill-opacity: 1; stroke-width: 0;"/></g></g><g class="errorbars"/><g class="lines"><path class="js-line" d="M246.61,398.24L257.6,398.24L246.61,398.24" style="vector-effect: none; fill: none; stroke: rgb(0, 0, 0); stroke-opacity: 1; stroke-width: 1px; opacity: 1;"/></g><g class="points"/><g class="text"/></g><g class="trace scatter trace7038f5" style="stroke-miterlimit: 2;"><g class="fills"><g><path class="js-fill" d="M257.6,398.24L257.6,398.24L257.6,395.41L257.6,398.24L268.6,398.24L268.6,395.41L257.6,395.41" style="fill: rgb(0, 154, 250); fill-opacity: 1; stroke-width: 0;"/></g></g><g class="errorbars"/><g class="lines"><path class="js-line" d="M257.6,395.41L257.6,398.24L268.6,398.24L268.6,395.41L257.6,395.41" style="vector-effect: none; fill: none; stroke: rgb(0, 0, 0); stroke-opacity: 1; stroke-width: 1px; opacity: 1;"/></g><g class="points"/><g class="text"/></g><g class="trace scatter trace729257" style="stroke-miterlimit: 2; opacity: 1;"><g class="fills"/><g class="errorbars"/><g class="lines"/><g class="points"><path class="point" transform="translate(21.13,392.59)" d="M3,0A3,3 0 1,1 0,-3A3,3 0 0,1 3,0Z" style="opacity: 1; stroke-width: 1px; fill: rgb(0, 154, 250); fill-opacity: 0; stroke: rgb(0, 0, 0); stroke-opacity: 0;"/><path class="point" transform="translate(32.13,361.52)" d="M3,0A3,3 0 1,1 0,-3A3,3 0 0,1 3,0Z" style="opacity: 1; stroke-width: 1px; fill: rgb(0, 154, 250); fill-opacity: 0; stroke: rgb(0, 0, 0); stroke-opacity: 0;"/><path class="point" transform="translate(43.13,245.72)" d="M3,0A3,3 0 1,1 0,-3A3,3 0 0,1 3,0Z" style="opacity: 1; stroke-width: 1px; fill: rgb(0, 154, 250); fill-opacity: 0; stroke: rgb(0, 0, 0); stroke-opacity: 0;"/><path class="point" transform="translate(54.13,105.91)" d="M3,0A3,3 0 1,1 0,-3A3,3 0 0,1 3,0Z" style="opacity: 1; stroke-width: 1px; fill: rgb(0, 154, 250); fill-opacity: 0; stroke: rgb(0, 0, 0); stroke-opacity: 0;"/><path class="point" transform="translate(65.13,18.36)" d="M3,0A3,3 0 1,1 0,-3A3,3 0 0,1 3,0Z" style="opacity: 1; stroke-width: 1px; fill: rgb(0, 154, 250); fill-opacity: 0; stroke: rgb(0, 0, 0); stroke-opacity: 0;"/><path class="point" transform="translate(76.13,0)" d="M3,0A3,3 0 1,1 0,-3A3,3 0 0,1 3,0Z" style="opacity: 1; stroke-width: 1px; fill: rgb(0, 154, 250); fill-opacity: 0; stroke: rgb(0, 0, 0); stroke-opacity: 0;"/><path class="point" transform="translate(87.12,36.72)" d="M3,0A3,3 0 1,1 0,-3A3,3 0 0,1 3,0Z" style="opacity: 1; stroke-width: 1px; fill: rgb(0, 154, 250); fill-opacity: 0; stroke: rgb(0, 0, 0); stroke-opacity: 0;"/><path class="point" transform="translate(98.12,74.85)" d="M3,0A3,3 0 1,1 0,-3A3,3 0 0,1 3,0Z" style="opacity: 1; stroke-width: 1px; fill: rgb(0, 154, 250); fill-opacity: 0; stroke: rgb(0, 0, 0); stroke-opacity: 0;"/><path class="point" transform="translate(109.12,173.7)" d="M3,0A3,3 0 1,1 0,-3A3,3 0 0,1 3,0Z" style="opacity: 1; stroke-width: 1px; fill: rgb(0, 154, 250); fill-opacity: 0; stroke: rgb(0, 0, 0); stroke-opacity: 0;"/><path class="point" transform="translate(120.12,186.41)" d="M3,0A3,3 0 1,1 0,-3A3,3 0 0,1 3,0Z" style="opacity: 1; stroke-width: 1px; fill: rgb(0, 154, 250); fill-opacity: 0; stroke: rgb(0, 0, 0); stroke-opacity: 0;"/><path class="point" transform="translate(131.12,234.42)" d="M3,0A3,3 0 1,1 0,-3A3,3 0 0,1 3,0Z" style="opacity: 1; stroke-width: 1px; fill: rgb(0, 154, 250); fill-opacity: 0; stroke: rgb(0, 0, 0); stroke-opacity: 0;"/><path class="point" transform="translate(142.12,286.67)" d="M3,0A3,3 0 1,1 0,-3A3,3 0 0,1 3,0Z" style="opacity: 1; stroke-width: 1px; fill: rgb(0, 154, 250); fill-opacity: 0; stroke: rgb(0, 0, 0); stroke-opacity: 0;"/><path class="point" transform="translate(153.12,336.1)" d="M3,0A3,3 0 1,1 0,-3A3,3 0 0,1 3,0Z" style="opacity: 1; stroke-width: 1px; fill: rgb(0, 154, 250); fill-opacity: 0; stroke: rgb(0, 0, 0); stroke-opacity: 0;"/><path class="point" transform="translate(164.12,360.11)" d="M3,0A3,3 0 1,1 0,-3A3,3 0 0,1 3,0Z" style="opacity: 1; stroke-width: 1px; fill: rgb(0, 154, 250); fill-opacity: 0; stroke: rgb(0, 0, 0); stroke-opacity: 0;"/><path class="point" transform="translate(175.11,364.34)" d="M3,0A3,3 0 1,1 0,-3A3,3 0 0,1 3,0Z" style="opacity: 1; stroke-width: 1px; fill: rgb(0, 154, 250); fill-opacity: 0; stroke: rgb(0, 0, 0); stroke-opacity: 0;"/><path class="point" transform="translate(186.11,384.11)" d="M3,0A3,3 0 1,1 0,-3A3,3 0 0,1 3,0Z" style="opacity: 1; stroke-width: 1px; fill: rgb(0, 154, 250); fill-opacity: 0; stroke: rgb(0, 0, 0); stroke-opacity: 0;"/><path class="point" transform="translate(197.11,391.18)" d="M3,0A3,3 0 1,1 0,-3A3,3 0 0,1 3,0Z" style="opacity: 1; stroke-width: 1px; fill: rgb(0, 154, 250); fill-opacity: 0; stroke: rgb(0, 0, 0); stroke-opacity: 0;"/><path class="point" transform="translate(208.11,396.82)" d="M3,0A3,3 0 1,1 0,-3A3,3 0 0,1 3,0Z" style="opacity: 1; stroke-width: 1px; fill: rgb(0, 154, 250); fill-opacity: 0; stroke: rgb(0, 0, 0); stroke-opacity: 0;"/><path class="point" transform="translate(219.11,398.24)" d="M3,0A3,3 0 1,1 0,-3A3,3 0 0,1 3,0Z" style="opacity: 1; stroke-width: 1px; fill: rgb(0, 154, 250); fill-opacity: 0; stroke: rgb(0, 0, 0); stroke-opacity: 0;"/><path class="point" transform="translate(230.11,396.82)" d="M3,0A3,3 0 1,1 0,-3A3,3 0 0,1 3,0Z" style="opacity: 1; stroke-width: 1px; fill: rgb(0, 154, 250); fill-opacity: 0; stroke: rgb(0, 0, 0); stroke-opacity: 0;"/><path class="point" transform="translate(241.11,396.82)" d="M3,0A3,3 0 1,1 0,-3A3,3 0 0,1 3,0Z" style="opacity: 1; stroke-width: 1px; fill: rgb(0, 154, 250); fill-opacity: 0; stroke: rgb(0, 0, 0); stroke-opacity: 0;"/><path class="point" transform="translate(252.1,398.24)" d="M3,0A3,3 0 1,1 0,-3A3,3 0 0,1 3,0Z" style="opacity: 1; stroke-width: 1px; fill: rgb(0, 154, 250); fill-opacity: 0; stroke: rgb(0, 0, 0); stroke-opacity: 0;"/><path class="point" transform="translate(263.1,395.41)" d="M3,0A3,3 0 1,1 0,-3A3,3 0 0,1 3,0Z" style="opacity: 1; stroke-width: 1px; fill: rgb(0, 154, 250); fill-opacity: 0; stroke: rgb(0, 0, 0); stroke-opacity: 0;"/></g><g class="text"/></g></g></g></g><path class="xlines-above crisp" d="M55.06954651501895,445.6252187226596H340.305453484981" style="fill: none; stroke-width: 1px; stroke: rgb(0, 0, 0); stroke-opacity: 1;"/><path class="ylines-above crisp" d="M55.56954651501895,46.88867016622919V445.1252187226596" style="fill: none; stroke-width: 1px; stroke: rgb(0, 0, 0); stroke-opacity: 1;"/><g class="overlines-above"/><g class="xaxislayer-above"><path class="xtick ticks crisp" d="M0,445.1252187226596v-5" transform="translate(60.69954651501895,0)" style="stroke: rgb(0, 0, 0); stroke-opacity: 1; stroke-width: 1px;"/><path class="xtick ticks crisp" d="M0,445.1252187226596v-5" transform="translate(104.69954651501895,0)" style="stroke: rgb(0, 0, 0); stroke-opacity: 1; stroke-width: 1px;"/><path class="xtick ticks crisp" d="M0,445.1252187226596v-5" transform="translate(148.68954651501895,0)" style="stroke: rgb(0, 0, 0); stroke-opacity: 1; stroke-width: 1px;"/><path class="xtick ticks crisp" d="M0,445.1252187226596v-5" transform="translate(192.68954651501895,0)" style="stroke: rgb(0, 0, 0); stroke-opacity: 1; stroke-width: 1px;"/><path class="xtick ticks crisp" d="M0,445.1252187226596v-5" transform="translate(236.67954651501896,0)" style="stroke: rgb(0, 0, 0); stroke-opacity: 1; stroke-width: 1px;"/><path class="xtick ticks crisp" d="M0,445.1252187226596v-5" transform="translate(280.67954651501896,0)" style="stroke: rgb(0, 0, 0); stroke-opacity: 1; stroke-width: 1px;"/><path class="xtick ticks crisp" d="M0,445.1252187226596v-5" transform="translate(324.66954651501896,0)" style="stroke: rgb(0, 0, 0); stroke-opacity: 1; stroke-width: 1px;"/><g class="xtick"><text text-anchor="middle" x="0" y="459.3252187226596" transform="translate(60.69954651501895,0)" style="font-family: sans-serif; font-size: 11px; fill: rgb(0, 0, 0); fill-opacity: 1; white-space: pre; opacity: 1;">0.0</text></g><g class="xtick"><text text-anchor="middle" x="0" y="459.3252187226596" style="font-family: sans-serif; font-size: 11px; fill: rgb(0, 0, 0); fill-opacity: 1; white-space: pre; opacity: 1;" transform="translate(104.69954651501895,0)">0.2</text></g><g class="xtick"><text text-anchor="middle" x="0" y="459.3252187226596" style="font-family: sans-serif; font-size: 11px; fill: rgb(0, 0, 0); fill-opacity: 1; white-space: pre; opacity: 1;" transform="translate(148.68954651501895,0)">0.4</text></g><g class="xtick"><text text-anchor="middle" x="0" y="459.3252187226596" style="font-family: sans-serif; font-size: 11px; fill: rgb(0, 0, 0); fill-opacity: 1; white-space: pre; opacity: 1;" transform="translate(192.68954651501895,0)">0.6</text></g><g class="xtick"><text text-anchor="middle" x="0" y="459.3252187226596" style="font-family: sans-serif; font-size: 11px; fill: rgb(0, 0, 0); fill-opacity: 1; white-space: pre; opacity: 1;" transform="translate(236.67954651501896,0)">0.8</text></g><g class="xtick"><text text-anchor="middle" x="0" y="459.3252187226596" style="font-family: sans-serif; font-size: 11px; fill: rgb(0, 0, 0); fill-opacity: 1; white-space: pre; opacity: 1;" transform="translate(280.67954651501896,0)">1.0</text></g><g class="xtick"><text text-anchor="middle" x="0" y="459.3252187226596" style="font-family: sans-serif; font-size: 11px; fill: rgb(0, 0, 0); fill-opacity: 1; white-space: pre; opacity: 1;" transform="translate(324.66954651501896,0)">1.2</text></g></g><g class="yaxislayer-above"><path class="ytick ticks crisp" d="M56.06954651501895,0h5" transform="translate(0,374.5186701662292)" style="stroke: rgb(0, 0, 0); stroke-opacity: 1; stroke-width: 1px;"/><path class="ytick ticks crisp" d="M56.06954651501895,0h5" transform="translate(0,303.9086701662292)" style="stroke: rgb(0, 0, 0); stroke-opacity: 1; stroke-width: 1px;"/><path class="ytick ticks crisp" d="M56.06954651501895,0h5" transform="translate(0,233.2986701662292)" style="stroke: rgb(0, 0, 0); stroke-opacity: 1; stroke-width: 1px;"/><path class="ytick ticks crisp" d="M56.06954651501895,0h5" transform="translate(0,162.6886701662292)" style="stroke: rgb(0, 0, 0); stroke-opacity: 1; stroke-width: 1px;"/><path class="ytick ticks crisp" d="M56.06954651501895,0h5" transform="translate(0,92.07867016622919)" style="stroke: rgb(0, 0, 0); stroke-opacity: 1; stroke-width: 1px;"/><g class="ytick"><text text-anchor="end" x="52.869546515018946" y="3.8499999999999996" transform="translate(0,445.1286701662292)" style="font-family: sans-serif; font-size: 11px; fill: rgb(0, 0, 0); fill-opacity: 1; white-space: pre; opacity: 1;">0</text></g><g class="ytick"><text text-anchor="end" x="52.869546515018946" y="3.8499999999999996" style="font-family: sans-serif; font-size: 11px; fill: rgb(0, 0, 0); fill-opacity: 1; white-space: pre; opacity: 1;" transform="translate(0,374.5186701662292)">50</text></g><g class="ytick"><text text-anchor="end" x="52.869546515018946" y="3.8499999999999996" style="font-family: sans-serif; font-size: 11px; fill: rgb(0, 0, 0); fill-opacity: 1; white-space: pre; opacity: 1;" transform="translate(0,303.9086701662292)">100</text></g><g class="ytick"><text text-anchor="end" x="52.869546515018946" y="3.8499999999999996" style="font-family: sans-serif; font-size: 11px; fill: rgb(0, 0, 0); fill-opacity: 1; white-space: pre; opacity: 1;" transform="translate(0,233.2986701662292)">150</text></g><g class="ytick"><text text-anchor="end" x="52.869546515018946" y="3.8499999999999996" style="font-family: sans-serif; font-size: 11px; fill: rgb(0, 0, 0); fill-opacity: 1; white-space: pre; opacity: 1;" transform="translate(0,162.6886701662292)">200</text></g><g class="ytick"><text text-anchor="end" x="52.869546515018946" y="3.8499999999999996" style="font-family: sans-serif; font-size: 11px; fill: rgb(0, 0, 0); fill-opacity: 1; white-space: pre; opacity: 1;" transform="translate(0,92.07867016622919)">250</text></g></g><g class="overaxes-above"/></g><g class="subplot x2y2"><g class="layer-subplot"><g class="shapelayer"/><g class="imagelayer"/></g><g class="minor-gridlayer"><g class="x2"/><g class="y2"/></g><g class="gridlayer"><g class="x2"><path class="x2grid crisp" transform="translate(416.2502872557597,0)" d="M0,46.88867016622919v398.2365485564304" style="stroke: rgb(0, 0, 0); stroke-opacity: 0.1; stroke-width: 0.5px;"/><path class="x2grid crisp" transform="translate(483.29028725575967,0)" d="M0,46.88867016622919v398.2365485564304" style="stroke: rgb(0, 0, 0); stroke-opacity: 0.1; stroke-width: 0.5px;"/><path class="x2grid crisp" transform="translate(550.3302872557597,0)" d="M0,46.88867016622919v398.2365485564304" style="stroke: rgb(0, 0, 0); stroke-opacity: 0.1; stroke-width: 0.5px;"/><path class="x2grid crisp" transform="translate(617.3602872557597,0)" d="M0,46.88867016622919v398.2365485564304" style="stroke: rgb(0, 0, 0); stroke-opacity: 0.1; stroke-width: 0.5px;"/><path class="x2grid crisp" transform="translate(684.4002872557596,0)" d="M0,46.88867016622919v398.2365485564304" style="stroke: rgb(0, 0, 0); stroke-opacity: 0.1; stroke-width: 0.5px;"/></g><g class="y2"><path class="y2grid crisp" transform="translate(0,369.97867016622916)" d="M408.2102872557597,0h284.23590696996206" style="stroke: rgb(0, 0, 0); stroke-opacity: 0.1; stroke-width: 0.5px;"/><path class="y2grid crisp" transform="translate(0,287.16867016622916)" d="M408.2102872557597,0h284.23590696996206" style="stroke: rgb(0, 0, 0); stroke-opacity: 0.1; stroke-width: 0.5px;"/><path class="y2grid crisp" transform="translate(0,204.36867016622918)" d="M408.2102872557597,0h284.23590696996206" style="stroke: rgb(0, 0, 0); stroke-opacity: 0.1; stroke-width: 0.5px;"/><path class="y2grid crisp" transform="translate(0,121.55867016622919)" d="M408.2102872557597,0h284.23590696996206" style="stroke: rgb(0, 0, 0); stroke-opacity: 0.1; stroke-width: 0.5px;"/></g></g><g class="zerolinelayer"/><g class="layer-between"><g class="shapelayer"/><g class="imagelayer"/></g><path class="xlines-below"/><path class="ylines-below"/><g class="overlines-below"/><g class="xaxislayer-below"/><g class="yaxislayer-below"/><g class="overaxes-below"/><g class="overplot"><g class="x2y2" transform="translate(408.2102872557597,46.88867016622919)" clip-path="url(#clipa73490x2y2plot)"><g class="scatterlayer mlayer"><g class="trace scatter tracea8d903" style="stroke-miterlimit: 2; opacity: 1;"><g class="fills"/><g class="errorbars"/><g class="lines"><path class="js-line" d="M8.04,386.97L10.73,358.87L13.41,352.39L18.77,346.71L21.45,343.99L32.18,335.89L34.86,334.37L48.27,326.56L50.95,324.38L58.99,321.16L61.67,319.5L72.4,314.12L75.08,313.3L80.44,310.75L83.13,309.75L91.17,305.94L93.85,304.73L101.9,301.39L104.58,299.74L117.98,294.59L120.67,293.43L134.07,287.16L136.76,286.18L144.8,282.44L147.48,280.95L155.53,276.94L158.21,275.81L195.75,255.91L198.43,253L211.84,242.19L214.52,240.35L219.88,236.45L222.56,234.45L227.93,231.49L230.61,228.97L233.29,226.68L235.97,222.08L244.01,214.75L246.7,211.53L249.38,208.38L252.06,203.87L254.74,199.72L257.42,197.25L260.1,193.31L262.78,185.21L265.47,178.82L268.15,168.88L273.51,141.62L276.19,11.27" style="vector-effect: none; fill: none; stroke: rgb(0, 154, 250); stroke-opacity: 1; stroke-width: 1px; opacity: 1;"/></g><g class="points"/><g class="text"/></g></g></g></g><path class="xlines-above crisp" d="M407.2102872557597,445.6252187226596H692.4461942257217" style="fill: none; stroke-width: 1px; stroke: rgb(0, 0, 0); stroke-opacity: 1;"/><path class="ylines-above crisp" d="M407.7102872557597,46.88867016622919V445.1252187226596" style="fill: none; stroke-width: 1px; stroke: rgb(0, 0, 0); stroke-opacity: 1;"/><g class="overlines-above"/><g class="xaxislayer-above"><path class="x2tick ticks crisp" d="M0,445.1252187226596v-5" transform="translate(416.2502872557597,0)" style="stroke: rgb(0, 0, 0); stroke-opacity: 1; stroke-width: 1px;"/><path class="x2tick ticks crisp" d="M0,445.1252187226596v-5" transform="translate(483.29028725575967,0)" style="stroke: rgb(0, 0, 0); stroke-opacity: 1; stroke-width: 1px;"/><path class="x2tick ticks crisp" d="M0,445.1252187226596v-5" transform="translate(550.3302872557597,0)" style="stroke: rgb(0, 0, 0); stroke-opacity: 1; stroke-width: 1px;"/><path class="x2tick ticks crisp" d="M0,445.1252187226596v-5" transform="translate(617.3602872557597,0)" style="stroke: rgb(0, 0, 0); stroke-opacity: 1; stroke-width: 1px;"/><path class="x2tick ticks crisp" d="M0,445.1252187226596v-5" transform="translate(684.4002872557596,0)" style="stroke: rgb(0, 0, 0); stroke-opacity: 1; stroke-width: 1px;"/><g class="x2tick"><text text-anchor="middle" x="0" y="459.3252187226596" transform="translate(416.2502872557597,0)" style="font-family: sans-serif; font-size: 11px; fill: rgb(0, 0, 0); fill-opacity: 1; white-space: pre; opacity: 1;">0.00</text></g><g class="x2tick"><text text-anchor="middle" x="0" y="459.3252187226596" style="font-family: sans-serif; font-size: 11px; fill: rgb(0, 0, 0); fill-opacity: 1; white-space: pre; opacity: 1;" transform="translate(483.29028725575967,0)">0.25</text></g><g class="x2tick"><text text-anchor="middle" x="0" y="459.3252187226596" style="font-family: sans-serif; font-size: 11px; fill: rgb(0, 0, 0); fill-opacity: 1; white-space: pre; opacity: 1;" transform="translate(550.3302872557597,0)">0.50</text></g><g class="x2tick"><text text-anchor="middle" x="0" y="459.3252187226596" style="font-family: sans-serif; font-size: 11px; fill: rgb(0, 0, 0); fill-opacity: 1; white-space: pre; opacity: 1;" transform="translate(617.3602872557597,0)">0.75</text></g><g class="x2tick"><text text-anchor="middle" x="0" y="459.3252187226596" style="font-family: sans-serif; font-size: 11px; fill: rgb(0, 0, 0); fill-opacity: 1; white-space: pre; opacity: 1;" transform="translate(684.4002872557596,0)">1.00</text></g></g><g class="yaxislayer-above"><path class="y2tick ticks crisp" d="M408.2102872557597,0h5" transform="translate(0,369.97867016622916)" style="stroke: rgb(0, 0, 0); stroke-opacity: 1; stroke-width: 1px;"/><path class="y2tick ticks crisp" d="M408.2102872557597,0h5" transform="translate(0,287.16867016622916)" style="stroke: rgb(0, 0, 0); stroke-opacity: 1; stroke-width: 1px;"/><path class="y2tick ticks crisp" d="M408.2102872557597,0h5" transform="translate(0,204.36867016622918)" style="stroke: rgb(0, 0, 0); stroke-opacity: 1; stroke-width: 1px;"/><path class="y2tick ticks crisp" d="M408.2102872557597,0h5" transform="translate(0,121.55867016622919)" style="stroke: rgb(0, 0, 0); stroke-opacity: 1; stroke-width: 1px;"/><g class="y2tick"><text text-anchor="end" x="405.0102872557597" y="3.8499999999999996" transform="translate(0,369.97867016622916)" style="font-family: sans-serif; font-size: 11px; fill: rgb(0, 0, 0); fill-opacity: 1; white-space: pre; opacity: 1;">0.25</text></g><g class="y2tick"><text text-anchor="end" x="405.0102872557597" y="3.8499999999999996" style="font-family: sans-serif; font-size: 11px; fill: rgb(0, 0, 0); fill-opacity: 1; white-space: pre; opacity: 1;" transform="translate(0,287.16867016622916)">0.50</text></g><g class="y2tick"><text text-anchor="end" x="405.0102872557597" y="3.8499999999999996" style="font-family: sans-serif; font-size: 11px; fill: rgb(0, 0, 0); fill-opacity: 1; white-space: pre; opacity: 1;" transform="translate(0,204.36867016622918)">0.75</text></g><g class="y2tick"><text text-anchor="end" x="405.0102872557597" y="3.8499999999999996" style="font-family: sans-serif; font-size: 11px; fill: rgb(0, 0, 0); fill-opacity: 1; white-space: pre; opacity: 1;" transform="translate(0,121.55867016622919)">1.00</text></g></g><g class="overaxes-above"/></g></g><g class="polarlayer"/><g class="smithlayer"/><g class="ternarylayer"/><g class="geolayer"/><g class="funnelarealayer"/><g class="pielayer"/><g class="iciclelayer"/><g class="treemaplayer"/><g class="sunburstlayer"/><g class="glimages"/><defs id="topdefs-a73490"><g class="clips"/><clipPath id="legenda73490"><rect width="57" height="48" x="1" y="1"/></clipPath></defs><g class="layer-above"><g class="imagelayer"/><g class="shapelayer"/></g><g class="infolayer"><g class="legend" pointer-events="all" transform="translate(638,20)"><rect class="bg" shape-rendering="crispEdges" style="stroke: rgb(0, 0, 0); stroke-opacity: 1; fill: rgb(255, 255, 255); fill-opacity: 1; stroke-width: 1px;" width="58" height="49" x="0.5" y="0.5"/><g class="scrollbox" transform="" clip-path="url(#legenda73490)"><g class="groups"><g class="traces" transform="translate(1,15.5)" style="opacity: 1;"><text class="legendtext" text-anchor="start" x="40" y="4.29" style="font-family: sans-serif; font-size: 11px; fill: rgb(0, 0, 0); fill-opacity: 1; white-space: pre;">y1</text><g class="layers"><g class="legendfill"><path class="js-fill" d="M5,-2h30v6h-30z" style="stroke-width: 0; fill: rgb(0, 154, 250); fill-opacity: 1;"/></g><g class="legendlines"><path class="js-line" d="M5,-2h30" style="fill: none; stroke: rgb(0, 0, 0); stroke-opacity: 1; stroke-width: 1px;"/></g><g class="legendsymbols"><g class="legendpoints"/></g></g><rect class="legendtoggle" x="0" y="-9.5" width="51.625" height="19" style="fill: rgb(0, 0, 0); fill-opacity: 0;"/></g><g class="traces" transform="translate(1,34.5)" style="opacity: 1;"><text class="legendtext" text-anchor="start" x="40" y="4.29" style="font-family: sans-serif; font-size: 11px; fill: rgb(0, 0, 0); fill-opacity: 1; white-space: pre;">y1</text><g class="layers" style="opacity: 1;"><g class="legendfill"/><g class="legendlines"><path class="js-line" d="M5,0h30" style="fill: none; stroke: rgb(0, 154, 250); stroke-opacity: 1; stroke-width: 1px;"/></g><g class="legendsymbols"><g class="legendpoints"/></g></g><rect class="legendtoggle" x="0" y="-9.5" width="51.625" height="19" style="fill: rgb(0, 0, 0); fill-opacity: 0;"/></g></g></g><rect class="scrollbar" rx="20" ry="3" width="0" height="0" style="fill: rgb(128, 139, 164); fill-opacity: 1;" x="0" y="0"/></g><g class="g-gtitle"/><g class="g-xtitle" transform="translate(0,-9986.328125)"/><g class="g-x2title" transform="translate(0,-9986.328125)"/><g class="g-ytitle"/><g class="g-y2title"><text class="y2title" transform="rotate(-90,363.84375,246.0069444444444)" x="363.84375" y="246.0069444444444" text-anchor="middle" style="opacity: 1; font-family: sans-serif; font-size: 15px; fill: rgb(0, 0, 0); fill-opacity: 1; white-space: pre;">K</text></g><g class="annotation" data-index="0" style="opacity: 1;"><g class="annotation-text-g" transform="rotate(0,198.18749999999997,33.00000000000001)"><g class="cursor-pointer" transform="translate(58,20)"><rect class="bg" x="0.5" y="0.5" width="279" height="25" style="stroke-width: 1px; stroke: rgb(0, 0, 0); stroke-opacity: 0; fill: rgb(0, 0, 0); fill-opacity: 0;"/><text class="annotation-text" text-anchor="middle" x="139.859375" y="20" style="font-family: sans-serif; font-size: 20px; fill: rgb(0, 0, 0); fill-opacity: 1; white-space: pre;">Temperature increase 6hrs sun</text></g></g></g></g></svg>