<svg class="main-svg" xmlns="http://www.w3.org/2000/svg" xmlns:xlink="http://www.w3.org/1999/xlink" width="700" height="500" style="" viewBox="0 0 700 500"><rect x="0" y="0" width="700" height="500" style="fill: rgb(255, 255, 255); fill-opacity: 1;"/><defs id="defs-362096"><g class="clips"><clipPath id="clip362096xyplot" class="plotclip"><rect width="288.12574001166524" height="398.2365485564304"/></clipPath><clipPath id="clip362096x2y2plot" class="plotclip"><rect width="288.1257400116652" height="398.2365485564304"/></clipPath><clipPath class="axesclip" id="clip362096x"><rect x="59.84013925342665" y="0" width="288.12574001166524" height="500"/></clipPath><clipPath class="axesclip" id="clip362096y"><rect x="0" y="46.88867016622919" width="700" height="398.2365485564304"/></clipPath><clipPath class="axesclip" id="clip362096xy"><rect x="59.84013925342665" y="46.88867016622919" width="288.12574001166524" height="398.2365485564304"/></clipPath><clipPath class="axesclip" id="clip362096y2"><rect x="0" y="46.88867016622919" width="700" height="398.2365485564304"/></clipPath><clipPath class="axesclip" id="clip362096xy2"><rect x="59.84013925342665" y="46.88867016622919" width="288.12574001166524" height="398.2365485564304"/></clipPath><clipPath class="axesclip" id="clip362096x2"><rect x="405.3401392534266" y="0" width="288.1257400116652" height="500"/></clipPath><clipPath class="axesclip" id="clip362096x2y"><rect x="405.3401392534266" y="46.88867016622919" width="288.1257400116652" height="398.2365485564304"/></clipPath><clipPath class="axesclip" id="clip362096x2y2"><rect x="405.3401392534266" y="46.88867016622919" width="288.1257400116652" height="398.2365485564304"/></clipPath></g><g class="gradients"/><g class="patterns"/></defs><g class="bglayer"/><g class="layer-below"><g class="imagelayer"/><g class="shapelayer"/></g><g class="cartesianlayer"><g class="subplot xy"><g class="layer-subplot"><g class="shapelayer"/><g class="imagelayer"/></g><g class="minor-gridlayer"><g class="x"/><g class="y"/></g><g class="gridlayer"><g class="x"><path class="xgrid crisp" transform="translate(63.48013925342665,0)" d="M0,46.88867016622919v398.2365485564304" style="stroke: rgb(0, 0, 0); stroke-opacity: 0.1; stroke-width: 0.5px;"/><path class="xgrid crisp" transform="translate(124.53013925342665,0)" d="M0,46.88867016622919v398.2365485564304" style="stroke: rgb(0, 0, 0); stroke-opacity: 0.1; stroke-width: 0.5px;"/><path class="xgrid crisp" transform="translate(185.59013925342666,0)" d="M0,46.88867016622919v398.2365485564304" style="stroke: rgb(0, 0, 0); stroke-opacity: 0.1; stroke-width: 0.5px;"/><path class="xgrid crisp" transform="translate(246.64013925342667,0)" d="M0,46.88867016622919v398.2365485564304" style="stroke: rgb(0, 0, 0); stroke-opacity: 0.1; stroke-width: 0.5px;"/><path class="xgrid crisp" transform="translate(307.70013925342664,0)" d="M0,46.88867016622919v398.2365485564304" style="stroke: rgb(0, 0, 0); stroke-opacity: 0.1; stroke-width: 0.5px;"/></g><g class="y"><path class="ygrid crisp" transform="translate(0,377.6286701662292)" d="M59.84013925342665,0h288.12574001166524" style="stroke: rgb(0, 0, 0); stroke-opacity: 0.1; stroke-width: 0.5px;"/><path class="ygrid crisp" transform="translate(0,310.1286701662292)" d="M59.84013925342665,0h288.12574001166524" style="stroke: rgb(0, 0, 0); stroke-opacity: 0.1; stroke-width: 0.5px;"/><path class="ygrid crisp" transform="translate(0,242.6286701662292)" d="M59.84013925342665,0h288.12574001166524" style="stroke: rgb(0, 0, 0); stroke-opacity: 0.1; stroke-width: 0.5px;"/><path class="ygrid crisp" transform="translate(0,175.1386701662292)" d="M59.84013925342665,0h288.12574001166524" style="stroke: rgb(0, 0, 0); stroke-opacity: 0.1; stroke-width: 0.5px;"/><path class="ygrid crisp" transform="translate(0,107.63867016622919)" d="M59.84013925342665,0h288.12574001166524" style="stroke: rgb(0, 0, 0); stroke-opacity: 0.1; stroke-width: 0.5px;"/></g></g><g class="zerolinelayer"/><g class="layer-between"><g class="shapelayer"/><g class="imagelayer"/></g><path class="xlines-below"/><path class="ylines-below"/><g class="overlines-below"/><g class="xaxislayer-below"/><g class="yaxislayer-below"/><g class="overaxes-below"/><g class="overplot"><g class="xy" transform="translate(59.84013925342665,46.88867016622919)" clip-path="url(#clip362096xyplot)"><g class="scatterlayer mlayer"><g class="trace scatter trace17618d" style="stroke-miterlimit: 2;"><g class="fills"><g><path class="js-fill" d="M15.85,398.24L15.85,398.24L15.85,388.79L15.85,398.24L28.06,398.24L28.06,388.79L15.85,388.79" style="fill: rgb(0, 154, 250); fill-opacity: 1; stroke-width: 0;"/></g></g><g class="errorbars"/><g class="lines"><path class="js-line" d="M15.85,388.79L15.85,398.24L28.06,398.24L28.06,388.79L15.85,388.79" style="vector-effect: none; fill: none; stroke: rgb(0, 0, 0); stroke-opacity: 1; stroke-width: 1px; opacity: 1;"/></g><g class="points"/><g class="text"/></g><g class="trace scatter trace4f4f55" style="stroke-miterlimit: 2;"><g class="fills"><g><path class="js-fill" d="M28.06,398.24L28.06,398.24L28.06,356.39L28.06,398.24L40.27,398.24L40.27,356.39L28.06,356.39" style="fill: rgb(0, 154, 250); fill-opacity: 1; stroke-width: 0;"/></g></g><g class="errorbars"/><g class="lines"><path class="js-line" d="M28.06,356.39L28.06,398.24L40.27,398.24L40.27,356.39L28.06,356.39" style="vector-effect: none; fill: none; stroke: rgb(0, 0, 0); stroke-opacity: 1; stroke-width: 1px; opacity: 1;"/></g><g class="points"/><g class="text"/></g><g class="trace scatter trace8bafdb" style="stroke-miterlimit: 2;"><g class="fills"><g><path class="js-fill" d="M40.27,398.24L40.27,398.24L40.27,272.69L40.27,398.24L52.48,398.24L52.48,272.69L40.27,272.69" style="fill: rgb(0, 154, 250); fill-opacity: 1; stroke-width: 0;"/></g></g><g class="errorbars"/><g class="lines"><path class="js-line" d="M40.27,272.69L40.27,398.24L52.48,398.24L52.48,272.69L40.27,272.69" style="vector-effect: none; fill: none; stroke: rgb(0, 0, 0); stroke-opacity: 1; stroke-width: 1px; opacity: 1;"/></g><g class="points"/><g class="text"/></g><g class="trace scatter trace63f38e" style="stroke-miterlimit: 2;"><g class="fills"><g><path class="js-fill" d="M52.48,398.24L52.48,398.24L52.48,121.5L52.48,398.24L64.69,398.24L64.69,121.5L52.48,121.5" style="fill: rgb(0, 154, 250); fill-opacity: 1; stroke-width: 0;"/></g></g><g class="errorbars"/><g class="lines"><path class="js-line" d="M52.48,121.5L52.48,398.24L64.69,398.24L64.69,121.5L52.48,121.5" style="vector-effect: none; fill: none; stroke: rgb(0, 0, 0); stroke-opacity: 1; stroke-width: 1px; opacity: 1;"/></g><g class="points"/><g class="text"/></g><g class="trace scatter trace70dd1c" style="stroke-miterlimit: 2;"><g class="fills"><g><path class="js-fill" d="M64.69,398.24L64.69,398.24L64.69,66.15L64.69,398.24L76.9,398.24L76.9,66.15L64.69,66.15" style="fill: rgb(0, 154, 250); fill-opacity: 1; stroke-width: 0;"/></g></g><g class="errorbars"/><g class="lines"><path class="js-line" d="M64.69,66.15L64.69,398.24L76.9,398.24L76.9,66.15L64.69,66.15" style="vector-effect: none; fill: none; stroke: rgb(0, 0, 0); stroke-opacity: 1; stroke-width: 1px; opacity: 1;"/></g><g class="points"/><g class="text"/></g><g class="trace scatter traceaf1f1f" style="stroke-miterlimit: 2;"><g class="fills"><g><path class="js-fill" d="M76.9,398.24L76.9,398.24L76.9,0L76.9,398.24L89.11,398.24L89.11,0L76.9,0" style="fill: rgb(0, 154, 250); fill-opacity: 1; stroke-width: 0;"/></g></g><g class="errorbars"/><g class="lines"><path class="js-line" d="M76.9,0L76.9,398.24L89.11,398.24L89.11,0L76.9,0" style="vector-effect: none; fill: none; stroke: rgb(0, 0, 0); stroke-opacity: 1; stroke-width: 1px; opacity: 1;"/></g><g class="points"/><g class="text"/></g><g class="trace scatter trace1e0a9f" style="stroke-miterlimit: 2;"><g class="fills"><g><path class="js-fill" d="M89.11,398.24L89.11,398.24L89.11,16.2L89.11,398.24L101.32,398.24L101.32,16.2L89.11,16.2" style="fill: rgb(0, 154, 250); fill-opacity: 1; stroke-width: 0;"/></g></g><g class="errorbars"/><g class="lines"><path class="js-line" d="M89.11,16.2L89.11,398.24L101.32,398.24L101.32,16.2L89.11,16.2" style="vector-effect: none; fill: none; stroke: rgb(0, 0, 0); stroke-opacity: 1; stroke-width: 1px; opacity: 1;"/></g><g class="points"/><g class="text"/></g><g class="trace scatter trace43e100" style="stroke-miterlimit: 2;"><g class="fills"><g><path class="js-fill" d="M101.32,398.24L101.32,398.24L101.32,82.35L101.32,398.24L113.54,398.24L113.54,82.35L101.32,82.35" style="fill: rgb(0, 154, 250); fill-opacity: 1; stroke-width: 0;"/></g></g><g class="errorbars"/><g class="lines"><path class="js-line" d="M101.32,82.35L101.32,398.24L113.54,398.24L113.54,82.35L101.32,82.35" style="vector-effect: none; fill: none; stroke: rgb(0, 0, 0); stroke-opacity: 1; stroke-width: 1px; opacity: 1;"/></g><g class="points"/><g class="text"/></g><g class="trace scatter trace4a836b" style="stroke-miterlimit: 2;"><g class="fills"><g><path class="js-fill" d="M113.54,398.24L113.54,398.24L113.54,176.84L113.54,398.24L125.75,398.24L125.75,176.84L113.54,176.84" style="fill: rgb(0, 154, 250); fill-opacity: 1; stroke-width: 0;"/></g></g><g class="errorbars"/><g class="lines"><path class="js-line" d="M113.54,176.84L113.54,398.24L125.75,398.24L125.75,176.84L113.54,176.84" style="vector-effect: none; fill: none; stroke: rgb(0, 0, 0); stroke-opacity: 1; stroke-width: 1px; opacity: 1;"/></g><g class="points"/><g class="text"/></g><g class="trace scatter tracef26c44" style="stroke-miterlimit: 2;"><g class="fills"><g><path class="js-fill" d="M125.75,398.24L125.75,398.24L125.75,210.59L125.75,398.24L137.96,398.24L137.96,210.59L125.75,210.59" style="fill: rgb(0, 154, 250); fill-opacity: 1; stroke-width: 0;"/></g></g><g class="errorbars"/><g class="lines"><path class="js-line" d="M125.75,210.59L125.75,398.24L137.96,398.24L137.96,210.59L125.75,210.59" style="vector-effect: none; fill: none; stroke: rgb(0, 0, 0); stroke-opacity: 1; stroke-width: 1px; opacity: 1;"/></g><g class="points"/><g class="text"/></g><g class="trace scatter trace2614b1" style="stroke-miterlimit: 2;"><g class="fills"><g><path class="js-fill" d="M137.96,398.24L137.96,398.24L137.96,244.34L137.96,398.24L150.17,398.24L150.17,244.34L137.96,244.34" style="fill: rgb(0, 154, 250); fill-opacity: 1; stroke-width: 0;"/></g></g><g class="errorbars"/><g class="lines"><path class="js-line" d="M137.96,244.34L137.96,398.24L150.17,398.24L150.17,244.34L137.96,244.34" style="vector-effect: none; fill: none; stroke: rgb(0, 0, 0); stroke-opacity: 1; stroke-width: 1px; opacity: 1;"/></g><g class="points"/><g class="text"/></g><g class="trace scatter tracee50402" style="stroke-miterlimit: 2;"><g class="fills"><g><path class="js-fill" d="M150.17,398.24L150.17,398.24L150.17,301.04L150.17,398.24L162.38,398.24L162.38,301.04L150.17,301.04" style="fill: rgb(0, 154, 250); fill-opacity: 1; stroke-width: 0;"/></g></g><g class="errorbars"/><g class="lines"><path class="js-line" d="M150.17,301.04L150.17,398.24L162.38,398.24L162.38,301.04L150.17,301.04" style="vector-effect: none; fill: none; stroke: rgb(0, 0, 0); stroke-opacity: 1; stroke-width: 1px; opacity: 1;"/></g><g class="points"/><g class="text"/></g><g class="trace scatter tracef8c2b3" style="stroke-miterlimit: 2;"><g class="fills"><g><path class="js-fill" d="M162.38,398.24L162.38,398.24L162.38,333.44L162.38,398.24L174.59,398.24L174.59,333.44L162.38,333.44" style="fill: rgb(0, 154, 250); fill-opacity: 1; stroke-width: 0;"/></g></g><g class="errorbars"/><g class="lines"><path class="js-line" d="M162.38,333.44L162.38,398.24L174.59,398.24L174.59,333.44L162.38,333.44" style="vector-effect: none; fill: none; stroke: rgb(0, 0, 0); stroke-opacity: 1; stroke-width: 1px; opacity: 1;"/></g><g class="points"/><g class="text"/></g><g class="trace scatter trace037f8e" style="stroke-miterlimit: 2;"><g class="fills"><g><path class="js-fill" d="M174.59,398.24L174.59,398.24L174.59,363.14L174.59,398.24L186.8,398.24L186.8,363.14L174.59,363.14" style="fill: rgb(0, 154, 250); fill-opacity: 1; stroke-width: 0;"/></g></g><g class="errorbars"/><g class="lines"><path class="js-line" d="M174.59,363.14L174.59,398.24L186.8,398.24L186.8,363.14L174.59,363.14" style="vector-effect: none; fill: none; stroke: rgb(0, 0, 0); stroke-opacity: 1; stroke-width: 1px; opacity: 1;"/></g><g class="points"/><g class="text"/></g><g class="trace scatter tracef946ee" style="stroke-miterlimit: 2;"><g class="fills"><g><path class="js-fill" d="M186.8,398.24L186.8,398.24L186.8,367.19L186.8,398.24L199.01,398.24L199.01,367.19L186.8,367.19" style="fill: rgb(0, 154, 250); fill-opacity: 1; stroke-width: 0;"/></g></g><g class="errorbars"/><g class="lines"><path class="js-line" d="M186.8,367.19L186.8,398.24L199.01,398.24L199.01,367.19L186.8,367.19" style="vector-effect: none; fill: none; stroke: rgb(0, 0, 0); stroke-opacity: 1; stroke-width: 1px; opacity: 1;"/></g><g class="points"/><g class="text"/></g><g class="trace scatter traced6a7cb" style="stroke-miterlimit: 2;"><g class="fills"><g><path class="js-fill" d="M199.01,398.24L199.01,398.24L199.01,387.44L199.01,398.24L211.22,398.24L211.22,387.44L199.01,387.44" style="fill: rgb(0, 154, 250); fill-opacity: 1; stroke-width: 0;"/></g></g><g class="errorbars"/><g class="lines"><path class="js-line" d="M199.01,387.44L199.01,398.24L211.22,398.24L211.22,387.44L199.01,387.44" style="vector-effect: none; fill: none; stroke: rgb(0, 0, 0); stroke-opacity: 1; stroke-width: 1px; opacity: 1;"/></g><g class="points"/><g class="text"/></g><g class="trace scatter traceaae619" style="stroke-miterlimit: 2;"><g class="fills"><g><path class="js-fill" d="M211.22,398.24L211.22,398.24L211.22,391.49L211.22,398.24L223.43,398.24L223.43,391.49L211.22,391.49" style="fill: rgb(0, 154, 250); fill-opacity: 1; stroke-width: 0;"/></g></g><g class="errorbars"/><g class="lines"><path class="js-line" d="M211.22,391.49L211.22,398.24L223.43,398.24L223.43,391.49L211.22,391.49" style="vector-effect: none; fill: none; stroke: rgb(0, 0, 0); stroke-opacity: 1; stroke-width: 1px; opacity: 1;"/></g><g class="points"/><g class="text"/></g><g class="trace scatter trace3a5ec2" style="stroke-miterlimit: 2;"><g class="fills"><g><path class="js-fill" d="M223.43,398.24L223.43,398.24L223.43,396.89L223.43,398.24L235.65,398.24L235.65,396.89L223.43,396.89" style="fill: rgb(0, 154, 250); fill-opacity: 1; stroke-width: 0;"/></g></g><g class="errorbars"/><g class="lines"><path class="js-line" d="M223.43,396.89L223.43,398.24L235.65,398.24L235.65,396.89L223.43,396.89" style="vector-effect: none; fill: none; stroke: rgb(0, 0, 0); stroke-opacity: 1; stroke-width: 1px; opacity: 1;"/></g><g class="points"/><g class="text"/></g><g class="trace scatter trace3c1bfa" style="stroke-miterlimit: 2;"><g class="fills"><g><path class="js-fill" d="M235.65,398.24L235.65,398.24L235.65,394.19L235.65,398.24L247.86,398.24L247.86,394.19L235.65,394.19" style="fill: rgb(0, 154, 250); fill-opacity: 1; stroke-width: 0;"/></g></g><g class="errorbars"/><g class="lines"><path class="js-line" d="M235.65,394.19L235.65,398.24L247.86,398.24L247.86,394.19L235.65,394.19" style="vector-effect: none; fill: none; stroke: rgb(0, 0, 0); stroke-opacity: 1; stroke-width: 1px; opacity: 1;"/></g><g class="points"/><g class="text"/></g><g class="trace scatter traceb10325" style="stroke-miterlimit: 2;"><g class="fills"><g><path class="js-fill" d="M247.86,398.24L247.86,398.24L247.86,396.89L247.86,398.24L260.07,398.24L260.07,396.89L247.86,396.89" style="fill: rgb(0, 154, 250); fill-opacity: 1; stroke-width: 0;"/></g></g><g class="errorbars"/><g class="lines"><path class="js-line" d="M247.86,396.89L247.86,398.24L260.07,398.24L260.07,396.89L247.86,396.89" style="vector-effect: none; fill: none; stroke: rgb(0, 0, 0); stroke-opacity: 1; stroke-width: 1px; opacity: 1;"/></g><g class="points"/><g class="text"/></g><g class="trace scatter trace69b6fa" style="stroke-miterlimit: 2;"><g class="fills"><g><path class="js-fill" d="M260.07,398.24L260.07,398.24L260.07,395.54L260.07,398.24L272.28,398.24L272.28,395.54L260.07,395.54" style="fill: rgb(0, 154, 250); fill-opacity: 1; stroke-width: 0;"/></g></g><g class="errorbars"/><g class="lines"><path class="js-line" d="M260.07,395.54L260.07,398.24L272.28,398.24L272.28,395.54L260.07,395.54" style="vector-effect: none; fill: none; stroke: rgb(0, 0, 0); stroke-opacity: 1; stroke-width: 1px; opacity: 1;"/></g><g class="points"/><g class="text"/></g><g class="trace scatter trace257e96" style="stroke-miterlimit: 2; opacity: 1;"><g class="fills"/><g class="errorbars"/><g class="lines"/><g class="points"><path class="point" transform="translate(21.95,388.79)" d="M3,0A3,3 0 1,1 0,-3A3,3 0 0,1 3,0Z" style="opacity: 1; stroke-width: 1px; fill: rgb(0, 154, 250); fill-opacity: 0; stroke: rgb(0, 0, 0); stroke-opacity: 0;"/><path class="point" transform="translate(34.16,356.39)" d="M3,0A3,3 0 1,1 0,-3A3,3 0 0,1 3,0Z" style="opacity: 1; stroke-width: 1px; fill: rgb(0, 154, 250); fill-opacity: 0; stroke: rgb(0, 0, 0); stroke-opacity: 0;"/><path class="point" transform="translate(46.37,272.69)" d="M3,0A3,3 0 1,1 0,-3A3,3 0 0,1 3,0Z" style="opacity: 1; stroke-width: 1px; fill: rgb(0, 154, 250); fill-opacity: 0; stroke: rgb(0, 0, 0); stroke-opacity: 0;"/><path class="point" transform="translate(58.59,121.5)" d="M3,0A3,3 0 1,1 0,-3A3,3 0 0,1 3,0Z" style="opacity: 1; stroke-width: 1px; fill: rgb(0, 154, 250); fill-opacity: 0; stroke: rgb(0, 0, 0); stroke-opacity: 0;"/><path class="point" transform="translate(70.8,66.15)" d="M3,0A3,3 0 1,1 0,-3A3,3 0 0,1 3,0Z" style="opacity: 1; stroke-width: 1px; fill: rgb(0, 154, 250); fill-opacity: 0; stroke: rgb(0, 0, 0); stroke-opacity: 0;"/><path class="point" transform="translate(83.01,0)" d="M3,0A3,3 0 1,1 0,-3A3,3 0 0,1 3,0Z" style="opacity: 1; stroke-width: 1px; fill: rgb(0, 154, 250); fill-opacity: 0; stroke: rgb(0, 0, 0); stroke-opacity: 0;"/><path class="point" transform="translate(95.22,16.2)" d="M3,0A3,3 0 1,1 0,-3A3,3 0 0,1 3,0Z" style="opacity: 1; stroke-width: 1px; fill: rgb(0, 154, 250); fill-opacity: 0; stroke: rgb(0, 0, 0); stroke-opacity: 0;"/><path class="point" transform="translate(107.43,82.35)" d="M3,0A3,3 0 1,1 0,-3A3,3 0 0,1 3,0Z" style="opacity: 1; stroke-width: 1px; fill: rgb(0, 154, 250); fill-opacity: 0; stroke: rgb(0, 0, 0); stroke-opacity: 0;"/><path class="point" transform="translate(119.64,176.84)" d="M3,0A3,3 0 1,1 0,-3A3,3 0 0,1 3,0Z" style="opacity: 1; stroke-width: 1px; fill: rgb(0, 154, 250); fill-opacity: 0; stroke: rgb(0, 0, 0); stroke-opacity: 0;"/><path class="point" transform="translate(131.85,210.59)" d="M3,0A3,3 0 1,1 0,-3A3,3 0 0,1 3,0Z" style="opacity: 1; stroke-width: 1px; fill: rgb(0, 154, 250); fill-opacity: 0; stroke: rgb(0, 0, 0); stroke-opacity: 0;"/><path class="point" transform="translate(144.06,244.34)" d="M3,0A3,3 0 1,1 0,-3A3,3 0 0,1 3,0Z" style="opacity: 1; stroke-width: 1px; fill: rgb(0, 154, 250); fill-opacity: 0; stroke: rgb(0, 0, 0); stroke-opacity: 0;"/><path class="point" transform="translate(156.27,301.04)" d="M3,0A3,3 0 1,1 0,-3A3,3 0 0,1 3,0Z" style="opacity: 1; stroke-width: 1px; fill: rgb(0, 154, 250); fill-opacity: 0; stroke: rgb(0, 0, 0); stroke-opacity: 0;"/><path class="point" transform="translate(168.48,333.44)" d="M3,0A3,3 0 1,1 0,-3A3,3 0 0,1 3,0Z" style="opacity: 1; stroke-width: 1px; fill: rgb(0, 154, 250); fill-opacity: 0; stroke: rgb(0, 0, 0); stroke-opacity: 0;"/><path class="point" transform="translate(180.7,363.14)" d="M3,0A3,3 0 1,1 0,-3A3,3 0 0,1 3,0Z" style="opacity: 1; stroke-width: 1px; fill: rgb(0, 154, 250); fill-opacity: 0; stroke: rgb(0, 0, 0); stroke-opacity: 0;"/><path class="point" transform="translate(192.91,367.19)" d="M3,0A3,3 0 1,1 0,-3A3,3 0 0,1 3,0Z" style="opacity: 1; stroke-width: 1px; fill: rgb(0, 154, 250); fill-opacity: 0; stroke: rgb(0, 0, 0); stroke-opacity: 0;"/><path class="point" transform="translate(205.12,387.44)" d="M3,0A3,3 0 1,1 0,-3A3,3 0 0,1 3,0Z" style="opacity: 1; stroke-width: 1px; fill: rgb(0, 154, 250); fill-opacity: 0; stroke: rgb(0, 0, 0); stroke-opacity: 0;"/><path class="point" transform="translate(217.33,391.49)" d="M3,0A3,3 0 1,1 0,-3A3,3 0 0,1 3,0Z" style="opacity: 1; stroke-width: 1px; fill: rgb(0, 154, 250); fill-opacity: 0; stroke: rgb(0, 0, 0); stroke-opacity: 0;"/><path class="point" transform="translate(229.54,396.89)" d="M3,0A3,3 0 1,1 0,-3A3,3 0 0,1 3,0Z" style="opacity: 1; stroke-width: 1px; fill: rgb(0, 154, 250); fill-opacity: 0; stroke: rgb(0, 0, 0); stroke-opacity: 0;"/><path class="point" transform="translate(241.75,394.19)" d="M3,0A3,3 0 1,1 0,-3A3,3 0 0,1 3,0Z" style="opacity: 1; stroke-width: 1px; fill: rgb(0, 154, 250); fill-opacity: 0; stroke: rgb(0, 0, 0); stroke-opacity: 0;"/><path class="point" transform="translate(253.96,396.89)" d="M3,0A3,3 0 1,1 0,-3A3,3 0 0,1 3,0Z" style="opacity: 1; stroke-width: 1px; fill: rgb(0, 154, 250); fill-opacity: 0; stroke: rgb(0, 0, 0); stroke-opacity: 0;"/><path class="point" transform="translate(266.17,395.54)" d="M3,0A3,3 0 1,1 0,-3A3,3 0 0,1 3,0Z" style="opacity: 1; stroke-width: 1px; fill: rgb(0, 154, 250); fill-opacity: 0; stroke: rgb(0, 0, 0); stroke-opacity: 0;"/></g><g class="text"/></g></g></g></g><path class="xlines-above crisp" d="M58.84013925342665,445.6252187226596H347.96587926509187" style="fill: none; stroke-width: 1px; stroke: rgb(0, 0, 0); stroke-opacity: 1;"/><path class="ylines-above crisp" d="M59.34013925342665,46.88867016622919V445.1252187226596" style="fill: none; stroke-width: 1px; stroke: rgb(0, 0, 0); stroke-opacity: 1;"/><g class="overlines-above"/><g class="xaxislayer-above"><path class="xtick ticks crisp" d="M0,445.1252187226596v-5" transform="translate(63.48013925342665,0)" style="stroke: rgb(0, 0, 0); stroke-opacity: 1; stroke-width: 1px;"/><path class="xtick ticks crisp" d="M0,445.1252187226596v-5" transform="translate(124.53013925342665,0)" style="stroke: rgb(0, 0, 0); stroke-opacity: 1; stroke-width: 1px;"/><path class="xtick ticks crisp" d="M0,445.1252187226596v-5" transform="translate(185.59013925342666,0)" style="stroke: rgb(0, 0, 0); stroke-opacity: 1; stroke-width: 1px;"/><path class="xtick ticks crisp" d="M0,445.1252187226596v-5" transform="translate(246.64013925342667,0)" style="stroke: rgb(0, 0, 0); stroke-opacity: 1; stroke-width: 1px;"/><path class="xtick ticks crisp" d="M0,445.1252187226596v-5" transform="translate(307.70013925342664,0)" style="stroke: rgb(0, 0, 0); stroke-opacity: 1; stroke-width: 1px;"/><g class="xtick"><text text-anchor="middle" x="0" y="459.3252187226596" transform="translate(63.48013925342665,0)" style="font-family: sans-serif; font-size: 11px; fill: rgb(0, 0, 0); fill-opacity: 1; white-space: pre; opacity: 1;">0.00</text></g><g class="xtick"><text text-anchor="middle" x="0" y="459.3252187226596" style="font-family: sans-serif; font-size: 11px; fill: rgb(0, 0, 0); fill-opacity: 1; white-space: pre; opacity: 1;" transform="translate(124.53013925342665,0)">0.25</text></g><g class="xtick"><text text-anchor="middle" x="0" y="459.3252187226596" style="font-family: sans-serif; font-size: 11px; fill: rgb(0, 0, 0); fill-opacity: 1; white-space: pre; opacity: 1;" transform="translate(185.59013925342666,0)">0.50</text></g><g class="xtick"><text text-anchor="middle" x="0" y="459.3252187226596" style="font-family: sans-serif; font-size: 11px; fill: rgb(0, 0, 0); fill-opacity: 1; white-space: pre; opacity: 1;" transform="translate(246.64013925342667,0)">0.75</text></g><g class="xtick"><text text-anchor="middle" x="0" y="459.3252187226596" style="font-family: sans-serif; font-size: 11px; fill: rgb(0, 0, 0); fill-opacity: 1; white-space: pre; opacity: 1;" transform="translate(307.70013925342664,0)">1.00</text></g></g><g class="yaxislayer-above"><path class="ytick ticks crisp" d="M59.84013925342665,0h5" transform="translate(0,377.6286701662292)" style="stroke: rgb(0, 0, 0); stroke-opacity: 1; stroke-width: 1px;"/><path class="ytick ticks crisp" d="M59.84013925342665,0h5" transform="translate(0,310.1286701662292)" style="stroke: rgb(0, 0, 0); stroke-opacity: 1; stroke-width: 1px;"/><path class="ytick ticks crisp" d="M59.84013925342665,0h5" transform="translate(0,242.6286701662292)" style="stroke: rgb(0, 0, 0); stroke-opacity: 1; stroke-width: 1px;"/><path class="ytick ticks crisp" d="M59.84013925342665,0h5" transform="translate(0,175.1386701662292)" style="stroke: rgb(0, 0, 0); stroke-opacity: 1; stroke-width: 1px;"/><path class="ytick ticks crisp" d="M59.84013925342665,0h5" transform="translate(0,107.63867016622919)" style="stroke: rgb(0, 0, 0); stroke-opacity: 1; stroke-width: 1px;"/><g class="ytick"><text text-anchor="end" x="56.640139253426646" y="3.8499999999999996" transform="translate(0,445.1286701662292)" style="font-family: sans-serif; font-size: 11px; fill: rgb(0, 0, 0); fill-opacity: 1; white-space: pre; opacity: 1;">0</text></g><g class="ytick"><text text-anchor="end" x="56.640139253426646" y="3.8499999999999996" style="font-family: sans-serif; font-size: 11px; fill: rgb(0, 0, 0); fill-opacity: 1; white-space: pre; opacity: 1;" transform="translate(0,377.6286701662292)">50</text></g><g class="ytick"><text text-anchor="end" x="56.640139253426646" y="3.8499999999999996" style="font-family: sans-serif; font-size: 11px; fill: rgb(0, 0, 0); fill-opacity: 1; white-space: pre; opacity: 1;" transform="translate(0,310.1286701662292)">100</text></g><g class="ytick"><text text-anchor="end" x="56.640139253426646" y="3.8499999999999996" style="font-family: sans-serif; font-size: 11px; fill: rgb(0, 0, 0); fill-opacity: 1; white-space: pre; opacity: 1;" transform="translate(0,242.6286701662292)">150</text></g><g class="ytick"><text text-anchor="end" x="56.640139253426646" y="3.8499999999999996" style="font-family: sans-serif; font-size: 11px; fill: rgb(0, 0, 0); fill-opacity: 1; white-space: pre; opacity: 1;" transform="translate(0,175.1386701662292)">200</text></g><g class="ytick"><text text-anchor="end" x="56.640139253426646" y="3.8499999999999996" style="font-family: sans-serif; font-size: 11px; fill: rgb(0, 0, 0); fill-opacity: 1; white-space: pre; opacity: 1;" transform="translate(0,107.63867016622919)">250</text></g></g><g class="overaxes-above"/></g><g class="subplot x2y2"><g class="layer-subplot"><g class="shapelayer"/><g class="imagelayer"/></g><g class="minor-gridlayer"><g class="x2"/><g class="y2"/></g><g class="gridlayer"><g class="x2"><path class="x2grid crisp" transform="translate(413.4901392534266,0)" d="M0,46.88867016622919v398.2365485564304" style="stroke: rgb(0, 0, 0); stroke-opacity: 0.1; stroke-width: 0.5px;"/><path class="x2grid crisp" transform="translate(481.45013925342664,0)" d="M0,46.88867016622919v398.2365485564304" style="stroke: rgb(0, 0, 0); stroke-opacity: 0.1; stroke-width: 0.5px;"/><path class="x2grid crisp" transform="translate(549.4001392534267,0)" d="M0,46.88867016622919v398.2365485564304" style="stroke: rgb(0, 0, 0); stroke-opacity: 0.1; stroke-width: 0.5px;"/><path class="x2grid crisp" transform="translate(617.3601392534266,0)" d="M0,46.88867016622919v398.2365485564304" style="stroke: rgb(0, 0, 0); stroke-opacity: 0.1; stroke-width: 0.5px;"/><path class="x2grid crisp" transform="translate(685.3101392534267,0)" d="M0,46.88867016622919v398.2365485564304" style="stroke: rgb(0, 0, 0); stroke-opacity: 0.1; stroke-width: 0.5px;"/></g><g class="y2"><path class="y2grid crisp" transform="translate(0,385.8786701662292)" d="M405.3401392534266,0h288.1257400116652" style="stroke: rgb(0, 0, 0); stroke-opacity: 0.1; stroke-width: 0.5px;"/><path class="y2grid crisp" transform="translate(0,312.8886701662292)" d="M405.3401392534266,0h288.1257400116652" style="stroke: rgb(0, 0, 0); stroke-opacity: 0.1; stroke-width: 0.5px;"/><path class="y2grid crisp" transform="translate(0,239.9086701662292)" d="M405.3401392534266,0h288.1257400116652" style="stroke: rgb(0, 0, 0); stroke-opacity: 0.1; stroke-width: 0.5px;"/><path class="y2grid crisp" transform="translate(0,166.9286701662292)" d="M405.3401392534266,0h288.1257400116652" style="stroke: rgb(0, 0, 0); stroke-opacity: 0.1; stroke-width: 0.5px;"/><path class="y2grid crisp" transform="translate(0,93.93867016622919)" d="M405.3401392534266,0h288.1257400116652" style="stroke: rgb(0, 0, 0); stroke-opacity: 0.1; stroke-width: 0.5px;"/></g></g><g class="zerolinelayer"/><g class="layer-between"><g class="shapelayer"/><g class="imagelayer"/></g><path class="xlines-below"/><path class="ylines-below"/><g class="overlines-below"/><g class="xaxislayer-below"/><g class="yaxislayer-below"/><g class="overaxes-below"/><g class="overplot"><g class="x2y2" transform="translate(405.3401392534266,46.88867016622919)" clip-path="url(#clip362096x2y2plot)"><g class="scatterlayer mlayer"><g class="trace scatter trace56cf1c" style="stroke-miterlimit: 2; opacity: 1;"><g class="fills"/><g class="errorbars"/><g class="lines"><path class="js-line" d="M8.15,386.97L10.87,366.12L13.59,356.89L21.75,342.55L24.46,340.54L35.34,332.39L38.05,330.63L46.21,325.25L48.93,324.31L54.36,320.51L57.08,319.3L62.52,315.49L65.24,314.21L84.26,304.86L86.98,302.76L106.01,294.37L108.73,293.42L119.6,288.42L122.32,286.92L146.78,275.32L149.5,273.89L154.94,271.1L157.65,269.91L176.68,260.18L179.4,258.11L195.71,249.18L198.43,247.46L212.02,236.51L214.74,233.69L217.45,231.93L220.17,229.09L228.33,222.47L231.04,218.93L236.48,213.88L239.2,210.46L247.35,203.17L250.07,199.85L263.66,176.99L266.38,169.19L271.82,152.72L274.53,136.98L277.25,120.52L279.97,11.27" style="vector-effect: none; fill: none; stroke: rgb(0, 154, 250); stroke-opacity: 1; stroke-width: 1px; opacity: 1;"/></g><g class="points"/><g class="text"/></g></g></g></g><path class="xlines-above crisp" d="M404.3401392534266,445.6252187226596H693.4658792650919" style="fill: none; stroke-width: 1px; stroke: rgb(0, 0, 0); stroke-opacity: 1;"/><path class="ylines-above crisp" d="M404.8401392534266,46.88867016622919V445.1252187226596" style="fill: none; stroke-width: 1px; stroke: rgb(0, 0, 0); stroke-opacity: 1;"/><g class="overlines-above"/><g class="xaxislayer-above"><path class="x2tick ticks crisp" d="M0,445.1252187226596v-5" transform="translate(413.4901392534266,0)" style="stroke: rgb(0, 0, 0); stroke-opacity: 1; stroke-width: 1px;"/><path class="x2tick ticks crisp" d="M0,445.1252187226596v-5" transform="translate(481.45013925342664,0)" style="stroke: rgb(0, 0, 0); stroke-opacity: 1; stroke-width: 1px;"/><path class="x2tick ticks crisp" d="M0,445.1252187226596v-5" transform="translate(549.4001392534267,0)" style="stroke: rgb(0, 0, 0); stroke-opacity: 1; stroke-width: 1px;"/><path class="x2tick ticks crisp" d="M0,445.1252187226596v-5" transform="translate(617.3601392534266,0)" style="stroke: rgb(0, 0, 0); stroke-opacity: 1; stroke-width: 1px;"/><path class="x2tick ticks crisp" d="M0,445.1252187226596v-5" transform="translate(685.3101392534267,0)" style="stroke: rgb(0, 0, 0); stroke-opacity: 1; stroke-width: 1px;"/><g class="x2tick"><text text-anchor="middle" x="0" y="459.3252187226596" transform="translate(413.4901392534266,0)" style="font-family: sans-serif; font-size: 11px; fill: rgb(0, 0, 0); fill-opacity: 1; white-space: pre; opacity: 1;">0.00</text></g><g class="x2tick"><text text-anchor="middle" x="0" y="459.3252187226596" style="font-family: sans-serif; font-size: 11px; fill: rgb(0, 0, 0); fill-opacity: 1; white-space: pre; opacity: 1;" transform="translate(481.45013925342664,0)">0.25</text></g><g class="x2tick"><text text-anchor="middle" x="0" y="459.3252187226596" style="font-family: sans-serif; font-size: 11px; fill: rgb(0, 0, 0); fill-opacity: 1; white-space: pre; opacity: 1;" transform="translate(549.4001392534267,0)">0.50</text></g><g class="x2tick"><text text-anchor="middle" x="0" y="459.3252187226596" style="font-family: sans-serif; font-size: 11px; fill: rgb(0, 0, 0); fill-opacity: 1; white-space: pre; opacity: 1;" transform="translate(617.3601392534266,0)">0.75</text></g><g class="x2tick"><text text-anchor="middle" x="0" y="459.3252187226596" style="font-family: sans-serif; font-size: 11px; fill: rgb(0, 0, 0); fill-opacity: 1; white-space: pre; opacity: 1;" transform="translate(685.3101392534267,0)">1.00</text></g></g><g class="yaxislayer-above"><path class="y2tick ticks crisp" d="M405.3401392534266,0h5" transform="translate(0,385.8786701662292)" style="stroke: rgb(0, 0, 0); stroke-opacity: 1; stroke-width: 1px;"/><path class="y2tick ticks crisp" d="M405.3401392534266,0h5" transform="translate(0,312.8886701662292)" style="stroke: rgb(0, 0, 0); stroke-opacity: 1; stroke-width: 1px;"/><path class="y2tick ticks crisp" d="M405.3401392534266,0h5" transform="translate(0,239.9086701662292)" style="stroke: rgb(0, 0, 0); stroke-opacity: 1; stroke-width: 1px;"/><path class="y2tick ticks crisp" d="M405.3401392534266,0h5" transform="translate(0,166.9286701662292)" style="stroke: rgb(0, 0, 0); stroke-opacity: 1; stroke-width: 1px;"/><path class="y2tick ticks crisp" d="M405.3401392534266,0h5" transform="translate(0,93.93867016622919)" style="stroke: rgb(0, 0, 0); stroke-opacity: 1; stroke-width: 1px;"/><g class="y2tick"><text text-anchor="end" x="402.14013925342664" y="3.8499999999999996" transform="translate(0,385.8786701662292)" style="font-family: sans-serif; font-size: 11px; fill: rgb(0, 0, 0); fill-opacity: 1; white-space: pre; opacity: 1;">0.2</text></g><g class="y2tick"><text text-anchor="end" x="402.14013925342664" y="3.8499999999999996" style="font-family: sans-serif; font-size: 11px; fill: rgb(0, 0, 0); fill-opacity: 1; white-space: pre; opacity: 1;" transform="translate(0,312.8886701662292)">0.4</text></g><g class="y2tick"><text text-anchor="end" x="402.14013925342664" y="3.8499999999999996" style="font-family: sans-serif; font-size: 11px; fill: rgb(0, 0, 0); fill-opacity: 1; white-space: pre; opacity: 1;" transform="translate(0,239.9086701662292)">0.6</text></g><g class="y2tick"><text text-anchor="end" x="402.14013925342664" y="3.8499999999999996" style="font-family: sans-serif; font-size: 11px; fill: rgb(0, 0, 0); fill-opacity: 1; white-space: pre; opacity: 1;" transform="translate(0,166.9286701662292)">0.8</text></g><g class="y2tick"><text text-anchor="end" x="402.14013925342664" y="3.8499999999999996" style="font-family: sans-serif; font-size: 11px; fill: rgb(0, 0, 0); fill-opacity: 1; white-space: pre; opacity: 1;" transform="translate(0,93.93867016622919)">1.0</text></g></g><g class="overaxes-above"/></g></g><g class="polarlayer"/><g class="smithlayer"/><g class="ternarylayer"/><g class="geolayer"/><g class="funnelarealayer"/><g class="pielayer"/><g class="iciclelayer"/><g class="treemaplayer"/><g class="sunburstlayer"/><g class="glimages"/><defs id="topdefs-362096"><g class="clips"/><clipPath id="legend362096"><rect width="57" height="48" x="1" y="1"/></clipPath></defs><g class="layer-above"><g class="imagelayer"/><g class="shapelayer"/></g><g class="infolayer"><g class="legend" pointer-events="all" transform="translate(639,20)"><rect class="bg" shape-rendering="crispEdges" style="stroke: rgb(0, 0, 0); stroke-opacity: 1; fill: rgb(255, 255, 255); fill-opacity: 1; stroke-width: 1px;" width="58" height="49" x="0.5" y="0.5"/><g class="scrollbox" transform="" clip-path="url(#legend362096)"><g class="groups"><g class="traces" transform="translate(1,15.5)" style="opacity: 1;"><text class="legendtext" text-anchor="start" x="40" y="4.29" style="font-family: sans-serif; font-size: 11px; fill: rgb(0, 0, 0); fill-opacity: 1; white-space: pre;">y1</text><g class="layers"><g class="legendfill"><path class="js-fill" d="M5,-2h30v6h-30z" style="stroke-width: 0; fill: rgb(0, 154, 250); fill-opacity: 1;"/></g><g class="legendlines"><path class="js-line" d="M5,-2h30" style="fill: none; stroke: rgb(0, 0, 0); stroke-opacity: 1; stroke-width: 1px;"/></g><g class="legendsymbols"><g class="legendpoints"/></g></g><rect class="legendtoggle" x="0" y="-9.5" width="51.625" height="19" style="fill: rgb(0, 0, 0); fill-opacity: 0;"/></g><g class="traces" transform="translate(1,34.5)" style="opacity: 1;"><text class="legendtext" text-anchor="start" x="40" y="4.29" style="font-family: sans-serif; font-size: 11px; fill: rgb(0, 0, 0); fill-opacity: 1; white-space: pre;">y1</text><g class="layers" style="opacity: 1;"><g class="legendfill"/><g class="legendlines"><path class="js-line" d="M5,0h30" style="fill: none; stroke: rgb(0, 154, 250); stroke-opacity: 1; stroke-width: 1px;"/></g><g class="legendsymbols"><g class="legendpoints"/></g></g><rect class="legendtoggle" x="0" y="-9.5" width="51.625" height="19" style="fill: rgb(0, 0, 0); fill-opacity: 0;"/></g></g></g><rect class="scrollbar" rx="20" ry="3" width="0" height="0" style="fill: rgb(128, 139, 164); fill-opacity: 1;" x="0" y="0"/></g><g class="g-gtitle"/><g class="g-xtitle" transform="translate(0,-9986.328125)"/><g class="g-x2title" transform="translate(0,-9986.328125)"/><g class="g-ytitle"/><g class="g-y2title"><text class="y2title" transform="rotate(-90,367.09375,246.0069444444444)" x="367.09375" y="246.0069444444444" text-anchor="middle" style="opacity: 1; font-family: sans-serif; font-size: 15px; fill: rgb(0, 0, 0); fill-opacity: 1; white-space: pre;">K</text></g><g class="annotation" data-index="0" style="opacity: 1;"><g class="annotation-text-g" transform="rotate(0,203.90300925925925,33.00000000000001)"><g class="cursor-pointer" transform="translate(64,20)"><rect class="bg" x="0.5" y="0.5" width="279" height="25" style="stroke-width: 1px; stroke: rgb(0, 0, 0); stroke-opacity: 0; fill: rgb(0, 0, 0); fill-opacity: 0;"/><text class="annotation-text" text-anchor="middle" x="139.859375" y="20" style="font-family: sans-serif; font-size: 20px; fill: rgb(0, 0, 0); fill-opacity: 1; white-space: pre;">Temperature increase 6hrs sun</text></g></g></g></g></svg>