<svg class="main-svg" xmlns="http://www.w3.org/2000/svg" xmlns:xlink="http://www.w3.org/1999/xlink" width="700" height="500" style="" viewBox="0 0 700 500"><rect x="0" y="0" width="700" height="500" style="fill: rgb(255, 255, 255); fill-opacity: 1;"/><defs id="defs-8d423c"><g class="clips"><clipPath id="clip8d423cxyplot" class="plotclip"><rect width="287.7087707786527" height="398.2365485564304"/></clipPath><clipPath id="clip8d423cx2y2plot" class="plotclip"><rect width="287.70877077865265" height="398.2365485564304"/></clipPath><clipPath class="axesclip" id="clip8d423cx"><rect x="60.76367016622921" y="0" width="287.7087707786527" height="500"/></clipPath><clipPath class="axesclip" id="clip8d423cy"><rect x="0" y="46.88867016622919" width="700" height="398.2365485564304"/></clipPath><clipPath class="axesclip" id="clip8d423cxy"><rect x="60.76367016622921" y="46.88867016622919" width="287.7087707786527" height="398.2365485564304"/></clipPath><clipPath class="axesclip" id="clip8d423cy2"><rect x="0" y="46.88867016622919" width="700" height="398.2365485564304"/></clipPath><clipPath class="axesclip" id="clip8d423cxy2"><rect x="60.76367016622921" y="46.88867016622919" width="287.7087707786527" height="398.2365485564304"/></clipPath><clipPath class="axesclip" id="clip8d423cx2"><rect x="405.7636701662292" y="0" width="287.70877077865265" height="500"/></clipPath><clipPath class="axesclip" id="clip8d423cx2y"><rect x="405.7636701662292" y="46.88867016622919" width="287.70877077865265" height="398.2365485564304"/></clipPath><clipPath class="axesclip" id="clip8d423cx2y2"><rect x="405.7636701662292" y="46.88867016622919" width="287.70877077865265" height="398.2365485564304"/></clipPath></g><g class="gradients"/><g class="patterns"/></defs><g class="bglayer"/><g class="layer-below"><g class="imagelayer"/><g class="shapelayer"/></g><g class="cartesianlayer"><g class="subplot xy"><g class="layer-subplot"><g class="shapelayer"/><g class="imagelayer"/></g><g class="minor-gridlayer"><g class="x"/><g class="y"/></g><g class="gridlayer"><g class="x"><path class="xgrid crisp" transform="translate(63.11367016622921,0)" d="M0,46.88867016622919v398.2365485564304" style="stroke: rgb(0, 0, 0); stroke-opacity: 0.1; stroke-width: 0.5px;"/><path class="xgrid crisp" transform="translate(130.4936701662292,0)" d="M0,46.88867016622919v398.2365485564304" style="stroke: rgb(0, 0, 0); stroke-opacity: 0.1; stroke-width: 0.5px;"/><path class="xgrid crisp" transform="translate(197.88367016622922,0)" d="M0,46.88867016622919v398.2365485564304" style="stroke: rgb(0, 0, 0); stroke-opacity: 0.1; stroke-width: 0.5px;"/><path class="xgrid crisp" transform="translate(265.2636701662292,0)" d="M0,46.88867016622919v398.2365485564304" style="stroke: rgb(0, 0, 0); stroke-opacity: 0.1; stroke-width: 0.5px;"/><path class="xgrid crisp" transform="translate(332.6436701662292,0)" d="M0,46.88867016622919v398.2365485564304" style="stroke: rgb(0, 0, 0); stroke-opacity: 0.1; stroke-width: 0.5px;"/></g><g class="y"><path class="ygrid crisp" transform="translate(0,374.7686701662292)" d="M60.76367016622921,0h287.7087707786527" style="stroke: rgb(0, 0, 0); stroke-opacity: 0.1; stroke-width: 0.5px;"/><path class="ygrid crisp" transform="translate(0,304.4086701662292)" d="M60.76367016622921,0h287.7087707786527" style="stroke: rgb(0, 0, 0); stroke-opacity: 0.1; stroke-width: 0.5px;"/><path class="ygrid crisp" transform="translate(0,234.0486701662292)" d="M60.76367016622921,0h287.7087707786527" style="stroke: rgb(0, 0, 0); stroke-opacity: 0.1; stroke-width: 0.5px;"/><path class="ygrid crisp" transform="translate(0,163.6886701662292)" d="M60.76367016622921,0h287.7087707786527" style="stroke: rgb(0, 0, 0); stroke-opacity: 0.1; stroke-width: 0.5px;"/><path class="ygrid crisp" transform="translate(0,93.32867016622919)" d="M60.76367016622921,0h287.7087707786527" style="stroke: rgb(0, 0, 0); stroke-opacity: 0.1; stroke-width: 0.5px;"/></g></g><g class="zerolinelayer"/><g class="layer-between"><g class="shapelayer"/><g class="imagelayer"/></g><path class="xlines-below"/><path class="ylines-below"/><g class="overlines-below"/><g class="xaxislayer-below"/><g class="yaxislayer-below"/><g class="overaxes-below"/><g class="overplot"><g class="xy" transform="translate(60.76367016622921,46.88867016622919)" clip-path="url(#clip8d423cxyplot)"><g class="scatterlayer mlayer"><g class="trace scatter trace92bb9d" style="stroke-miterlimit: 2;"><g class="fills"><g><path class="js-fill" d="M15.82,398.24L15.82,398.24L15.82,394.01L15.82,398.24L29.3,398.24L29.3,394.01L15.82,394.01L15.82,394.01" style="fill: rgb(0, 154, 250); fill-opacity: 1; stroke-width: 0;"/></g></g><g class="errorbars"/><g class="lines"><path class="js-line" d="M15.82,394.01L15.82,398.24L29.3,398.24L29.3,394.01L15.82,394.01L15.82,394.01" style="vector-effect: none; fill: none; stroke: rgb(0, 0, 0); stroke-opacity: 1; stroke-width: 1px; opacity: 1;"/></g><g class="points"/><g class="text"/></g><g class="trace scatter trace59cc95" style="stroke-miterlimit: 2;"><g class="fills"><g><path class="js-fill" d="M29.3,398.24L29.3,398.24L29.3,351.8L29.3,398.24L42.78,398.24L42.78,351.8L29.3,351.8L29.3,351.8" style="fill: rgb(0, 154, 250); fill-opacity: 1; stroke-width: 0;"/></g></g><g class="errorbars"/><g class="lines"><path class="js-line" d="M29.3,351.8L29.3,398.24L42.78,398.24L42.78,351.8L29.3,351.8L29.3,351.8" style="vector-effect: none; fill: none; stroke: rgb(0, 0, 0); stroke-opacity: 1; stroke-width: 1px; opacity: 1;"/></g><g class="points"/><g class="text"/></g><g class="trace scatter trace92f3c4" style="stroke-miterlimit: 2;"><g class="fills"><g><path class="js-fill" d="M42.78,398.24L42.78,398.24L42.78,254.7L42.78,398.24L56.25,398.24L56.25,254.7L42.78,254.7L42.78,254.7" style="fill: rgb(0, 154, 250); fill-opacity: 1; stroke-width: 0;"/></g></g><g class="errorbars"/><g class="lines"><path class="js-line" d="M42.78,254.7L42.78,398.24L56.25,398.24L56.25,254.7L42.78,254.7L42.78,254.7" style="vector-effect: none; fill: none; stroke: rgb(0, 0, 0); stroke-opacity: 1; stroke-width: 1px; opacity: 1;"/></g><g class="points"/><g class="text"/></g><g class="trace scatter trace28d5e3" style="stroke-miterlimit: 2;"><g class="fills"><g><path class="js-fill" d="M56.25,398.24L56.25,398.24L56.25,133.68L56.25,398.24L69.73,398.24L69.73,133.68L56.25,133.68L56.25,133.68" style="fill: rgb(0, 154, 250); fill-opacity: 1; stroke-width: 0;"/></g></g><g class="errorbars"/><g class="lines"><path class="js-line" d="M56.25,133.68L56.25,398.24L69.73,398.24L69.73,133.68L56.25,133.68L56.25,133.68" style="vector-effect: none; fill: none; stroke: rgb(0, 0, 0); stroke-opacity: 1; stroke-width: 1px; opacity: 1;"/></g><g class="points"/><g class="text"/></g><g class="trace scatter tracea25dce" style="stroke-miterlimit: 2;"><g class="fills"><g><path class="js-fill" d="M69.73,398.24L69.73,398.24L69.73,7.04L69.73,398.24L83.21,398.24L83.21,7.04L69.73,7.04L69.73,7.04" style="fill: rgb(0, 154, 250); fill-opacity: 1; stroke-width: 0;"/></g></g><g class="errorbars"/><g class="lines"><path class="js-line" d="M69.73,7.04L69.73,398.24L83.21,398.24L83.21,7.04L69.73,7.04L69.73,7.04" style="vector-effect: none; fill: none; stroke: rgb(0, 0, 0); stroke-opacity: 1; stroke-width: 1px; opacity: 1;"/></g><g class="points"/><g class="text"/></g><g class="trace scatter tracefefc2d" style="stroke-miterlimit: 2;"><g class="fills"><g><path class="js-fill" d="M83.21,398.24L83.21,398.24L83.21,0L83.21,398.24L96.69,398.24L96.69,0L83.21,0L83.21,0" style="fill: rgb(0, 154, 250); fill-opacity: 1; stroke-width: 0;"/></g></g><g class="errorbars"/><g class="lines"><path class="js-line" d="M83.21,0L83.21,398.24L96.69,398.24L96.69,0L83.21,0L83.21,0" style="vector-effect: none; fill: none; stroke: rgb(0, 0, 0); stroke-opacity: 1; stroke-width: 1px; opacity: 1;"/></g><g class="points"/><g class="text"/></g><g class="trace scatter trace6e6950" style="stroke-miterlimit: 2;"><g class="fills"><g><path class="js-fill" d="M96.69,398.24L96.69,398.24L96.69,40.81L96.69,398.24L110.16,398.24L110.16,40.81L96.69,40.81L96.69,40.81" style="fill: rgb(0, 154, 250); fill-opacity: 1; stroke-width: 0;"/></g></g><g class="errorbars"/><g class="lines"><path class="js-line" d="M96.69,40.81L96.69,398.24L110.16,398.24L110.16,40.81L96.69,40.81L96.69,40.81" style="vector-effect: none; fill: none; stroke: rgb(0, 0, 0); stroke-opacity: 1; stroke-width: 1px; opacity: 1;"/></g><g class="points"/><g class="text"/></g><g class="trace scatter trace5edca5" style="stroke-miterlimit: 2;"><g class="fills"><g><path class="js-fill" d="M110.16,398.24L110.16,398.24L110.16,61.92L110.16,398.24L123.64,398.24L123.64,61.92L110.16,61.92L110.16,61.92" style="fill: rgb(0, 154, 250); fill-opacity: 1; stroke-width: 0;"/></g></g><g class="errorbars"/><g class="lines"><path class="js-line" d="M110.16,61.92L110.16,398.24L123.64,398.24L123.64,61.92L110.16,61.92L110.16,61.92" style="vector-effect: none; fill: none; stroke: rgb(0, 0, 0); stroke-opacity: 1; stroke-width: 1px; opacity: 1;"/></g><g class="points"/><g class="text"/></g><g class="trace scatter trace6bf1ad" style="stroke-miterlimit: 2;"><g class="fills"><g><path class="js-fill" d="M123.64,398.24L123.64,398.24L123.64,118.2L123.64,398.24L137.12,398.24L137.12,118.2L123.64,118.2L123.64,118.2" style="fill: rgb(0, 154, 250); fill-opacity: 1; stroke-width: 0;"/></g></g><g class="errorbars"/><g class="lines"><path class="js-line" d="M123.64,118.2L123.64,398.24L137.12,398.24L137.12,118.2L123.64,118.2L123.64,118.2" style="vector-effect: none; fill: none; stroke: rgb(0, 0, 0); stroke-opacity: 1; stroke-width: 1px; opacity: 1;"/></g><g class="points"/><g class="text"/></g><g class="trace scatter tracea11af7" style="stroke-miterlimit: 2;"><g class="fills"><g><path class="js-fill" d="M137.12,398.24L137.12,398.24L137.12,220.93L137.12,398.24L150.59,398.24L150.59,220.93L137.12,220.93L137.12,220.93" style="fill: rgb(0, 154, 250); fill-opacity: 1; stroke-width: 0;"/></g></g><g class="errorbars"/><g class="lines"><path class="js-line" d="M137.12,220.93L137.12,398.24L150.59,398.24L150.59,220.93L137.12,220.93L137.12,220.93" style="vector-effect: none; fill: none; stroke: rgb(0, 0, 0); stroke-opacity: 1; stroke-width: 1px; opacity: 1;"/></g><g class="points"/><g class="text"/></g><g class="trace scatter trace05508b" style="stroke-miterlimit: 2;"><g class="fills"><g><path class="js-fill" d="M150.59,398.24L150.59,398.24L150.59,246.26L150.59,398.24L164.07,398.24L164.07,246.26L150.59,246.26L150.59,246.26" style="fill: rgb(0, 154, 250); fill-opacity: 1; stroke-width: 0;"/></g></g><g class="errorbars"/><g class="lines"><path class="js-line" d="M150.59,246.26L150.59,398.24L164.07,398.24L164.07,246.26L150.59,246.26L150.59,246.26" style="vector-effect: none; fill: none; stroke: rgb(0, 0, 0); stroke-opacity: 1; stroke-width: 1px; opacity: 1;"/></g><g class="points"/><g class="text"/></g><g class="trace scatter tracec1fed9" style="stroke-miterlimit: 2;"><g class="fills"><g><path class="js-fill" d="M164.07,398.24L164.07,398.24L164.07,323.66L164.07,398.24L177.55,398.24L177.55,323.66L164.07,323.66L164.07,323.66" style="fill: rgb(0, 154, 250); fill-opacity: 1; stroke-width: 0;"/></g></g><g class="errorbars"/><g class="lines"><path class="js-line" d="M164.07,323.66L164.07,398.24L177.55,398.24L177.55,323.66L164.07,323.66L164.07,323.66" style="vector-effect: none; fill: none; stroke: rgb(0, 0, 0); stroke-opacity: 1; stroke-width: 1px; opacity: 1;"/></g><g class="points"/><g class="text"/></g><g class="trace scatter trace14df16" style="stroke-miterlimit: 2;"><g class="fills"><g><path class="js-fill" d="M177.55,398.24L177.55,398.24L177.55,315.21L177.55,398.24L191.02,398.24L191.02,315.21L177.55,315.21L177.55,315.21" style="fill: rgb(0, 154, 250); fill-opacity: 1; stroke-width: 0;"/></g></g><g class="errorbars"/><g class="lines"><path class="js-line" d="M177.55,315.21L177.55,398.24L191.02,398.24L191.02,315.21L177.55,315.21L177.55,315.21" style="vector-effect: none; fill: none; stroke: rgb(0, 0, 0); stroke-opacity: 1; stroke-width: 1px; opacity: 1;"/></g><g class="points"/><g class="text"/></g><g class="trace scatter trace083c23" style="stroke-miterlimit: 2;"><g class="fills"><g><path class="js-fill" d="M191.02,398.24L191.02,398.24L191.02,347.58L191.02,398.24L204.5,398.24L204.5,347.58L191.02,347.58L191.02,347.58" style="fill: rgb(0, 154, 250); fill-opacity: 1; stroke-width: 0;"/></g></g><g class="errorbars"/><g class="lines"><path class="js-line" d="M191.02,347.58L191.02,398.24L204.5,398.24L204.5,347.58L191.02,347.58L191.02,347.58" style="vector-effect: none; fill: none; stroke: rgb(0, 0, 0); stroke-opacity: 1; stroke-width: 1px; opacity: 1;"/></g><g class="points"/><g class="text"/></g><g class="trace scatter trace42d68d" style="stroke-miterlimit: 2;"><g class="fills"><g><path class="js-fill" d="M204.5,398.24L204.5,398.24L204.5,371.5L204.5,398.24L217.98,398.24L217.98,371.5L204.5,371.5L204.5,371.5" style="fill: rgb(0, 154, 250); fill-opacity: 1; stroke-width: 0;"/></g></g><g class="errorbars"/><g class="lines"><path class="js-line" d="M204.5,371.5L204.5,398.24L217.98,398.24L217.98,371.5L204.5,371.5L204.5,371.5" style="vector-effect: none; fill: none; stroke: rgb(0, 0, 0); stroke-opacity: 1; stroke-width: 1px; opacity: 1;"/></g><g class="points"/><g class="text"/></g><g class="trace scatter tracea63d76" style="stroke-miterlimit: 2;"><g class="fills"><g><path class="js-fill" d="M217.98,398.24L217.98,398.24L217.98,382.76L217.98,398.24L231.45,398.24L231.45,382.76L217.98,382.76L217.98,382.76" style="fill: rgb(0, 154, 250); fill-opacity: 1; stroke-width: 0;"/></g></g><g class="errorbars"/><g class="lines"><path class="js-line" d="M217.98,382.76L217.98,398.24L231.45,398.24L231.45,382.76L217.98,382.76L217.98,382.76" style="vector-effect: none; fill: none; stroke: rgb(0, 0, 0); stroke-opacity: 1; stroke-width: 1px; opacity: 1;"/></g><g class="points"/><g class="text"/></g><g class="trace scatter trace2fd373" style="stroke-miterlimit: 2;"><g class="fills"><g><path class="js-fill" d="M231.45,398.24L231.45,398.24L231.45,386.98L231.45,398.24L244.93,398.24L244.93,386.98L231.45,386.98L231.45,386.98" style="fill: rgb(0, 154, 250); fill-opacity: 1; stroke-width: 0;"/></g></g><g class="errorbars"/><g class="lines"><path class="js-line" d="M231.45,386.98L231.45,398.24L244.93,398.24L244.93,386.98L231.45,386.98L231.45,386.98" style="vector-effect: none; fill: none; stroke: rgb(0, 0, 0); stroke-opacity: 1; stroke-width: 1px; opacity: 1;"/></g><g class="points"/><g class="text"/></g><g class="trace scatter tracee912b7" style="stroke-miterlimit: 2;"><g class="fills"><g><path class="js-fill" d="M244.93,398.24L244.93,398.24L244.93,398.24L258.41,398.24L244.93,398.24" style="fill: rgb(0, 154, 250); fill-opacity: 1; stroke-width: 0;"/></g></g><g class="errorbars"/><g class="lines"><path class="js-line" d="M244.93,398.24L258.41,398.24L244.93,398.24" style="vector-effect: none; fill: none; stroke: rgb(0, 0, 0); stroke-opacity: 1; stroke-width: 1px; opacity: 1;"/></g><g class="points"/><g class="text"/></g><g class="trace scatter tracec1fbc9" style="stroke-miterlimit: 2;"><g class="fills"><g><path class="js-fill" d="M258.41,398.24L258.41,398.24L258.41,396.83L258.41,398.24L271.88,398.24L271.88,396.83L258.41,396.83L258.41,396.83" style="fill: rgb(0, 154, 250); fill-opacity: 1; stroke-width: 0;"/></g></g><g class="errorbars"/><g class="lines"><path class="js-line" d="M258.41,396.83L258.41,398.24L271.88,398.24L271.88,396.83L258.41,396.83L258.41,396.83" style="vector-effect: none; fill: none; stroke: rgb(0, 0, 0); stroke-opacity: 1; stroke-width: 1px; opacity: 1;"/></g><g class="points"/><g class="text"/></g><g class="trace scatter trace7b3230" style="stroke-miterlimit: 2; opacity: 1;"><g class="fills"/><g class="errorbars"/><g class="lines"/><g class="points"><path class="point" transform="translate(22.56,394.01)" d="M3,0A3,3 0 1,1 0,-3A3,3 0 0,1 3,0Z" style="opacity: 1; stroke-width: 1px; fill: rgb(0, 154, 250); fill-opacity: 0; stroke: rgb(0, 0, 0); stroke-opacity: 0;"/><path class="point" transform="translate(36.04,351.8)" d="M3,0A3,3 0 1,1 0,-3A3,3 0 0,1 3,0Z" style="opacity: 1; stroke-width: 1px; fill: rgb(0, 154, 250); fill-opacity: 0; stroke: rgb(0, 0, 0); stroke-opacity: 0;"/><path class="point" transform="translate(49.52,254.7)" d="M3,0A3,3 0 1,1 0,-3A3,3 0 0,1 3,0Z" style="opacity: 1; stroke-width: 1px; fill: rgb(0, 154, 250); fill-opacity: 0; stroke: rgb(0, 0, 0); stroke-opacity: 0;"/><path class="point" transform="translate(62.99,133.68)" d="M3,0A3,3 0 1,1 0,-3A3,3 0 0,1 3,0Z" style="opacity: 1; stroke-width: 1px; fill: rgb(0, 154, 250); fill-opacity: 0; stroke: rgb(0, 0, 0); stroke-opacity: 0;"/><path class="point" transform="translate(76.47,7.04)" d="M3,0A3,3 0 1,1 0,-3A3,3 0 0,1 3,0Z" style="opacity: 1; stroke-width: 1px; fill: rgb(0, 154, 250); fill-opacity: 0; stroke: rgb(0, 0, 0); stroke-opacity: 0;"/><path class="point" transform="translate(89.95,0)" d="M3,0A3,3 0 1,1 0,-3A3,3 0 0,1 3,0Z" style="opacity: 1; stroke-width: 1px; fill: rgb(0, 154, 250); fill-opacity: 0; stroke: rgb(0, 0, 0); stroke-opacity: 0;"/><path class="point" transform="translate(103.42,40.81)" d="M3,0A3,3 0 1,1 0,-3A3,3 0 0,1 3,0Z" style="opacity: 1; stroke-width: 1px; fill: rgb(0, 154, 250); fill-opacity: 0; stroke: rgb(0, 0, 0); stroke-opacity: 0;"/><path class="point" transform="translate(116.9,61.92)" d="M3,0A3,3 0 1,1 0,-3A3,3 0 0,1 3,0Z" style="opacity: 1; stroke-width: 1px; fill: rgb(0, 154, 250); fill-opacity: 0; stroke: rgb(0, 0, 0); stroke-opacity: 0;"/><path class="point" transform="translate(130.38,118.2)" d="M3,0A3,3 0 1,1 0,-3A3,3 0 0,1 3,0Z" style="opacity: 1; stroke-width: 1px; fill: rgb(0, 154, 250); fill-opacity: 0; stroke: rgb(0, 0, 0); stroke-opacity: 0;"/><path class="point" transform="translate(143.85,220.93)" d="M3,0A3,3 0 1,1 0,-3A3,3 0 0,1 3,0Z" style="opacity: 1; stroke-width: 1px; fill: rgb(0, 154, 250); fill-opacity: 0; stroke: rgb(0, 0, 0); stroke-opacity: 0;"/><path class="point" transform="translate(157.33,246.26)" d="M3,0A3,3 0 1,1 0,-3A3,3 0 0,1 3,0Z" style="opacity: 1; stroke-width: 1px; fill: rgb(0, 154, 250); fill-opacity: 0; stroke: rgb(0, 0, 0); stroke-opacity: 0;"/><path class="point" transform="translate(170.81,323.66)" d="M3,0A3,3 0 1,1 0,-3A3,3 0 0,1 3,0Z" style="opacity: 1; stroke-width: 1px; fill: rgb(0, 154, 250); fill-opacity: 0; stroke: rgb(0, 0, 0); stroke-opacity: 0;"/><path class="point" transform="translate(184.28,315.21)" d="M3,0A3,3 0 1,1 0,-3A3,3 0 0,1 3,0Z" style="opacity: 1; stroke-width: 1px; fill: rgb(0, 154, 250); fill-opacity: 0; stroke: rgb(0, 0, 0); stroke-opacity: 0;"/><path class="point" transform="translate(197.76,347.58)" d="M3,0A3,3 0 1,1 0,-3A3,3 0 0,1 3,0Z" style="opacity: 1; stroke-width: 1px; fill: rgb(0, 154, 250); fill-opacity: 0; stroke: rgb(0, 0, 0); stroke-opacity: 0;"/><path class="point" transform="translate(211.24,371.5)" d="M3,0A3,3 0 1,1 0,-3A3,3 0 0,1 3,0Z" style="opacity: 1; stroke-width: 1px; fill: rgb(0, 154, 250); fill-opacity: 0; stroke: rgb(0, 0, 0); stroke-opacity: 0;"/><path class="point" transform="translate(224.72,382.76)" d="M3,0A3,3 0 1,1 0,-3A3,3 0 0,1 3,0Z" style="opacity: 1; stroke-width: 1px; fill: rgb(0, 154, 250); fill-opacity: 0; stroke: rgb(0, 0, 0); stroke-opacity: 0;"/><path class="point" transform="translate(238.19,386.98)" d="M3,0A3,3 0 1,1 0,-3A3,3 0 0,1 3,0Z" style="opacity: 1; stroke-width: 1px; fill: rgb(0, 154, 250); fill-opacity: 0; stroke: rgb(0, 0, 0); stroke-opacity: 0;"/><path class="point" transform="translate(251.67,398.24)" d="M3,0A3,3 0 1,1 0,-3A3,3 0 0,1 3,0Z" style="opacity: 1; stroke-width: 1px; fill: rgb(0, 154, 250); fill-opacity: 0; stroke: rgb(0, 0, 0); stroke-opacity: 0;"/><path class="point" transform="translate(265.15,396.83)" d="M3,0A3,3 0 1,1 0,-3A3,3 0 0,1 3,0Z" style="opacity: 1; stroke-width: 1px; fill: rgb(0, 154, 250); fill-opacity: 0; stroke: rgb(0, 0, 0); stroke-opacity: 0;"/></g><g class="text"/></g></g></g></g><path class="xlines-above crisp" d="M59.76367016622921,445.6252187226596H348.4724409448819" style="fill: none; stroke-width: 1px; stroke: rgb(0, 0, 0); stroke-opacity: 1;"/><path class="ylines-above crisp" d="M60.26367016622921,46.88867016622919V445.1252187226596" style="fill: none; stroke-width: 1px; stroke: rgb(0, 0, 0); stroke-opacity: 1;"/><g class="overlines-above"/><g class="xaxislayer-above"><path class="xtick ticks crisp" d="M0,445.1252187226596v-5" transform="translate(63.11367016622921,0)" style="stroke: rgb(0, 0, 0); stroke-opacity: 1; stroke-width: 1px;"/><path class="xtick ticks crisp" d="M0,445.1252187226596v-5" transform="translate(130.4936701662292,0)" style="stroke: rgb(0, 0, 0); stroke-opacity: 1; stroke-width: 1px;"/><path class="xtick ticks crisp" d="M0,445.1252187226596v-5" transform="translate(197.88367016622922,0)" style="stroke: rgb(0, 0, 0); stroke-opacity: 1; stroke-width: 1px;"/><path class="xtick ticks crisp" d="M0,445.1252187226596v-5" transform="translate(265.2636701662292,0)" style="stroke: rgb(0, 0, 0); stroke-opacity: 1; stroke-width: 1px;"/><path class="xtick ticks crisp" d="M0,445.1252187226596v-5" transform="translate(332.6436701662292,0)" style="stroke: rgb(0, 0, 0); stroke-opacity: 1; stroke-width: 1px;"/><g class="xtick"><text text-anchor="middle" x="0" y="459.3252187226596" transform="translate(63.11367016622921,0)" style="font-family: sans-serif; font-size: 11px; fill: rgb(0, 0, 0); fill-opacity: 1; white-space: pre; opacity: 1;">0.00</text></g><g class="xtick"><text text-anchor="middle" x="0" y="459.3252187226596" style="font-family: sans-serif; font-size: 11px; fill: rgb(0, 0, 0); fill-opacity: 1; white-space: pre; opacity: 1;" transform="translate(130.4936701662292,0)">0.25</text></g><g class="xtick"><text text-anchor="middle" x="0" y="459.3252187226596" style="font-family: sans-serif; font-size: 11px; fill: rgb(0, 0, 0); fill-opacity: 1; white-space: pre; opacity: 1;" transform="translate(197.88367016622922,0)">0.50</text></g><g class="xtick"><text text-anchor="middle" x="0" y="459.3252187226596" style="font-family: sans-serif; font-size: 11px; fill: rgb(0, 0, 0); fill-opacity: 1; white-space: pre; opacity: 1;" transform="translate(265.2636701662292,0)">0.75</text></g><g class="xtick"><text text-anchor="middle" x="0" y="459.3252187226596" style="font-family: sans-serif; font-size: 11px; fill: rgb(0, 0, 0); fill-opacity: 1; white-space: pre; opacity: 1;" transform="translate(332.6436701662292,0)">1.00</text></g></g><g class="yaxislayer-above"><path class="ytick ticks crisp" d="M60.76367016622921,0h5" transform="translate(0,374.7686701662292)" style="stroke: rgb(0, 0, 0); stroke-opacity: 1; stroke-width: 1px;"/><path class="ytick ticks crisp" d="M60.76367016622921,0h5" transform="translate(0,304.4086701662292)" style="stroke: rgb(0, 0, 0); stroke-opacity: 1; stroke-width: 1px;"/><path class="ytick ticks crisp" d="M60.76367016622921,0h5" transform="translate(0,234.0486701662292)" style="stroke: rgb(0, 0, 0); stroke-opacity: 1; stroke-width: 1px;"/><path class="ytick ticks crisp" d="M60.76367016622921,0h5" transform="translate(0,163.6886701662292)" style="stroke: rgb(0, 0, 0); stroke-opacity: 1; stroke-width: 1px;"/><path class="ytick ticks crisp" d="M60.76367016622921,0h5" transform="translate(0,93.32867016622919)" style="stroke: rgb(0, 0, 0); stroke-opacity: 1; stroke-width: 1px;"/><g class="ytick"><text text-anchor="end" x="57.56367016622921" y="3.8499999999999996" transform="translate(0,445.1286701662292)" style="font-family: sans-serif; font-size: 11px; fill: rgb(0, 0, 0); fill-opacity: 1; white-space: pre; opacity: 1;">0</text></g><g class="ytick"><text text-anchor="end" x="57.56367016622921" y="3.8499999999999996" style="font-family: sans-serif; font-size: 11px; fill: rgb(0, 0, 0); fill-opacity: 1; white-space: pre; opacity: 1;" transform="translate(0,374.7686701662292)">50</text></g><g class="ytick"><text text-anchor="end" x="57.56367016622921" y="3.8499999999999996" style="font-family: sans-serif; font-size: 11px; fill: rgb(0, 0, 0); fill-opacity: 1; white-space: pre; opacity: 1;" transform="translate(0,304.4086701662292)">100</text></g><g class="ytick"><text text-anchor="end" x="57.56367016622921" y="3.8499999999999996" style="font-family: sans-serif; font-size: 11px; fill: rgb(0, 0, 0); fill-opacity: 1; white-space: pre; opacity: 1;" transform="translate(0,234.0486701662292)">150</text></g><g class="ytick"><text text-anchor="end" x="57.56367016622921" y="3.8499999999999996" style="font-family: sans-serif; font-size: 11px; fill: rgb(0, 0, 0); fill-opacity: 1; white-space: pre; opacity: 1;" transform="translate(0,163.6886701662292)">200</text></g><g class="ytick"><text text-anchor="end" x="57.56367016622921" y="3.8499999999999996" style="font-family: sans-serif; font-size: 11px; fill: rgb(0, 0, 0); fill-opacity: 1; white-space: pre; opacity: 1;" transform="translate(0,93.32867016622919)">250</text></g></g><g class="overaxes-above"/></g><g class="subplot x2y2"><g class="layer-subplot"><g class="shapelayer"/><g class="imagelayer"/></g><g class="minor-gridlayer"><g class="x2"/><g class="y2"/></g><g class="gridlayer"><g class="x2"><path class="x2grid crisp" transform="translate(413.9036701662292,0)" d="M0,46.88867016622919v398.2365485564304" style="stroke: rgb(0, 0, 0); stroke-opacity: 0.1; stroke-width: 0.5px;"/><path class="x2grid crisp" transform="translate(481.7636701662292,0)" d="M0,46.88867016622919v398.2365485564304" style="stroke: rgb(0, 0, 0); stroke-opacity: 0.1; stroke-width: 0.5px;"/><path class="x2grid crisp" transform="translate(549.6136701662292,0)" d="M0,46.88867016622919v398.2365485564304" style="stroke: rgb(0, 0, 0); stroke-opacity: 0.1; stroke-width: 0.5px;"/><path class="x2grid crisp" transform="translate(617.4736701662292,0)" d="M0,46.88867016622919v398.2365485564304" style="stroke: rgb(0, 0, 0); stroke-opacity: 0.1; stroke-width: 0.5px;"/><path class="x2grid crisp" transform="translate(685.3336701662292,0)" d="M0,46.88867016622919v398.2365485564304" style="stroke: rgb(0, 0, 0); stroke-opacity: 0.1; stroke-width: 0.5px;"/></g><g class="y2"><path class="y2grid crisp" transform="translate(0,382.9686701662292)" d="M405.7636701662292,0h287.70877077865265" style="stroke: rgb(0, 0, 0); stroke-opacity: 0.1; stroke-width: 0.5px;"/><path class="y2grid crisp" transform="translate(0,299.7586701662292)" d="M405.7636701662292,0h287.70877077865265" style="stroke: rgb(0, 0, 0); stroke-opacity: 0.1; stroke-width: 0.5px;"/><path class="y2grid crisp" transform="translate(0,216.5486701662292)" d="M405.7636701662292,0h287.70877077865265" style="stroke: rgb(0, 0, 0); stroke-opacity: 0.1; stroke-width: 0.5px;"/><path class="y2grid crisp" transform="translate(0,133.3286701662292)" d="M405.7636701662292,0h287.70877077865265" style="stroke: rgb(0, 0, 0); stroke-opacity: 0.1; stroke-width: 0.5px;"/><path class="y2grid crisp" transform="translate(0,50.11867016622919)" d="M405.7636701662292,0h287.70877077865265" style="stroke: rgb(0, 0, 0); stroke-opacity: 0.1; stroke-width: 0.5px;"/></g></g><g class="zerolinelayer"/><g class="layer-between"><g class="shapelayer"/><g class="imagelayer"/></g><path class="xlines-below"/><path class="ylines-below"/><g class="overlines-below"/><g class="xaxislayer-below"/><g class="yaxislayer-below"/><g class="overaxes-below"/><g class="overplot"><g class="x2y2" transform="translate(405.7636701662292,46.88867016622919)" clip-path="url(#clip8d423cx2y2plot)"><g class="scatterlayer mlayer"><g class="trace scatter trace34e9c1" style="stroke-miterlimit: 2; opacity: 1;"><g class="fills"/><g class="errorbars"/><g class="lines"><path class="js-line" d="M8.14,386.97L10.86,362.51L13.57,355.95L16.29,350.39L19,346.86L29.86,332.85L32.57,331.09L35.29,328.04L38,326.34L40.71,324.69L43.43,321.92L54.28,314.09L57,312.83L67.86,306.73L70.57,305.64L73.28,303.41L76,302.21L84.14,298.14L86.86,295.9L103.14,288.18L105.86,286.08L114,281.86L116.71,279.99L124.85,275.2L127.57,274.12L143.85,264.07L146.57,262.54L154.71,257.84L157.43,255.82L162.85,253.08L165.57,250.85L173.71,246.9L176.43,245.14L184.57,240.99L187.28,238.66L190,235.97L192.71,234.47L195.42,232.07L198.14,230.68L206.28,225.58L209,223.29L214.42,218.04L217.14,216.54L219.85,214.35L222.57,211.02L225.28,208.39L228,204.07L230.71,199.72L233.42,197.56L247,181.54L249.71,177.01L255.14,167.38L257.85,162.31L263.28,144.77L265.99,138.38L271.42,121.74L274.14,109.12L276.85,87.14L279.57,11.27" style="vector-effect: none; fill: none; stroke: rgb(0, 154, 250); stroke-opacity: 1; stroke-width: 1px; opacity: 1;"/></g><g class="points"/><g class="text"/></g></g></g></g><path class="xlines-above crisp" d="M404.7636701662292,445.6252187226596H693.4724409448818" style="fill: none; stroke-width: 1px; stroke: rgb(0, 0, 0); stroke-opacity: 1;"/><path class="ylines-above crisp" d="M405.2636701662292,46.88867016622919V445.1252187226596" style="fill: none; stroke-width: 1px; stroke: rgb(0, 0, 0); stroke-opacity: 1;"/><g class="overlines-above"/><g class="xaxislayer-above"><path class="x2tick ticks crisp" d="M0,445.1252187226596v-5" transform="translate(413.9036701662292,0)" style="stroke: rgb(0, 0, 0); stroke-opacity: 1; stroke-width: 1px;"/><path class="x2tick ticks crisp" d="M0,445.1252187226596v-5" transform="translate(481.7636701662292,0)" style="stroke: rgb(0, 0, 0); stroke-opacity: 1; stroke-width: 1px;"/><path class="x2tick ticks crisp" d="M0,445.1252187226596v-5" transform="translate(549.6136701662292,0)" style="stroke: rgb(0, 0, 0); stroke-opacity: 1; stroke-width: 1px;"/><path class="x2tick ticks crisp" d="M0,445.1252187226596v-5" transform="translate(617.4736701662292,0)" style="stroke: rgb(0, 0, 0); stroke-opacity: 1; stroke-width: 1px;"/><path class="x2tick ticks crisp" d="M0,445.1252187226596v-5" transform="translate(685.3336701662292,0)" style="stroke: rgb(0, 0, 0); stroke-opacity: 1; stroke-width: 1px;"/><g class="x2tick"><text text-anchor="middle" x="0" y="459.3252187226596" transform="translate(413.9036701662292,0)" style="font-family: sans-serif; font-size: 11px; fill: rgb(0, 0, 0); fill-opacity: 1; white-space: pre; opacity: 1;">0.00</text></g><g class="x2tick"><text text-anchor="middle" x="0" y="459.3252187226596" style="font-family: sans-serif; font-size: 11px; fill: rgb(0, 0, 0); fill-opacity: 1; white-space: pre; opacity: 1;" transform="translate(481.7636701662292,0)">0.25</text></g><g class="x2tick"><text text-anchor="middle" x="0" y="459.3252187226596" style="font-family: sans-serif; font-size: 11px; fill: rgb(0, 0, 0); fill-opacity: 1; white-space: pre; opacity: 1;" transform="translate(549.6136701662292,0)">0.50</text></g><g class="x2tick"><text text-anchor="middle" x="0" y="459.3252187226596" style="font-family: sans-serif; font-size: 11px; fill: rgb(0, 0, 0); fill-opacity: 1; white-space: pre; opacity: 1;" transform="translate(617.4736701662292,0)">0.75</text></g><g class="x2tick"><text text-anchor="middle" x="0" y="459.3252187226596" style="font-family: sans-serif; font-size: 11px; fill: rgb(0, 0, 0); fill-opacity: 1; white-space: pre; opacity: 1;" transform="translate(685.3336701662292,0)">1.00</text></g></g><g class="yaxislayer-above"><path class="y2tick ticks crisp" d="M405.7636701662292,0h5" transform="translate(0,382.9686701662292)" style="stroke: rgb(0, 0, 0); stroke-opacity: 1; stroke-width: 1px;"/><path class="y2tick ticks crisp" d="M405.7636701662292,0h5" transform="translate(0,299.7586701662292)" style="stroke: rgb(0, 0, 0); stroke-opacity: 1; stroke-width: 1px;"/><path class="y2tick ticks crisp" d="M405.7636701662292,0h5" transform="translate(0,216.5486701662292)" style="stroke: rgb(0, 0, 0); stroke-opacity: 1; stroke-width: 1px;"/><path class="y2tick ticks crisp" d="M405.7636701662292,0h5" transform="translate(0,133.3286701662292)" style="stroke: rgb(0, 0, 0); stroke-opacity: 1; stroke-width: 1px;"/><path class="y2tick ticks crisp" d="M405.7636701662292,0h5" transform="translate(0,50.11867016622919)" style="stroke: rgb(0, 0, 0); stroke-opacity: 1; stroke-width: 1px;"/><g class="y2tick"><text text-anchor="end" x="402.5636701662292" y="3.8499999999999996" transform="translate(0,382.9686701662292)" style="font-family: sans-serif; font-size: 11px; fill: rgb(0, 0, 0); fill-opacity: 1; white-space: pre; opacity: 1;">0.2</text></g><g class="y2tick"><text text-anchor="end" x="402.5636701662292" y="3.8499999999999996" style="font-family: sans-serif; font-size: 11px; fill: rgb(0, 0, 0); fill-opacity: 1; white-space: pre; opacity: 1;" transform="translate(0,299.7586701662292)">0.4</text></g><g class="y2tick"><text text-anchor="end" x="402.5636701662292" y="3.8499999999999996" style="font-family: sans-serif; font-size: 11px; fill: rgb(0, 0, 0); fill-opacity: 1; white-space: pre; opacity: 1;" transform="translate(0,216.5486701662292)">0.6</text></g><g class="y2tick"><text text-anchor="end" x="402.5636701662292" y="3.8499999999999996" style="font-family: sans-serif; font-size: 11px; fill: rgb(0, 0, 0); fill-opacity: 1; white-space: pre; opacity: 1;" transform="translate(0,133.3286701662292)">0.8</text></g><g class="y2tick"><text text-anchor="end" x="402.5636701662292" y="3.8499999999999996" style="font-family: sans-serif; font-size: 11px; fill: rgb(0, 0, 0); fill-opacity: 1; white-space: pre; opacity: 1;" transform="translate(0,50.11867016622919)">1.0</text></g></g><g class="overaxes-above"/></g></g><g class="polarlayer"/><g class="smithlayer"/><g class="ternarylayer"/><g class="geolayer"/><g class="funnelarealayer"/><g class="pielayer"/><g class="iciclelayer"/><g class="treemaplayer"/><g class="sunburstlayer"/><g class="glimages"/><defs id="topdefs-8d423c"><g class="clips"/><clipPath id="legend8d423c"><rect width="57" height="48" x="1" y="1"/></clipPath></defs><g class="layer-above"><g class="imagelayer"/><g class="shapelayer"/></g><g class="infolayer"><g class="legend" pointer-events="all" transform="translate(639,20)"><rect class="bg" shape-rendering="crispEdges" style="stroke: rgb(0, 0, 0); stroke-opacity: 1; fill: rgb(255, 255, 255); fill-opacity: 1; stroke-width: 1px;" width="58" height="49" x="0.5" y="0.5"/><g class="scrollbox" transform="" clip-path="url(#legend8d423c)"><g class="groups"><g class="traces" transform="translate(1,15.5)" style="opacity: 1;"><text class="legendtext" text-anchor="start" x="40" y="4.29" style="font-family: sans-serif; font-size: 11px; fill: rgb(0, 0, 0); fill-opacity: 1; white-space: pre;">y1</text><g class="layers"><g class="legendfill"><path class="js-fill" d="M5,-2h30v6h-30z" style="stroke-width: 0; fill: rgb(0, 154, 250); fill-opacity: 1;"/></g><g class="legendlines"><path class="js-line" d="M5,-2h30" style="fill: none; stroke: rgb(0, 0, 0); stroke-opacity: 1; stroke-width: 1px;"/></g><g class="legendsymbols"><g class="legendpoints"/></g></g><rect class="legendtoggle" x="0" y="-9.5" width="51.625" height="19" style="fill: rgb(0, 0, 0); fill-opacity: 0;"/></g><g class="traces" transform="translate(1,34.5)" style="opacity: 1;"><text class="legendtext" text-anchor="start" x="40" y="4.29" style="font-family: sans-serif; font-size: 11px; fill: rgb(0, 0, 0); fill-opacity: 1; white-space: pre;">y1</text><g class="layers" style="opacity: 1;"><g class="legendfill"/><g class="legendlines"><path class="js-line" d="M5,0h30" style="fill: none; stroke: rgb(0, 154, 250); stroke-opacity: 1; stroke-width: 1px;"/></g><g class="legendsymbols"><g class="legendpoints"/></g></g><rect class="legendtoggle" x="0" y="-9.5" width="51.625" height="19" style="fill: rgb(0, 0, 0); fill-opacity: 0;"/></g></g></g><rect class="scrollbar" rx="20" ry="3" width="0" height="0" style="fill: rgb(128, 139, 164); fill-opacity: 1;" x="0" y="0"/></g><g class="g-gtitle"/><g class="g-xtitle" transform="translate(0,-9986.328125)"/><g class="g-x2title" transform="translate(0,-9986.328125)"/><g class="g-ytitle"/><g class="g-y2title"><text class="y2title" transform="rotate(-90,367.515625,246.0069444444444)" x="367.515625" y="246.0069444444444" text-anchor="middle" style="opacity: 1; font-family: sans-serif; font-size: 15px; fill: rgb(0, 0, 0); fill-opacity: 1; white-space: pre;">K</text></g><g class="annotation" data-index="0" style="opacity: 1;"><g class="annotation-text-g" transform="rotate(0,204.61805555555557,33.00000000000001)"><g class="cursor-pointer" transform="translate(65,20)"><rect class="bg" x="0.5" y="0.5" width="279" height="25" style="stroke-width: 1px; stroke: rgb(0, 0, 0); stroke-opacity: 0; fill: rgb(0, 0, 0); fill-opacity: 0;"/><text class="annotation-text" text-anchor="middle" x="139.859375" y="20" style="font-family: sans-serif; font-size: 20px; fill: rgb(0, 0, 0); fill-opacity: 1; white-space: pre;">Temperature increase 6hrs sun</text></g></g></g></g></svg>