<?xml version="1.0" encoding="utf-8"?>
<svg xmlns="http://www.w3.org/2000/svg" xmlns:xlink="http://www.w3.org/1999/xlink" width="600" height="350" viewBox="0 0 2400 1400">
<defs>
  <clipPath id="clip7800">
    <rect x="0" y="0" width="2400" height="1400"/>
  </clipPath>
</defs>
<polygon clip-path="url(#clip7800)" points="
0,1400 2400,1400 2400,0 0,0 
  " fill="#ffffff" fill-rule="evenodd" fill-opacity="1"/>
<defs>
  <clipPath id="clip7801">
    <rect x="480" y="0" width="1681" height="1400"/>
  </clipPath>
</defs>
<polygon clip-path="url(#clip7800)" points="
183.074,1233.76 2321.26,1233.76 2321.26,47.2441 183.074,47.2441 
  " fill="#ffffff" fill-rule="evenodd" fill-opacity="1"/>
<defs>
  <clipPath id="clip7802">
    <rect x="183" y="47" width="2139" height="1188"/>
  </clipPath>
</defs>
<polyline clip-path="url(#clip7800)" style="stroke:#000000; stroke-width:4; stroke-opacity:1; fill:none" points="
  183.074,1233.76 2321.26,1233.76 
  "/>
<polyline clip-path="url(#clip7800)" style="stroke:#000000; stroke-width:4; stroke-opacity:1; fill:none" points="
  183.074,1233.76 183.074,47.2441 
  "/>
<polyline clip-path="url(#clip7800)" style="stroke:#000000; stroke-width:4; stroke-opacity:1; fill:none" points="
  243.589,1233.76 243.589,1215.96 
  "/>
<polyline clip-path="url(#clip7800)" style="stroke:#000000; stroke-width:4; stroke-opacity:1; fill:none" points="
  747.878,1233.76 747.878,1215.96 
  "/>
<polyline clip-path="url(#clip7800)" style="stroke:#000000; stroke-width:4; stroke-opacity:1; fill:none" points="
  1252.17,1233.76 1252.17,1215.96 
  "/>
<polyline clip-path="url(#clip7800)" style="stroke:#000000; stroke-width:4; stroke-opacity:1; fill:none" points="
  1756.46,1233.76 1756.46,1215.96 
  "/>
<polyline clip-path="url(#clip7800)" style="stroke:#000000; stroke-width:4; stroke-opacity:1; fill:none" points="
  2260.75,1233.76 2260.75,1215.96 
  "/>
<polyline clip-path="url(#clip7800)" style="stroke:#000000; stroke-width:4; stroke-opacity:1; fill:none" points="
  183.074,1162.08 215.147,1162.08 
  "/>
<polyline clip-path="url(#clip7800)" style="stroke:#000000; stroke-width:4; stroke-opacity:1; fill:none" points="
  183.074,810.793 215.147,810.793 
  "/>
<polyline clip-path="url(#clip7800)" style="stroke:#000000; stroke-width:4; stroke-opacity:1; fill:none" points="
  183.074,459.502 215.147,459.502 
  "/>
<polyline clip-path="url(#clip7800)" style="stroke:#000000; stroke-width:4; stroke-opacity:1; fill:none" points="
  183.074,108.211 215.147,108.211 
  "/>
<g clip-path="url(#clip7800)">
<text style="fill:#000000; fill-opacity:1; font-family:Times New Roman,TimesNewRoman,Times,Baskerville,Georgia,serif; font-size:118px; text-anchor:start;" transform="rotate(0, 86.3658, 1387.53)" x="86.3658" y="1387.53">10</text>
</g>
<g clip-path="url(#clip7800)">
<text style="fill:#000000; fill-opacity:1; font-family:Times New Roman,TimesNewRoman,Times,Baskerville,Georgia,serif; font-size:95px; text-anchor:start;" transform="rotate(0, 203.828, 1325.85)" x="203.828" y="1325.85">-</text>
</g>
<g clip-path="url(#clip7800)">
<text style="fill:#000000; fill-opacity:1; font-family:Times New Roman,TimesNewRoman,Times,Baskerville,Georgia,serif; font-size:95px; text-anchor:start;" transform="rotate(0, 257.655, 1325.85)" x="257.655" y="1325.85">1.0 </text>
</g>
<g clip-path="url(#clip7800)">
<text style="fill:#000000; fill-opacity:1; font-family:Times New Roman,TimesNewRoman,Times,Baskerville,Georgia,serif; font-size:118px; text-anchor:start;" transform="rotate(0, 590.655, 1387.53)" x="590.655" y="1387.53">10</text>
</g>
<g clip-path="url(#clip7800)">
<text style="fill:#000000; fill-opacity:1; font-family:Times New Roman,TimesNewRoman,Times,Baskerville,Georgia,serif; font-size:95px; text-anchor:start;" transform="rotate(0, 708.117, 1325.85)" x="708.117" y="1325.85">-</text>
</g>
<g clip-path="url(#clip7800)">
<text style="fill:#000000; fill-opacity:1; font-family:Times New Roman,TimesNewRoman,Times,Baskerville,Georgia,serif; font-size:95px; text-anchor:start;" transform="rotate(0, 761.944, 1325.85)" x="761.944" y="1325.85">0.5 </text>
</g>
<g clip-path="url(#clip7800)">
<text style="fill:#000000; fill-opacity:1; font-family:Times New Roman,TimesNewRoman,Times,Baskerville,Georgia,serif; font-size:118px; text-anchor:start;" transform="rotate(0, 1121.86, 1387.53)" x="1121.86" y="1387.53">10</text>
</g>
<g clip-path="url(#clip7800)">
<text style="fill:#000000; fill-opacity:1; font-family:Times New Roman,TimesNewRoman,Times,Baskerville,Georgia,serif; font-size:95px; text-anchor:start;" transform="rotate(0, 1239.32, 1325.85)" x="1239.32" y="1325.85">0.0 </text>
</g>
<g clip-path="url(#clip7800)">
<text style="fill:#000000; fill-opacity:1; font-family:Times New Roman,TimesNewRoman,Times,Baskerville,Georgia,serif; font-size:118px; text-anchor:start;" transform="rotate(0, 1626.15, 1387.53)" x="1626.15" y="1387.53">10</text>
</g>
<g clip-path="url(#clip7800)">
<text style="fill:#000000; fill-opacity:1; font-family:Times New Roman,TimesNewRoman,Times,Baskerville,Georgia,serif; font-size:95px; text-anchor:start;" transform="rotate(0, 1743.61, 1325.85)" x="1743.61" y="1325.85">0.5 </text>
</g>
<g clip-path="url(#clip7800)">
<text style="fill:#000000; fill-opacity:1; font-family:Times New Roman,TimesNewRoman,Times,Baskerville,Georgia,serif; font-size:118px; text-anchor:start;" transform="rotate(0, 2130.44, 1387.53)" x="2130.44" y="1387.53">10</text>
</g>
<g clip-path="url(#clip7800)">
<text style="fill:#000000; fill-opacity:1; font-family:Times New Roman,TimesNewRoman,Times,Baskerville,Georgia,serif; font-size:95px; text-anchor:start;" transform="rotate(0, 2247.9, 1325.85)" x="2247.9" y="1325.85">1.0 </text>
</g>
<g clip-path="url(#clip7800)">
<text style="fill:#000000; fill-opacity:1; font-family:Times New Roman,TimesNewRoman,Times,Baskerville,Georgia,serif; font-size:118px; text-anchor:end;" transform="rotate(0, 159.074, 1201.08)" x="159.074" y="1201.08">0</text>
</g>
<g clip-path="url(#clip7800)">
<text style="fill:#000000; fill-opacity:1; font-family:Times New Roman,TimesNewRoman,Times,Baskerville,Georgia,serif; font-size:118px; text-anchor:end;" transform="rotate(0, 159.074, 849.793)" x="159.074" y="849.793">1</text>
</g>
<g clip-path="url(#clip7800)">
<text style="fill:#000000; fill-opacity:1; font-family:Times New Roman,TimesNewRoman,Times,Baskerville,Georgia,serif; font-size:118px; text-anchor:end;" transform="rotate(0, 159.074, 498.502)" x="159.074" y="498.502">2</text>
</g>
<g clip-path="url(#clip7800)">
<text style="fill:#000000; fill-opacity:1; font-family:Times New Roman,TimesNewRoman,Times,Baskerville,Georgia,serif; font-size:118px; text-anchor:end;" transform="rotate(0, 159.074, 147.211)" x="159.074" y="147.211">3</text>
</g>
<polygon clip-path="url(#clip7802)" points="
243.589,856.957 253.725,856.858 263.862,856.755 273.998,856.646 284.135,856.532 294.271,856.413 304.408,856.288 314.544,856.158 324.681,856.02 334.817,855.877 
  344.954,855.726 355.09,855.569 365.227,855.404 375.363,855.231 385.499,855.049 395.636,854.859 405.772,854.66 415.909,854.452 426.045,854.233 436.182,854.004 
  446.318,853.765 456.455,853.513 466.591,853.25 476.728,852.974 486.864,852.684 497.001,852.381 507.137,852.063 517.273,851.73 527.41,851.381 537.546,851.016 
  547.683,850.632 557.819,850.231 567.956,849.81 578.092,849.369 588.229,848.906 598.365,848.421 608.502,847.913 618.638,847.381 628.775,846.823 638.911,846.238 
  649.048,845.625 659.184,844.982 669.32,844.309 679.457,843.603 689.593,842.863 699.73,842.088 709.866,841.275 720.003,840.424 730.139,839.532 740.276,838.597 
  750.412,837.618 760.549,836.593 770.685,835.519 780.822,834.394 790.958,833.217 801.094,831.984 811.231,830.695 821.367,829.346 831.504,827.936 841.64,826.462 
  851.777,824.923 861.913,823.315 872.05,821.639 882.186,819.891 892.323,818.071 902.459,816.178 912.596,814.211 922.732,812.17 932.868,810.056 943.005,807.87 
  953.141,805.614 963.278,803.292 973.414,800.908 983.551,798.465 993.687,795.971 1003.82,793.431 1013.96,790.851 1024.1,788.238 1034.23,785.597 1044.37,782.929 
  1054.51,780.237 1064.64,777.521 1074.78,774.788 1084.92,772.065 1095.05,769.424 1105.19,767.024 1115.32,765.165 1125.46,764.349 1135.6,765.376 1145.73,769.492 
  1155.87,778.674 1166.01,795.779 1176.14,819.888 1186.28,827.541 1196.42,808.577 1206.55,797.323 1216.69,801.424 1226.83,817.126 1236.96,850.424 1247.1,927.907 
  1257.24,947.095 1267.37,872.433 1277.51,855.442 1287.64,878.383 1297.78,969.641 1307.92,1200.18 1318.05,953.778 1328.19,913.684 1338.33,911.817 1348.46,916.364 
  1358.6,922.548 1368.74,930.24 1378.87,939.171 1389.01,948.814 1399.15,958.726 1409.28,968.611 1419.42,978.292 1429.56,987.669 1439.69,996.684 1449.83,1005.31 
  1459.96,1013.53 1470.1,1021.35 1480.24,1028.77 1490.37,1035.81 1500.51,1042.46 1510.65,1048.76 1520.78,1054.71 1530.92,1060.33 1541.06,1065.64 1551.19,1070.66 
  1561.33,1075.4 1571.47,1079.87 1581.6,1084.1 1591.74,1088.09 1601.88,1091.86 1612.01,1095.43 1622.15,1098.8 1632.28,1101.98 1642.42,1105 1652.56,1107.85 
  1662.69,1110.55 1672.83,1113.1 1682.97,1115.52 1693.1,1117.81 1703.24,1119.99 1713.38,1122.04 1723.51,1124 1733.65,1125.85 1743.79,1127.6 1753.92,1129.27 
  1764.06,1130.85 1774.19,1132.35 1784.33,1133.77 1794.47,1135.13 1804.6,1136.41 1814.74,1137.63 1824.88,1138.8 1835.01,1139.9 1845.15,1140.95 1855.29,1141.94 
  1865.42,1142.89 1875.56,1143.8 1885.7,1144.65 1895.83,1145.47 1905.97,1146.25 1916.11,1146.99 1926.24,1147.69 1936.38,1148.36 1946.51,1149 1956.65,1149.61 
  1966.79,1150.19 1976.92,1150.74 1987.06,1151.27 1997.2,1151.77 2007.33,1152.24 2017.47,1152.7 2027.61,1153.13 2037.74,1153.54 2047.88,1153.94 2058.02,1154.31 
  2068.15,1154.67 2078.29,1155.01 2088.43,1155.33 2098.56,1155.64 2108.7,1155.94 2118.83,1156.22 2128.97,1156.49 2139.11,1156.75 2149.24,1156.99 2159.38,1157.22 
  2169.52,1157.44 2179.65,1157.66 2189.79,1157.86 2199.93,1158.05 2210.06,1158.24 2220.2,1158.41 2230.34,1158.58 2240.47,1158.74 2250.61,1158.89 2260.75,1159.04 
  2260.75,1158.05 2250.61,1157.85 2240.47,1157.65 2230.34,1157.44 2220.2,1157.22 2210.06,1156.98 2199.93,1156.74 2189.79,1156.48 2179.65,1156.21 2169.52,1155.93 
  2159.38,1155.64 2149.24,1155.33 2139.11,1155 2128.97,1154.66 2118.83,1154.3 2108.7,1153.93 2098.56,1153.53 2088.43,1153.12 2078.29,1152.68 2068.15,1152.23 
  2058.02,1151.75 2047.88,1151.25 2037.74,1150.72 2027.61,1150.17 2017.47,1149.59 2007.33,1148.98 1997.2,1148.34 1987.06,1147.66 1976.92,1146.96 1966.79,1146.22 
  1956.65,1145.43 1946.51,1144.61 1936.38,1143.75 1926.24,1142.84 1916.11,1141.89 1905.97,1140.89 1895.83,1139.83 1885.7,1138.72 1875.56,1137.55 1865.42,1136.32 
  1855.29,1135.03 1845.15,1133.66 1835.01,1132.22 1824.88,1130.71 1814.74,1129.11 1804.6,1127.42 1794.47,1125.64 1784.33,1123.77 1774.19,1121.78 1764.06,1119.69 
  1753.92,1117.48 1743.79,1115.14 1733.65,1112.67 1723.51,1110.05 1713.38,1107.28 1703.24,1104.34 1693.1,1101.23 1682.97,1097.94 1672.83,1094.44 1662.69,1090.72 
  1652.56,1086.77 1642.42,1082.57 1632.28,1078.1 1622.15,1073.33 1612.01,1068.26 1601.88,1062.84 1591.74,1057.05 1581.6,1050.86 1571.47,1044.24 1561.33,1037.15 
  1551.19,1029.53 1541.06,1021.36 1530.92,1012.56 1520.78,1003.09 1510.65,992.874 1500.51,981.84 1490.37,969.906 1480.24,956.976 1470.1,942.946 1459.96,927.698 
  1449.83,911.101 1439.69,893.005 1429.56,873.243 1419.42,851.624 1409.28,827.926 1399.15,801.877 1389.01,773.134 1378.87,741.239 1368.74,705.606 1358.6,665.622 
  1348.46,621.067 1338.33,572.042 1328.19,513.589 1318.05,410.828 1307.92,80.8248 1297.78,281.295 1287.64,333.953 1277.51,313.284 1267.37,250.859 1257.24,128.932 
  1247.1,118.544 1236.96,182.349 1226.83,205.747 1216.69,216.944 1206.55,221.478 1196.42,214.295 1186.28,203.776 1176.14,227.827 1166.01,273.74 1155.87,313.81 
  1145.73,345.969 1135.6,372.836 1125.46,396.263 1115.32,417.396 1105.19,436.939 1095.05,455.312 1084.92,472.736 1074.78,489.308 1064.64,505.05 1054.51,519.961 
  1044.37,534.034 1034.23,547.271 1024.1,559.689 1013.96,571.314 1003.82,582.181 993.687,592.33 983.551,601.804 973.414,610.646 963.278,618.901 953.141,626.611 
  943.005,633.815 932.868,640.55 922.732,646.853 912.596,652.754 902.459,658.284 892.323,663.47 882.186,668.337 872.05,672.909 861.913,677.206 851.777,681.247 
  841.64,685.052 831.504,688.635 821.367,692.012 811.231,695.197 801.094,698.203 790.958,701.04 780.822,703.721 770.685,706.254 760.549,708.649 750.412,710.916 
  740.276,713.06 730.139,715.091 720.003,717.014 709.866,718.837 699.73,720.564 689.593,722.203 679.457,723.756 669.32,725.231 659.184,726.63 649.048,727.958 
  638.911,729.22 628.775,730.418 618.638,731.556 608.502,732.638 598.365,733.666 588.229,734.644 578.092,735.573 567.956,736.457 557.819,737.298 547.683,738.098 
  537.546,738.86 527.41,739.584 517.273,740.274 507.137,740.931 497.001,741.556 486.864,742.151 476.728,742.718 466.591,743.258 456.455,743.772 446.318,744.262 
  436.182,744.729 426.045,745.174 415.909,745.598 405.772,746.002 395.636,746.387 385.499,746.754 375.363,747.104 365.227,747.438 355.09,747.756 344.954,748.059 
  334.817,748.348 324.681,748.624 314.544,748.887 304.408,749.138 294.271,749.377 284.135,749.605 273.998,749.823 263.862,750.03 253.725,750.228 243.589,750.417 
  
  " fill="#009af9" fill-rule="evenodd" fill-opacity="0.5"/>
<polyline clip-path="url(#clip7802)" style="stroke:#009af9; stroke-width:4; stroke-opacity:0.2; fill:none" points="
  243.589,803.687 253.725,803.543 263.862,803.392 273.998,803.234 284.135,803.069 294.271,802.895 304.408,802.713 314.544,802.522 324.681,802.322 334.817,802.113 
  344.954,801.893 355.09,801.662 365.227,801.421 375.363,801.167 385.499,800.902 395.636,800.623 405.772,800.331 415.909,800.025 426.045,799.704 436.182,799.367 
  446.318,799.013 456.455,798.643 466.591,798.254 476.728,797.846 486.864,797.418 497.001,796.968 507.137,796.497 517.273,796.002 527.41,795.483 537.546,794.938 
  547.683,794.365 557.819,793.765 567.956,793.134 578.092,792.471 588.229,791.775 598.365,791.044 608.502,790.276 618.638,789.468 628.775,788.62 638.911,787.729 
  649.048,786.791 659.184,785.806 669.32,784.77 679.457,783.68 689.593,782.533 699.73,781.326 709.866,780.056 720.003,778.719 730.139,777.311 740.276,775.829 
  750.412,774.267 760.549,772.621 770.685,770.886 780.822,769.057 790.958,767.128 801.094,765.094 811.231,762.946 821.367,760.679 831.504,758.286 841.64,755.757 
  851.777,753.085 861.913,750.26 872.05,747.274 882.186,744.114 892.323,740.77 902.459,737.231 912.596,733.482 922.732,729.511 932.868,725.303 943.005,720.842 
  953.141,716.113 963.278,711.097 973.414,705.777 983.551,700.134 993.687,694.15 1003.82,687.806 1013.96,681.083 1024.1,673.964 1034.23,666.434 1044.37,658.481 
  1054.51,650.099 1064.64,641.285 1074.78,632.048 1084.92,622.401 1095.05,612.368 1105.19,601.982 1115.32,591.28 1125.46,580.306 1135.6,569.106 1145.73,557.731 
  1155.87,546.242 1166.01,534.76 1176.14,523.858 1186.28,515.659 1196.42,511.436 1206.55,509.401 1216.69,509.184 1226.83,511.437 1236.96,516.387 1247.1,523.225 
  1257.24,538.014 1267.37,561.646 1277.51,584.363 1287.64,606.168 1297.78,625.468 1307.92,640.502 1318.05,682.303 1328.19,713.637 1338.33,741.929 1348.46,768.715 
  1358.6,794.085 1368.74,817.923 1378.87,840.205 1389.01,860.974 1399.15,880.301 1409.28,898.268 1419.42,914.958 1429.56,930.456 1439.69,944.845 1449.83,958.205 
  1459.96,970.616 1470.1,982.15 1480.24,992.875 1490.37,1002.86 1500.51,1012.15 1510.65,1020.82 1520.78,1028.9 1530.92,1036.45 1541.06,1043.5 1551.19,1050.1 
  1561.33,1056.27 1571.47,1062.06 1581.6,1067.48 1591.74,1072.57 1601.88,1077.35 1612.01,1081.84 1622.15,1086.06 1632.28,1090.04 1642.42,1093.78 1652.56,1097.31 
  1662.69,1100.63 1672.83,1103.77 1682.97,1106.73 1693.1,1109.52 1703.24,1112.17 1713.38,1114.66 1723.51,1117.02 1733.65,1119.26 1743.79,1121.37 1753.92,1123.37 
  1764.06,1125.27 1774.19,1127.07 1784.33,1128.77 1794.47,1130.38 1804.6,1131.92 1814.74,1133.37 1824.88,1134.75 1835.01,1136.06 1845.15,1137.3 1855.29,1138.49 
  1865.42,1139.61 1875.56,1140.67 1885.7,1141.69 1895.83,1142.65 1905.97,1143.57 1916.11,1144.44 1926.24,1145.27 1936.38,1146.06 1946.51,1146.81 1956.65,1147.52 
  1966.79,1148.2 1976.92,1148.85 1987.06,1149.46 1997.2,1150.05 2007.33,1150.61 2017.47,1151.14 2027.61,1151.65 2037.74,1152.13 2047.88,1152.59 2058.02,1153.03 
  2068.15,1153.45 2078.29,1153.85 2088.43,1154.23 2098.56,1154.59 2108.7,1154.93 2118.83,1155.26 2128.97,1155.57 2139.11,1155.87 2149.24,1156.16 2159.38,1156.43 
  2169.52,1156.69 2179.65,1156.94 2189.79,1157.17 2199.93,1157.4 2210.06,1157.61 2220.2,1157.81 2230.34,1158.01 2240.47,1158.2 2250.61,1158.37 2260.75,1158.54 
  
  "/>
</svg>
