<svg class="main-svg" xmlns="http://www.w3.org/2000/svg" xmlns:xlink="http://www.w3.org/1999/xlink" width="700" height="500" style="" viewBox="0 0 700 500"><rect x="0" y="0" width="700" height="500" style="fill: rgb(255, 255, 255); fill-opacity: 1;"/><defs id="defs-0ca2eb"><g class="clips"><clipPath id="clip0ca2ebxyplot" class="plotclip"><rect width="287.7087707786527" height="398.2365485564304"/></clipPath><clipPath id="clip0ca2ebx2y2plot" class="plotclip"><rect width="287.70877077865265" height="398.2365485564304"/></clipPath><clipPath class="axesclip" id="clip0ca2ebx"><rect x="60.76367016622921" y="0" width="287.7087707786527" height="500"/></clipPath><clipPath class="axesclip" id="clip0ca2eby"><rect x="0" y="46.88867016622919" width="700" height="398.2365485564304"/></clipPath><clipPath class="axesclip" id="clip0ca2ebxy"><rect x="60.76367016622921" y="46.88867016622919" width="287.7087707786527" height="398.2365485564304"/></clipPath><clipPath class="axesclip" id="clip0ca2eby2"><rect x="0" y="46.88867016622919" width="700" height="398.2365485564304"/></clipPath><clipPath class="axesclip" id="clip0ca2ebxy2"><rect x="60.76367016622921" y="46.88867016622919" width="287.7087707786527" height="398.2365485564304"/></clipPath><clipPath class="axesclip" id="clip0ca2ebx2"><rect x="405.7636701662292" y="0" width="287.70877077865265" height="500"/></clipPath><clipPath class="axesclip" id="clip0ca2ebx2y"><rect x="405.7636701662292" y="46.88867016622919" width="287.70877077865265" height="398.2365485564304"/></clipPath><clipPath class="axesclip" id="clip0ca2ebx2y2"><rect x="405.7636701662292" y="46.88867016622919" width="287.70877077865265" height="398.2365485564304"/></clipPath></g><g class="gradients"/><g class="patterns"/></defs><g class="bglayer"/><g class="layer-below"><g class="imagelayer"/><g class="shapelayer"/></g><g class="cartesianlayer"><g class="subplot xy"><g class="layer-subplot"><g class="shapelayer"/><g class="imagelayer"/></g><g class="minor-gridlayer"><g class="x"/><g class="y"/></g><g class="gridlayer"><g class="x"><path class="xgrid crisp" transform="translate(63.783670166229214,0)" d="M0,46.88867016622919v398.2365485564304" style="stroke: rgb(0, 0, 0); stroke-opacity: 0.1; stroke-width: 0.5px;"/><path class="xgrid crisp" transform="translate(127.80367016622921,0)" d="M0,46.88867016622919v398.2365485564304" style="stroke: rgb(0, 0, 0); stroke-opacity: 0.1; stroke-width: 0.5px;"/><path class="xgrid crisp" transform="translate(191.81367016622923,0)" d="M0,46.88867016622919v398.2365485564304" style="stroke: rgb(0, 0, 0); stroke-opacity: 0.1; stroke-width: 0.5px;"/><path class="xgrid crisp" transform="translate(255.8336701662292,0)" d="M0,46.88867016622919v398.2365485564304" style="stroke: rgb(0, 0, 0); stroke-opacity: 0.1; stroke-width: 0.5px;"/><path class="xgrid crisp" transform="translate(319.8436701662292,0)" d="M0,46.88867016622919v398.2365485564304" style="stroke: rgb(0, 0, 0); stroke-opacity: 0.1; stroke-width: 0.5px;"/></g><g class="y"><path class="ygrid crisp" transform="translate(0,374.5186701662292)" d="M60.76367016622921,0h287.7087707786527" style="stroke: rgb(0, 0, 0); stroke-opacity: 0.1; stroke-width: 0.5px;"/><path class="ygrid crisp" transform="translate(0,303.9086701662292)" d="M60.76367016622921,0h287.7087707786527" style="stroke: rgb(0, 0, 0); stroke-opacity: 0.1; stroke-width: 0.5px;"/><path class="ygrid crisp" transform="translate(0,233.2986701662292)" d="M60.76367016622921,0h287.7087707786527" style="stroke: rgb(0, 0, 0); stroke-opacity: 0.1; stroke-width: 0.5px;"/><path class="ygrid crisp" transform="translate(0,162.6886701662292)" d="M60.76367016622921,0h287.7087707786527" style="stroke: rgb(0, 0, 0); stroke-opacity: 0.1; stroke-width: 0.5px;"/><path class="ygrid crisp" transform="translate(0,92.07867016622919)" d="M60.76367016622921,0h287.7087707786527" style="stroke: rgb(0, 0, 0); stroke-opacity: 0.1; stroke-width: 0.5px;"/></g></g><g class="zerolinelayer"/><g class="layer-between"><g class="shapelayer"/><g class="imagelayer"/></g><path class="xlines-below"/><path class="ylines-below"/><g class="overlines-below"/><g class="xaxislayer-below"/><g class="yaxislayer-below"/><g class="overaxes-below"/><g class="overplot"><g class="xy" transform="translate(60.76367016622921,46.88867016622919)" clip-path="url(#clip0ca2ebxyplot)"><g class="scatterlayer mlayer"><g class="trace scatter tracef72ae1" style="stroke-miterlimit: 2;"><g class="fills"><g><path class="js-fill" d="M15.82,398.24L15.82,398.24L15.82,391.18L15.82,398.24L28.63,398.24L28.63,391.18L15.82,391.18L15.82,391.18" style="fill: rgb(0, 154, 250); fill-opacity: 1; stroke-width: 0;"/></g></g><g class="errorbars"/><g class="lines"><path class="js-line" d="M15.82,391.18L15.82,398.24L28.63,398.24L28.63,391.18L15.82,391.18L15.82,391.18" style="vector-effect: none; fill: none; stroke: rgb(0, 0, 0); stroke-opacity: 1; stroke-width: 1px; opacity: 1;"/></g><g class="points"/><g class="text"/></g><g class="trace scatter trace2ad0dc" style="stroke-miterlimit: 2;"><g class="fills"><g><path class="js-fill" d="M28.63,398.24L28.63,398.24L28.63,361.52L28.63,398.24L41.43,398.24L41.43,361.52L28.63,361.52L28.63,361.52" style="fill: rgb(0, 154, 250); fill-opacity: 1; stroke-width: 0;"/></g></g><g class="errorbars"/><g class="lines"><path class="js-line" d="M28.63,361.52L28.63,398.24L41.43,398.24L41.43,361.52L28.63,361.52L28.63,361.52" style="vector-effect: none; fill: none; stroke: rgb(0, 0, 0); stroke-opacity: 1; stroke-width: 1px; opacity: 1;"/></g><g class="points"/><g class="text"/></g><g class="trace scatter trace7c4812" style="stroke-miterlimit: 2;"><g class="fills"><g><path class="js-fill" d="M41.43,398.24L41.43,398.24L41.43,254.19L41.43,398.24L54.23,398.24L54.23,254.19L41.43,254.19L41.43,254.19" style="fill: rgb(0, 154, 250); fill-opacity: 1; stroke-width: 0;"/></g></g><g class="errorbars"/><g class="lines"><path class="js-line" d="M41.43,254.19L41.43,398.24L54.23,398.24L54.23,254.19L41.43,254.19L41.43,254.19" style="vector-effect: none; fill: none; stroke: rgb(0, 0, 0); stroke-opacity: 1; stroke-width: 1px; opacity: 1;"/></g><g class="points"/><g class="text"/></g><g class="trace scatter trace151b21" style="stroke-miterlimit: 2;"><g class="fills"><g><path class="js-fill" d="M54.23,398.24L54.23,398.24L54.23,83.32L54.23,398.24L67.04,398.24L67.04,83.32L54.23,83.32L54.23,83.32" style="fill: rgb(0, 154, 250); fill-opacity: 1; stroke-width: 0;"/></g></g><g class="errorbars"/><g class="lines"><path class="js-line" d="M54.23,83.32L54.23,398.24L67.04,398.24L67.04,83.32L54.23,83.32L54.23,83.32" style="vector-effect: none; fill: none; stroke: rgb(0, 0, 0); stroke-opacity: 1; stroke-width: 1px; opacity: 1;"/></g><g class="points"/><g class="text"/></g><g class="trace scatter tracedbff88" style="stroke-miterlimit: 2;"><g class="fills"><g><path class="js-fill" d="M67.04,398.24L67.04,398.24L67.04,39.54L67.04,398.24L79.84,398.24L79.84,39.54L67.04,39.54L67.04,39.54" style="fill: rgb(0, 154, 250); fill-opacity: 1; stroke-width: 0;"/></g></g><g class="errorbars"/><g class="lines"><path class="js-line" d="M67.04,39.54L67.04,398.24L79.84,398.24L79.84,39.54L67.04,39.54L67.04,39.54" style="vector-effect: none; fill: none; stroke: rgb(0, 0, 0); stroke-opacity: 1; stroke-width: 1px; opacity: 1;"/></g><g class="points"/><g class="text"/></g><g class="trace scatter tracea79a08" style="stroke-miterlimit: 2;"><g class="fills"><g><path class="js-fill" d="M79.84,398.24L79.84,398.24L79.84,22.59L79.84,398.24L92.64,398.24L92.64,22.59L79.84,22.59L79.84,22.59" style="fill: rgb(0, 154, 250); fill-opacity: 1; stroke-width: 0;"/></g></g><g class="errorbars"/><g class="lines"><path class="js-line" d="M79.84,22.59L79.84,398.24L92.64,398.24L92.64,22.59L79.84,22.59L79.84,22.59" style="vector-effect: none; fill: none; stroke: rgb(0, 0, 0); stroke-opacity: 1; stroke-width: 1px; opacity: 1;"/></g><g class="points"/><g class="text"/></g><g class="trace scatter tracec1bec5" style="stroke-miterlimit: 2;"><g class="fills"><g><path class="js-fill" d="M92.64,398.24L92.64,398.24L92.64,0L92.64,398.24L105.45,398.24L105.45,0L92.64,0L92.64,0" style="fill: rgb(0, 154, 250); fill-opacity: 1; stroke-width: 0;"/></g></g><g class="errorbars"/><g class="lines"><path class="js-line" d="M92.64,0L92.64,398.24L105.45,398.24L105.45,0L92.64,0L92.64,0" style="vector-effect: none; fill: none; stroke: rgb(0, 0, 0); stroke-opacity: 1; stroke-width: 1px; opacity: 1;"/></g><g class="points"/><g class="text"/></g><g class="trace scatter trace775545" style="stroke-miterlimit: 2;"><g class="fills"><g><path class="js-fill" d="M105.45,398.24L105.45,398.24L105.45,84.73L105.45,398.24L118.25,398.24L118.25,84.73L105.45,84.73L105.45,84.73" style="fill: rgb(0, 154, 250); fill-opacity: 1; stroke-width: 0;"/></g></g><g class="errorbars"/><g class="lines"><path class="js-line" d="M105.45,84.73L105.45,398.24L118.25,398.24L118.25,84.73L105.45,84.73L105.45,84.73" style="vector-effect: none; fill: none; stroke: rgb(0, 0, 0); stroke-opacity: 1; stroke-width: 1px; opacity: 1;"/></g><g class="points"/><g class="text"/></g><g class="trace scatter tracedd5666" style="stroke-miterlimit: 2;"><g class="fills"><g><path class="js-fill" d="M118.25,398.24L118.25,398.24L118.25,160.99L118.25,398.24L131.05,398.24L131.05,160.99L118.25,160.99L118.25,160.99" style="fill: rgb(0, 154, 250); fill-opacity: 1; stroke-width: 0;"/></g></g><g class="errorbars"/><g class="lines"><path class="js-line" d="M118.25,160.99L118.25,398.24L131.05,398.24L131.05,160.99L118.25,160.99L118.25,160.99" style="vector-effect: none; fill: none; stroke: rgb(0, 0, 0); stroke-opacity: 1; stroke-width: 1px; opacity: 1;"/></g><g class="points"/><g class="text"/></g><g class="trace scatter tracef0c36e" style="stroke-miterlimit: 2;"><g class="fills"><g><path class="js-fill" d="M131.05,398.24L131.05,398.24L131.05,194.88L131.05,398.24L143.85,398.24L143.85,194.88L131.05,194.88L131.05,194.88" style="fill: rgb(0, 154, 250); fill-opacity: 1; stroke-width: 0;"/></g></g><g class="errorbars"/><g class="lines"><path class="js-line" d="M131.05,194.88L131.05,398.24L143.85,398.24L143.85,194.88L131.05,194.88L131.05,194.88" style="vector-effect: none; fill: none; stroke: rgb(0, 0, 0); stroke-opacity: 1; stroke-width: 1px; opacity: 1;"/></g><g class="points"/><g class="text"/></g><g class="trace scatter trace4e92cb" style="stroke-miterlimit: 2;"><g class="fills"><g><path class="js-fill" d="M143.85,398.24L143.85,398.24L143.85,238.66L143.85,398.24L156.66,398.24L156.66,238.66L143.85,238.66L143.85,238.66" style="fill: rgb(0, 154, 250); fill-opacity: 1; stroke-width: 0;"/></g></g><g class="errorbars"/><g class="lines"><path class="js-line" d="M143.85,238.66L143.85,398.24L156.66,398.24L156.66,238.66L143.85,238.66L143.85,238.66" style="vector-effect: none; fill: none; stroke: rgb(0, 0, 0); stroke-opacity: 1; stroke-width: 1px; opacity: 1;"/></g><g class="points"/><g class="text"/></g><g class="trace scatter trace98dbbc" style="stroke-miterlimit: 2;"><g class="fills"><g><path class="js-fill" d="M156.66,398.24L156.66,398.24L156.66,299.38L156.66,398.24L169.46,398.24L169.46,299.38L156.66,299.38L156.66,299.38" style="fill: rgb(0, 154, 250); fill-opacity: 1; stroke-width: 0;"/></g></g><g class="errorbars"/><g class="lines"><path class="js-line" d="M156.66,299.38L156.66,398.24L169.46,398.24L169.46,299.38L156.66,299.38L156.66,299.38" style="vector-effect: none; fill: none; stroke: rgb(0, 0, 0); stroke-opacity: 1; stroke-width: 1px; opacity: 1;"/></g><g class="points"/><g class="text"/></g><g class="trace scatter trace115638" style="stroke-miterlimit: 2;"><g class="fills"><g><path class="js-fill" d="M169.46,398.24L169.46,398.24L169.46,333.28L169.46,398.24L182.26,398.24L182.26,333.28L169.46,333.28L169.46,333.28" style="fill: rgb(0, 154, 250); fill-opacity: 1; stroke-width: 0;"/></g></g><g class="errorbars"/><g class="lines"><path class="js-line" d="M169.46,333.28L169.46,398.24L182.26,398.24L182.26,333.28L169.46,333.28L169.46,333.28" style="vector-effect: none; fill: none; stroke: rgb(0, 0, 0); stroke-opacity: 1; stroke-width: 1px; opacity: 1;"/></g><g class="points"/><g class="text"/></g><g class="trace scatter trace304937" style="stroke-miterlimit: 2;"><g class="fills"><g><path class="js-fill" d="M182.26,398.24L182.26,398.24L182.26,337.51L182.26,398.24L195.07,398.24L195.07,337.51L182.26,337.51L182.26,337.51" style="fill: rgb(0, 154, 250); fill-opacity: 1; stroke-width: 0;"/></g></g><g class="errorbars"/><g class="lines"><path class="js-line" d="M182.26,337.51L182.26,398.24L195.07,398.24L195.07,337.51L182.26,337.51L182.26,337.51" style="vector-effect: none; fill: none; stroke: rgb(0, 0, 0); stroke-opacity: 1; stroke-width: 1px; opacity: 1;"/></g><g class="points"/><g class="text"/></g><g class="trace scatter trace9a9a41" style="stroke-miterlimit: 2;"><g class="fills"><g><path class="js-fill" d="M195.07,398.24L195.07,398.24L195.07,369.99L195.07,398.24L207.87,398.24L207.87,369.99L195.07,369.99L195.07,369.99" style="fill: rgb(0, 154, 250); fill-opacity: 1; stroke-width: 0;"/></g></g><g class="errorbars"/><g class="lines"><path class="js-line" d="M195.07,369.99L195.07,398.24L207.87,398.24L207.87,369.99L195.07,369.99L195.07,369.99" style="vector-effect: none; fill: none; stroke: rgb(0, 0, 0); stroke-opacity: 1; stroke-width: 1px; opacity: 1;"/></g><g class="points"/><g class="text"/></g><g class="trace scatter trace4747ed" style="stroke-miterlimit: 2;"><g class="fills"><g><path class="js-fill" d="M207.87,398.24L207.87,398.24L207.87,388.35L207.87,398.24L220.67,398.24L220.67,388.35L207.87,388.35L207.87,388.35" style="fill: rgb(0, 154, 250); fill-opacity: 1; stroke-width: 0;"/></g></g><g class="errorbars"/><g class="lines"><path class="js-line" d="M207.87,388.35L207.87,398.24L220.67,398.24L220.67,388.35L207.87,388.35L207.87,388.35" style="vector-effect: none; fill: none; stroke: rgb(0, 0, 0); stroke-opacity: 1; stroke-width: 1px; opacity: 1;"/></g><g class="points"/><g class="text"/></g><g class="trace scatter trace146339" style="stroke-miterlimit: 2;"><g class="fills"><g><path class="js-fill" d="M220.67,398.24L220.67,398.24L220.67,394L220.67,398.24L233.48,398.24L233.48,394L220.67,394L220.67,394" style="fill: rgb(0, 154, 250); fill-opacity: 1; stroke-width: 0;"/></g></g><g class="errorbars"/><g class="lines"><path class="js-line" d="M220.67,394L220.67,398.24L233.48,398.24L233.48,394L220.67,394L220.67,394" style="vector-effect: none; fill: none; stroke: rgb(0, 0, 0); stroke-opacity: 1; stroke-width: 1px; opacity: 1;"/></g><g class="points"/><g class="text"/></g><g class="trace scatter trace01f197" style="stroke-miterlimit: 2;"><g class="fills"><g><path class="js-fill" d="M233.48,398.24L233.48,398.24L233.48,392.59L233.48,398.24L246.28,398.24L246.28,392.59L233.48,392.59L233.48,392.59" style="fill: rgb(0, 154, 250); fill-opacity: 1; stroke-width: 0;"/></g></g><g class="errorbars"/><g class="lines"><path class="js-line" d="M233.48,392.59L233.48,398.24L246.28,398.24L246.28,392.59L233.48,392.59L233.48,392.59" style="vector-effect: none; fill: none; stroke: rgb(0, 0, 0); stroke-opacity: 1; stroke-width: 1px; opacity: 1;"/></g><g class="points"/><g class="text"/></g><g class="trace scatter trace7f30ec" style="stroke-miterlimit: 2;"><g class="fills"><g><path class="js-fill" d="M246.28,398.24L246.28,398.24L246.28,398.24L259.08,398.24L246.28,398.24" style="fill: rgb(0, 154, 250); fill-opacity: 1; stroke-width: 0;"/></g></g><g class="errorbars"/><g class="lines"><path class="js-line" d="M246.28,398.24L259.08,398.24L246.28,398.24" style="vector-effect: none; fill: none; stroke: rgb(0, 0, 0); stroke-opacity: 1; stroke-width: 1px; opacity: 1;"/></g><g class="points"/><g class="text"/></g><g class="trace scatter trace65beec" style="stroke-miterlimit: 2;"><g class="fills"><g><path class="js-fill" d="M259.08,398.24L259.08,398.24L259.08,395.41L259.08,398.24L271.88,398.24L271.88,395.41L259.08,395.41L259.08,395.41" style="fill: rgb(0, 154, 250); fill-opacity: 1; stroke-width: 0;"/></g></g><g class="errorbars"/><g class="lines"><path class="js-line" d="M259.08,395.41L259.08,398.24L271.88,398.24L271.88,395.41L259.08,395.41L259.08,395.41" style="vector-effect: none; fill: none; stroke: rgb(0, 0, 0); stroke-opacity: 1; stroke-width: 1px; opacity: 1;"/></g><g class="points"/><g class="text"/></g><g class="trace scatter trace3e72ea" style="stroke-miterlimit: 2; opacity: 1;"><g class="fills"/><g class="errorbars"/><g class="lines"/><g class="points"><path class="point" transform="translate(22.23,391.18)" d="M3,0A3,3 0 1,1 0,-3A3,3 0 0,1 3,0Z" style="opacity: 1; stroke-width: 1px; fill: rgb(0, 154, 250); fill-opacity: 0; stroke: rgb(0, 0, 0); stroke-opacity: 0;"/><path class="point" transform="translate(35.03,361.52)" d="M3,0A3,3 0 1,1 0,-3A3,3 0 0,1 3,0Z" style="opacity: 1; stroke-width: 1px; fill: rgb(0, 154, 250); fill-opacity: 0; stroke: rgb(0, 0, 0); stroke-opacity: 0;"/><path class="point" transform="translate(47.83,254.19)" d="M3,0A3,3 0 1,1 0,-3A3,3 0 0,1 3,0Z" style="opacity: 1; stroke-width: 1px; fill: rgb(0, 154, 250); fill-opacity: 0; stroke: rgb(0, 0, 0); stroke-opacity: 0;"/><path class="point" transform="translate(60.63,83.32)" d="M3,0A3,3 0 1,1 0,-3A3,3 0 0,1 3,0Z" style="opacity: 1; stroke-width: 1px; fill: rgb(0, 154, 250); fill-opacity: 0; stroke: rgb(0, 0, 0); stroke-opacity: 0;"/><path class="point" transform="translate(73.44,39.54)" d="M3,0A3,3 0 1,1 0,-3A3,3 0 0,1 3,0Z" style="opacity: 1; stroke-width: 1px; fill: rgb(0, 154, 250); fill-opacity: 0; stroke: rgb(0, 0, 0); stroke-opacity: 0;"/><path class="point" transform="translate(86.24,22.59)" d="M3,0A3,3 0 1,1 0,-3A3,3 0 0,1 3,0Z" style="opacity: 1; stroke-width: 1px; fill: rgb(0, 154, 250); fill-opacity: 0; stroke: rgb(0, 0, 0); stroke-opacity: 0;"/><path class="point" transform="translate(99.04,0)" d="M3,0A3,3 0 1,1 0,-3A3,3 0 0,1 3,0Z" style="opacity: 1; stroke-width: 1px; fill: rgb(0, 154, 250); fill-opacity: 0; stroke: rgb(0, 0, 0); stroke-opacity: 0;"/><path class="point" transform="translate(111.85,84.73)" d="M3,0A3,3 0 1,1 0,-3A3,3 0 0,1 3,0Z" style="opacity: 1; stroke-width: 1px; fill: rgb(0, 154, 250); fill-opacity: 0; stroke: rgb(0, 0, 0); stroke-opacity: 0;"/><path class="point" transform="translate(124.65,160.99)" d="M3,0A3,3 0 1,1 0,-3A3,3 0 0,1 3,0Z" style="opacity: 1; stroke-width: 1px; fill: rgb(0, 154, 250); fill-opacity: 0; stroke: rgb(0, 0, 0); stroke-opacity: 0;"/><path class="point" transform="translate(137.45,194.88)" d="M3,0A3,3 0 1,1 0,-3A3,3 0 0,1 3,0Z" style="opacity: 1; stroke-width: 1px; fill: rgb(0, 154, 250); fill-opacity: 0; stroke: rgb(0, 0, 0); stroke-opacity: 0;"/><path class="point" transform="translate(150.26,238.66)" d="M3,0A3,3 0 1,1 0,-3A3,3 0 0,1 3,0Z" style="opacity: 1; stroke-width: 1px; fill: rgb(0, 154, 250); fill-opacity: 0; stroke: rgb(0, 0, 0); stroke-opacity: 0;"/><path class="point" transform="translate(163.06,299.38)" d="M3,0A3,3 0 1,1 0,-3A3,3 0 0,1 3,0Z" style="opacity: 1; stroke-width: 1px; fill: rgb(0, 154, 250); fill-opacity: 0; stroke: rgb(0, 0, 0); stroke-opacity: 0;"/><path class="point" transform="translate(175.86,333.28)" d="M3,0A3,3 0 1,1 0,-3A3,3 0 0,1 3,0Z" style="opacity: 1; stroke-width: 1px; fill: rgb(0, 154, 250); fill-opacity: 0; stroke: rgb(0, 0, 0); stroke-opacity: 0;"/><path class="point" transform="translate(188.66,337.51)" d="M3,0A3,3 0 1,1 0,-3A3,3 0 0,1 3,0Z" style="opacity: 1; stroke-width: 1px; fill: rgb(0, 154, 250); fill-opacity: 0; stroke: rgb(0, 0, 0); stroke-opacity: 0;"/><path class="point" transform="translate(201.47,369.99)" d="M3,0A3,3 0 1,1 0,-3A3,3 0 0,1 3,0Z" style="opacity: 1; stroke-width: 1px; fill: rgb(0, 154, 250); fill-opacity: 0; stroke: rgb(0, 0, 0); stroke-opacity: 0;"/><path class="point" transform="translate(214.27,388.35)" d="M3,0A3,3 0 1,1 0,-3A3,3 0 0,1 3,0Z" style="opacity: 1; stroke-width: 1px; fill: rgb(0, 154, 250); fill-opacity: 0; stroke: rgb(0, 0, 0); stroke-opacity: 0;"/><path class="point" transform="translate(227.07,394)" d="M3,0A3,3 0 1,1 0,-3A3,3 0 0,1 3,0Z" style="opacity: 1; stroke-width: 1px; fill: rgb(0, 154, 250); fill-opacity: 0; stroke: rgb(0, 0, 0); stroke-opacity: 0;"/><path class="point" transform="translate(239.88,392.59)" d="M3,0A3,3 0 1,1 0,-3A3,3 0 0,1 3,0Z" style="opacity: 1; stroke-width: 1px; fill: rgb(0, 154, 250); fill-opacity: 0; stroke: rgb(0, 0, 0); stroke-opacity: 0;"/><path class="point" transform="translate(252.68,398.24)" d="M3,0A3,3 0 1,1 0,-3A3,3 0 0,1 3,0Z" style="opacity: 1; stroke-width: 1px; fill: rgb(0, 154, 250); fill-opacity: 0; stroke: rgb(0, 0, 0); stroke-opacity: 0;"/><path class="point" transform="translate(265.48,395.41)" d="M3,0A3,3 0 1,1 0,-3A3,3 0 0,1 3,0Z" style="opacity: 1; stroke-width: 1px; fill: rgb(0, 154, 250); fill-opacity: 0; stroke: rgb(0, 0, 0); stroke-opacity: 0;"/></g><g class="text"/></g></g></g></g><path class="xlines-above crisp" d="M59.76367016622921,445.6252187226596H348.4724409448819" style="fill: none; stroke-width: 1px; stroke: rgb(0, 0, 0); stroke-opacity: 1;"/><path class="ylines-above crisp" d="M60.26367016622921,46.88867016622919V445.1252187226596" style="fill: none; stroke-width: 1px; stroke: rgb(0, 0, 0); stroke-opacity: 1;"/><g class="overlines-above"/><g class="xaxislayer-above"><path class="xtick ticks crisp" d="M0,445.1252187226596v-5" transform="translate(63.783670166229214,0)" style="stroke: rgb(0, 0, 0); stroke-opacity: 1; stroke-width: 1px;"/><path class="xtick ticks crisp" d="M0,445.1252187226596v-5" transform="translate(127.80367016622921,0)" style="stroke: rgb(0, 0, 0); stroke-opacity: 1; stroke-width: 1px;"/><path class="xtick ticks crisp" d="M0,445.1252187226596v-5" transform="translate(191.81367016622923,0)" style="stroke: rgb(0, 0, 0); stroke-opacity: 1; stroke-width: 1px;"/><path class="xtick ticks crisp" d="M0,445.1252187226596v-5" transform="translate(255.8336701662292,0)" style="stroke: rgb(0, 0, 0); stroke-opacity: 1; stroke-width: 1px;"/><path class="xtick ticks crisp" d="M0,445.1252187226596v-5" transform="translate(319.8436701662292,0)" style="stroke: rgb(0, 0, 0); stroke-opacity: 1; stroke-width: 1px;"/><g class="xtick"><text text-anchor="middle" x="0" y="459.3252187226596" transform="translate(63.783670166229214,0)" style="font-family: sans-serif; font-size: 11px; fill: rgb(0, 0, 0); fill-opacity: 1; white-space: pre; opacity: 1;">0.00</text></g><g class="xtick"><text text-anchor="middle" x="0" y="459.3252187226596" style="font-family: sans-serif; font-size: 11px; fill: rgb(0, 0, 0); fill-opacity: 1; white-space: pre; opacity: 1;" transform="translate(127.80367016622921,0)">0.25</text></g><g class="xtick"><text text-anchor="middle" x="0" y="459.3252187226596" style="font-family: sans-serif; font-size: 11px; fill: rgb(0, 0, 0); fill-opacity: 1; white-space: pre; opacity: 1;" transform="translate(191.81367016622923,0)">0.50</text></g><g class="xtick"><text text-anchor="middle" x="0" y="459.3252187226596" style="font-family: sans-serif; font-size: 11px; fill: rgb(0, 0, 0); fill-opacity: 1; white-space: pre; opacity: 1;" transform="translate(255.8336701662292,0)">0.75</text></g><g class="xtick"><text text-anchor="middle" x="0" y="459.3252187226596" style="font-family: sans-serif; font-size: 11px; fill: rgb(0, 0, 0); fill-opacity: 1; white-space: pre; opacity: 1;" transform="translate(319.8436701662292,0)">1.00</text></g></g><g class="yaxislayer-above"><path class="ytick ticks crisp" d="M60.76367016622921,0h5" transform="translate(0,374.5186701662292)" style="stroke: rgb(0, 0, 0); stroke-opacity: 1; stroke-width: 1px;"/><path class="ytick ticks crisp" d="M60.76367016622921,0h5" transform="translate(0,303.9086701662292)" style="stroke: rgb(0, 0, 0); stroke-opacity: 1; stroke-width: 1px;"/><path class="ytick ticks crisp" d="M60.76367016622921,0h5" transform="translate(0,233.2986701662292)" style="stroke: rgb(0, 0, 0); stroke-opacity: 1; stroke-width: 1px;"/><path class="ytick ticks crisp" d="M60.76367016622921,0h5" transform="translate(0,162.6886701662292)" style="stroke: rgb(0, 0, 0); stroke-opacity: 1; stroke-width: 1px;"/><path class="ytick ticks crisp" d="M60.76367016622921,0h5" transform="translate(0,92.07867016622919)" style="stroke: rgb(0, 0, 0); stroke-opacity: 1; stroke-width: 1px;"/><g class="ytick"><text text-anchor="end" x="57.56367016622921" y="3.8499999999999996" transform="translate(0,445.1286701662292)" style="font-family: sans-serif; font-size: 11px; fill: rgb(0, 0, 0); fill-opacity: 1; white-space: pre; opacity: 1;">0</text></g><g class="ytick"><text text-anchor="end" x="57.56367016622921" y="3.8499999999999996" style="font-family: sans-serif; font-size: 11px; fill: rgb(0, 0, 0); fill-opacity: 1; white-space: pre; opacity: 1;" transform="translate(0,374.5186701662292)">50</text></g><g class="ytick"><text text-anchor="end" x="57.56367016622921" y="3.8499999999999996" style="font-family: sans-serif; font-size: 11px; fill: rgb(0, 0, 0); fill-opacity: 1; white-space: pre; opacity: 1;" transform="translate(0,303.9086701662292)">100</text></g><g class="ytick"><text text-anchor="end" x="57.56367016622921" y="3.8499999999999996" style="font-family: sans-serif; font-size: 11px; fill: rgb(0, 0, 0); fill-opacity: 1; white-space: pre; opacity: 1;" transform="translate(0,233.2986701662292)">150</text></g><g class="ytick"><text text-anchor="end" x="57.56367016622921" y="3.8499999999999996" style="font-family: sans-serif; font-size: 11px; fill: rgb(0, 0, 0); fill-opacity: 1; white-space: pre; opacity: 1;" transform="translate(0,162.6886701662292)">200</text></g><g class="ytick"><text text-anchor="end" x="57.56367016622921" y="3.8499999999999996" style="font-family: sans-serif; font-size: 11px; fill: rgb(0, 0, 0); fill-opacity: 1; white-space: pre; opacity: 1;" transform="translate(0,92.07867016622919)">250</text></g></g><g class="overaxes-above"/></g><g class="subplot x2y2"><g class="layer-subplot"><g class="shapelayer"/><g class="imagelayer"/></g><g class="minor-gridlayer"><g class="x2"/><g class="y2"/></g><g class="gridlayer"><g class="x2"><path class="x2grid crisp" transform="translate(413.9036701662292,0)" d="M0,46.88867016622919v398.2365485564304" style="stroke: rgb(0, 0, 0); stroke-opacity: 0.1; stroke-width: 0.5px;"/><path class="x2grid crisp" transform="translate(481.7636701662292,0)" d="M0,46.88867016622919v398.2365485564304" style="stroke: rgb(0, 0, 0); stroke-opacity: 0.1; stroke-width: 0.5px;"/><path class="x2grid crisp" transform="translate(549.6136701662292,0)" d="M0,46.88867016622919v398.2365485564304" style="stroke: rgb(0, 0, 0); stroke-opacity: 0.1; stroke-width: 0.5px;"/><path class="x2grid crisp" transform="translate(617.4736701662292,0)" d="M0,46.88867016622919v398.2365485564304" style="stroke: rgb(0, 0, 0); stroke-opacity: 0.1; stroke-width: 0.5px;"/><path class="x2grid crisp" transform="translate(685.3336701662292,0)" d="M0,46.88867016622919v398.2365485564304" style="stroke: rgb(0, 0, 0); stroke-opacity: 0.1; stroke-width: 0.5px;"/></g><g class="y2"><path class="y2grid crisp" transform="translate(0,386.7486701662292)" d="M405.7636701662292,0h287.70877077865265" style="stroke: rgb(0, 0, 0); stroke-opacity: 0.1; stroke-width: 0.5px;"/><path class="y2grid crisp" transform="translate(0,308.4586701662292)" d="M405.7636701662292,0h287.70877077865265" style="stroke: rgb(0, 0, 0); stroke-opacity: 0.1; stroke-width: 0.5px;"/><path class="y2grid crisp" transform="translate(0,230.1586701662292)" d="M405.7636701662292,0h287.70877077865265" style="stroke: rgb(0, 0, 0); stroke-opacity: 0.1; stroke-width: 0.5px;"/><path class="y2grid crisp" transform="translate(0,151.8586701662292)" d="M405.7636701662292,0h287.70877077865265" style="stroke: rgb(0, 0, 0); stroke-opacity: 0.1; stroke-width: 0.5px;"/><path class="y2grid crisp" transform="translate(0,73.5686701662292)" d="M405.7636701662292,0h287.70877077865265" style="stroke: rgb(0, 0, 0); stroke-opacity: 0.1; stroke-width: 0.5px;"/></g></g><g class="zerolinelayer"/><g class="layer-between"><g class="shapelayer"/><g class="imagelayer"/></g><path class="xlines-below"/><path class="ylines-below"/><g class="overlines-below"/><g class="xaxislayer-below"/><g class="yaxislayer-below"/><g class="overaxes-below"/><g class="overplot"><g class="x2y2" transform="translate(405.7636701662292,46.88867016622919)" clip-path="url(#clip0ca2ebx2y2plot)"><g class="scatterlayer mlayer"><g class="trace scatter trace9cd288" style="stroke-miterlimit: 2; opacity: 1;"><g class="fills"/><g class="errorbars"/><g class="lines"><path class="js-line" d="M8.14,386.97L10.86,365.56L13.57,357.04L16.29,350.39L19,347.41L24.43,340.95L27.14,339.44L40.71,329.44L43.43,327.71L57,320.01L59.71,318.51L67.86,313.36L70.57,312.15L86.86,302.54L89.57,301.33L114,288.27L116.71,286.51L122.14,283.88L124.85,282.38L141.14,274.44L143.85,273.4L154.71,268.37L157.43,265.99L165.57,261.21L168.28,260.07L184.57,250.46L187.28,248.63L203.57,236.36L206.28,233.93L214.42,226.34L217.14,223.5L222.57,218.66L225.28,215.4L233.42,206.96L236.14,204.45L241.57,198.88L244.28,194.83L255.14,179.99L257.85,174.28L265.99,155.4L268.71,144.5L274.14,127.92L276.85,110.27L279.57,11.27" style="vector-effect: none; fill: none; stroke: rgb(0, 154, 250); stroke-opacity: 1; stroke-width: 1px; opacity: 1;"/></g><g class="points"/><g class="text"/></g></g></g></g><path class="xlines-above crisp" d="M404.7636701662292,445.6252187226596H693.4724409448818" style="fill: none; stroke-width: 1px; stroke: rgb(0, 0, 0); stroke-opacity: 1;"/><path class="ylines-above crisp" d="M405.2636701662292,46.88867016622919V445.1252187226596" style="fill: none; stroke-width: 1px; stroke: rgb(0, 0, 0); stroke-opacity: 1;"/><g class="overlines-above"/><g class="xaxislayer-above"><path class="x2tick ticks crisp" d="M0,445.1252187226596v-5" transform="translate(413.9036701662292,0)" style="stroke: rgb(0, 0, 0); stroke-opacity: 1; stroke-width: 1px;"/><path class="x2tick ticks crisp" d="M0,445.1252187226596v-5" transform="translate(481.7636701662292,0)" style="stroke: rgb(0, 0, 0); stroke-opacity: 1; stroke-width: 1px;"/><path class="x2tick ticks crisp" d="M0,445.1252187226596v-5" transform="translate(549.6136701662292,0)" style="stroke: rgb(0, 0, 0); stroke-opacity: 1; stroke-width: 1px;"/><path class="x2tick ticks crisp" d="M0,445.1252187226596v-5" transform="translate(617.4736701662292,0)" style="stroke: rgb(0, 0, 0); stroke-opacity: 1; stroke-width: 1px;"/><path class="x2tick ticks crisp" d="M0,445.1252187226596v-5" transform="translate(685.3336701662292,0)" style="stroke: rgb(0, 0, 0); stroke-opacity: 1; stroke-width: 1px;"/><g class="x2tick"><text text-anchor="middle" x="0" y="459.3252187226596" transform="translate(413.9036701662292,0)" style="font-family: sans-serif; font-size: 11px; fill: rgb(0, 0, 0); fill-opacity: 1; white-space: pre; opacity: 1;">0.00</text></g><g class="x2tick"><text text-anchor="middle" x="0" y="459.3252187226596" style="font-family: sans-serif; font-size: 11px; fill: rgb(0, 0, 0); fill-opacity: 1; white-space: pre; opacity: 1;" transform="translate(481.7636701662292,0)">0.25</text></g><g class="x2tick"><text text-anchor="middle" x="0" y="459.3252187226596" style="font-family: sans-serif; font-size: 11px; fill: rgb(0, 0, 0); fill-opacity: 1; white-space: pre; opacity: 1;" transform="translate(549.6136701662292,0)">0.50</text></g><g class="x2tick"><text text-anchor="middle" x="0" y="459.3252187226596" style="font-family: sans-serif; font-size: 11px; fill: rgb(0, 0, 0); fill-opacity: 1; white-space: pre; opacity: 1;" transform="translate(617.4736701662292,0)">0.75</text></g><g class="x2tick"><text text-anchor="middle" x="0" y="459.3252187226596" style="font-family: sans-serif; font-size: 11px; fill: rgb(0, 0, 0); fill-opacity: 1; white-space: pre; opacity: 1;" transform="translate(685.3336701662292,0)">1.00</text></g></g><g class="yaxislayer-above"><path class="y2tick ticks crisp" d="M405.7636701662292,0h5" transform="translate(0,386.7486701662292)" style="stroke: rgb(0, 0, 0); stroke-opacity: 1; stroke-width: 1px;"/><path class="y2tick ticks crisp" d="M405.7636701662292,0h5" transform="translate(0,308.4586701662292)" style="stroke: rgb(0, 0, 0); stroke-opacity: 1; stroke-width: 1px;"/><path class="y2tick ticks crisp" d="M405.7636701662292,0h5" transform="translate(0,230.1586701662292)" style="stroke: rgb(0, 0, 0); stroke-opacity: 1; stroke-width: 1px;"/><path class="y2tick ticks crisp" d="M405.7636701662292,0h5" transform="translate(0,151.8586701662292)" style="stroke: rgb(0, 0, 0); stroke-opacity: 1; stroke-width: 1px;"/><path class="y2tick ticks crisp" d="M405.7636701662292,0h5" transform="translate(0,73.5686701662292)" style="stroke: rgb(0, 0, 0); stroke-opacity: 1; stroke-width: 1px;"/><g class="y2tick"><text text-anchor="end" x="402.5636701662292" y="3.8499999999999996" transform="translate(0,386.7486701662292)" style="font-family: sans-serif; font-size: 11px; fill: rgb(0, 0, 0); fill-opacity: 1; white-space: pre; opacity: 1;">0.2</text></g><g class="y2tick"><text text-anchor="end" x="402.5636701662292" y="3.8499999999999996" style="font-family: sans-serif; font-size: 11px; fill: rgb(0, 0, 0); fill-opacity: 1; white-space: pre; opacity: 1;" transform="translate(0,308.4586701662292)">0.4</text></g><g class="y2tick"><text text-anchor="end" x="402.5636701662292" y="3.8499999999999996" style="font-family: sans-serif; font-size: 11px; fill: rgb(0, 0, 0); fill-opacity: 1; white-space: pre; opacity: 1;" transform="translate(0,230.1586701662292)">0.6</text></g><g class="y2tick"><text text-anchor="end" x="402.5636701662292" y="3.8499999999999996" style="font-family: sans-serif; font-size: 11px; fill: rgb(0, 0, 0); fill-opacity: 1; white-space: pre; opacity: 1;" transform="translate(0,151.8586701662292)">0.8</text></g><g class="y2tick"><text text-anchor="end" x="402.5636701662292" y="3.8499999999999996" style="font-family: sans-serif; font-size: 11px; fill: rgb(0, 0, 0); fill-opacity: 1; white-space: pre; opacity: 1;" transform="translate(0,73.5686701662292)">1.0</text></g></g><g class="overaxes-above"/></g></g><g class="polarlayer"/><g class="smithlayer"/><g class="ternarylayer"/><g class="geolayer"/><g class="funnelarealayer"/><g class="pielayer"/><g class="iciclelayer"/><g class="treemaplayer"/><g class="sunburstlayer"/><g class="glimages"/><defs id="topdefs-0ca2eb"><g class="clips"/><clipPath id="legend0ca2eb"><rect width="57" height="48" x="1" y="1"/></clipPath></defs><g class="layer-above"><g class="imagelayer"/><g class="shapelayer"/></g><g class="infolayer"><g class="legend" pointer-events="all" transform="translate(639,20)"><rect class="bg" shape-rendering="crispEdges" style="stroke: rgb(0, 0, 0); stroke-opacity: 1; fill: rgb(255, 255, 255); fill-opacity: 1; stroke-width: 1px;" width="58" height="49" x="0.5" y="0.5"/><g class="scrollbox" transform="" clip-path="url(#legend0ca2eb)"><g class="groups"><g class="traces" transform="translate(1,15.5)" style="opacity: 1;"><text class="legendtext" text-anchor="start" x="40" y="4.29" style="font-family: sans-serif; font-size: 11px; fill: rgb(0, 0, 0); fill-opacity: 1; white-space: pre;">y1</text><g class="layers"><g class="legendfill"><path class="js-fill" d="M5,-2h30v6h-30z" style="stroke-width: 0; fill: rgb(0, 154, 250); fill-opacity: 1;"/></g><g class="legendlines"><path class="js-line" d="M5,-2h30" style="fill: none; stroke: rgb(0, 0, 0); stroke-opacity: 1; stroke-width: 1px;"/></g><g class="legendsymbols"><g class="legendpoints"/></g></g><rect class="legendtoggle" x="0" y="-9.5" width="51.625" height="19" style="fill: rgb(0, 0, 0); fill-opacity: 0;"/></g><g class="traces" transform="translate(1,34.5)" style="opacity: 1;"><text class="legendtext" text-anchor="start" x="40" y="4.29" style="font-family: sans-serif; font-size: 11px; fill: rgb(0, 0, 0); fill-opacity: 1; white-space: pre;">y1</text><g class="layers" style="opacity: 1;"><g class="legendfill"/><g class="legendlines"><path class="js-line" d="M5,0h30" style="fill: none; stroke: rgb(0, 154, 250); stroke-opacity: 1; stroke-width: 1px;"/></g><g class="legendsymbols"><g class="legendpoints"/></g></g><rect class="legendtoggle" x="0" y="-9.5" width="51.625" height="19" style="fill: rgb(0, 0, 0); fill-opacity: 0;"/></g></g></g><rect class="scrollbar" rx="20" ry="3" width="0" height="0" style="fill: rgb(128, 139, 164); fill-opacity: 1;" x="0" y="0"/></g><g class="g-gtitle"/><g class="g-xtitle" transform="translate(0,-9986.328125)"/><g class="g-x2title" transform="translate(0,-9986.328125)"/><g class="g-ytitle"/><g class="g-y2title"><text class="y2title" transform="rotate(-90,367.515625,246.0069444444444)" x="367.515625" y="246.0069444444444" text-anchor="middle" style="opacity: 1; font-family: sans-serif; font-size: 15px; fill: rgb(0, 0, 0); fill-opacity: 1; white-space: pre;">K</text></g><g class="annotation" data-index="0" style="opacity: 1;"><g class="annotation-text-g" transform="rotate(0,204.61805555555557,33.00000000000001)"><g class="cursor-pointer" transform="translate(65,20)"><rect class="bg" x="0.5" y="0.5" width="279" height="25" style="stroke-width: 1px; stroke: rgb(0, 0, 0); stroke-opacity: 0; fill: rgb(0, 0, 0); fill-opacity: 0;"/><text class="annotation-text" text-anchor="middle" x="139.859375" y="20" style="font-family: sans-serif; font-size: 20px; fill: rgb(0, 0, 0); fill-opacity: 1; white-space: pre;">Temperature increase 6hrs sun</text></g></g></g></g></svg>